<?xml version="1.0" encoding="UTF-8"?>
<!DOCTYPE svg PUBLIC "-//W3C//DTD SVG 1.1//EN" "http://www.w3.org/Graphics/SVG/1.1/DTD/svg11.dtd">
<!-- Creator: CorelDRAW -->
<svg xmlns="http://www.w3.org/2000/svg" xml:space="preserve" width="3.16176in" height="1.51846in" version="1.1" style="shape-rendering:geometricPrecision; text-rendering:geometricPrecision; image-rendering:optimizeQuality; fill-rule:evenodd; clip-rule:evenodd"
viewBox="0 0 108.33 52.02"
 xmlns:xlink="http://www.w3.org/1999/xlink"
 xmlns:xodm="http://www.corel.com/coreldraw/odm/2003">
 <defs>
  <style type="text/css">
   <![CDATA[
    .str0 {stroke:#C1C4C9;stroke-width:1.14;stroke-linecap:round;stroke-linejoin:round;stroke-miterlimit:2.61313;stroke-dasharray:3.426234 4.568312}
    .fil8 {fill:none}
    .fil0 {fill:#3071C6;fill-rule:nonzero}
    .fil6 {fill:url(#id0);fill-rule:nonzero;fill-opacity:0.109804}
    .fil5 {fill:url(#id1);fill-rule:nonzero;fill-opacity:0.109804}
    .fil7 {fill:url(#id2);fill-rule:nonzero;fill-opacity:0.109804}
    .fil2 {fill:url(#id3);fill-rule:nonzero;fill-opacity:0.109804}
    .fil1 {fill:url(#id4);fill-rule:nonzero;fill-opacity:0.109804}
    .fil3 {fill:url(#id5);fill-rule:nonzero;fill-opacity:0.109804}
    .fil4 {fill:url(#id6);fill-rule:nonzero;fill-opacity:0.109804}
   ]]>
  </style>
  <linearGradient id="id0" gradientUnits="userSpaceOnUse" x1="31.09" y1="51.78" x2="27.08" y2="46.72">
   <stop offset="0" style="stop-opacity:1; stop-color:white"/>
   <stop offset="0.721569" style="stop-opacity:1; stop-color:white"/>
   <stop offset="1" style="stop-opacity:1; stop-color:black"/>
  </linearGradient>
  <linearGradient id="id1" gradientUnits="userSpaceOnUse" x1="27.69" y1="43.45" x2="20.21" y2="45.97">
   <stop offset="0" style="stop-opacity:1; stop-color:white"/>
   <stop offset="0.690196" style="stop-opacity:1; stop-color:white"/>
   <stop offset="1" style="stop-opacity:1; stop-color:black"/>
  </linearGradient>
  <linearGradient id="id2" gradientUnits="userSpaceOnUse" x1="38.88" y1="31.91" x2="28.86" y2="25.79">
   <stop offset="0" style="stop-opacity:1; stop-color:white"/>
   <stop offset="0.811765" style="stop-opacity:1; stop-color:white"/>
   <stop offset="1" style="stop-opacity:1; stop-color:black"/>
  </linearGradient>
  <linearGradient id="id3" gradientUnits="userSpaceOnUse" x1="3.71" y1="20.22" x2="8.87" y2="26.59">
   <stop offset="0" style="stop-opacity:1; stop-color:white"/>
   <stop offset="0.729412" style="stop-opacity:1; stop-color:white"/>
   <stop offset="1" style="stop-opacity:1; stop-color:black"/>
  </linearGradient>
  <linearGradient id="id4" gradientUnits="userSpaceOnUse" x1="1.12" y1="18.66" x2="6.56" y2="20.32">
   <stop offset="0" style="stop-opacity:1; stop-color:white"/>
   <stop offset="0.701961" style="stop-opacity:1; stop-color:white"/>
   <stop offset="1" style="stop-opacity:1; stop-color:black"/>
  </linearGradient>
  <linearGradient id="id5" gradientUnits="userSpaceOnUse" x1="22.33" y1="31.46" x2="12.47" y2="40.54">
   <stop offset="0" style="stop-opacity:1; stop-color:white"/>
   <stop offset="0.839216" style="stop-opacity:1; stop-color:white"/>
   <stop offset="1" style="stop-opacity:1; stop-color:black"/>
  </linearGradient>
  <linearGradient id="id6" gradientUnits="userSpaceOnUse" xlink:href="#id5" x1="25.71" y1="-2039.43" x2="-1997.69" y2="-1749.04">
  </linearGradient>
 </defs>
 <g id="图层_x0020_1">
  <metadata id="CorelCorpID_0Corel-Layer"/>
  <g id="_105553362828544">
   <g>
    <g>
     <g id="Layer_2">
      <g id="OBJECTS">
       <polygon class="fil0" points="7.4,17.23 -0,21.77 5.5,23.45 "/>
       <polygon class="fil1" points="7.4,17.23 -0,21.77 5.5,23.45 "/>
       <polygon class="fil0" points="7.4,17.23 3.33,30.56 13.9,22.61 "/>
       <polygon class="fil2" points="7.4,17.23 3.33,30.56 13.9,22.61 "/>
       <polygon class="fil0" points="13.9,22.61 3.33,30.56 21.69,50.57 "/>
       <polygon class="fil3" points="13.9,22.61 3.33,30.56 21.69,50.57 "/>
       <polygon class="fil0" points="13.9,22.61 33.05,19.39 19.08,41.24 "/>
       <polygon class="fil4" points="13.9,22.61 33.05,19.39 19.08,41.24 "/>
       <polygon class="fil0" points="19.08,41.24 28.42,45.97 21.69,50.57 "/>
       <polygon class="fil5" points="19.08,41.24 28.42,45.97 21.69,50.57 "/>
       <polygon class="fil0" points="28.42,45.97 30.77,52.02 25.72,47.82 "/>
       <polygon class="fil6" points="28.42,45.97 30.77,52.02 25.72,47.82 "/>
       <polygon class="fil0" points="33.05,19.39 44.51,22.89 23.1,34.95 "/>
       <polygon class="fil7" points="33.05,19.39 44.51,22.89 23.1,34.95 "/>
      </g>
     </g>
    </g>
   </g>
   <path class="fil8 str0" d="M42.82 33.18c1.11,1.45 16.5,8.99 29.18,3.32 12.68,-5.66 14.65,-22.9 10.96,-29.31 -3.69,-6.4 -14.48,-8.97 -20.32,-4.06 -5.67,4.77 -7.14,12.93 -1.72,19.58 5.42,6.65 17.84,8.03 26.23,4.56 8.39,-3.48 18.96,-13.73 20.81,-25.61"/>
  </g>
 </g>
</svg>
