<?xml version="1.0" encoding="UTF-8"?>
<!DOCTYPE svg PUBLIC "-//W3C//DTD SVG 1.1//EN" "http://www.w3.org/Graphics/SVG/1.1/DTD/svg11.dtd">
<!-- Creator: CorelDRAW -->
<svg xmlns="http://www.w3.org/2000/svg" xml:space="preserve" width="3.75118in" height="4.20123in" version="1.1" style="shape-rendering:geometricPrecision; text-rendering:geometricPrecision; image-rendering:optimizeQuality; fill-rule:evenodd; clip-rule:evenodd"
viewBox="0 0 109.11 122.2"
 xmlns:xlink="http://www.w3.org/1999/xlink"
 xmlns:xodm="http://www.corel.com/coreldraw/odm/2003">
 <defs>
  <style type="text/css">
   <![CDATA[
    .str0 {stroke:#C1C4C9;stroke-width:0.97;stroke-linecap:round;stroke-linejoin:round;stroke-miterlimit:2.61313;stroke-dasharray:2.908760 3.878347}
    .fil9 {fill:none}
    .fil1 {fill:#2C5CDB;fill-rule:nonzero}
    .fil7 {fill:#4879F1;fill-rule:nonzero}
    .fil0 {fill:#4A77EF;fill-rule:nonzero}
    .fil6 {fill:url(#id0);fill-rule:nonzero}
    .fil5 {fill:url(#id1);fill-rule:nonzero}
    .fil4 {fill:url(#id2);fill-rule:nonzero}
    .fil3 {fill:url(#id3);fill-rule:nonzero}
    .fil8 {fill:url(#id4);fill-rule:nonzero}
    .fil2 {fill:url(#id5);fill-rule:nonzero}
   ]]>
  </style>
  <linearGradient id="id0" gradientUnits="userSpaceOnUse" x1="88.11" y1="84.3" x2="101.69" y2="84.3">
   <stop offset="0" style="stop-opacity:1; stop-color:#3A72EC"/>
   <stop offset="0.768627" style="stop-opacity:1; stop-color:#4D83F6"/>
   <stop offset="1" style="stop-opacity:1; stop-color:#4D83F6"/>
  </linearGradient>
  <linearGradient id="id1" gradientUnits="userSpaceOnUse" x1="101.17" y1="81.86" x2="98.42" y2="104.44">
   <stop offset="0" style="stop-opacity:1; stop-color:#4A77EF"/>
   <stop offset="0.768627" style="stop-opacity:1; stop-color:#2C5CDB"/>
   <stop offset="1" style="stop-opacity:1; stop-color:#2C5CDB"/>
  </linearGradient>
  <linearGradient id="id2" gradientUnits="userSpaceOnUse" x1="83.81" y1="100.29" x2="90.53" y2="100.29">
   <stop offset="0" style="stop-opacity:1; stop-color:#3869E7"/>
   <stop offset="0.768627" style="stop-opacity:1; stop-color:#3862E7"/>
   <stop offset="1" style="stop-opacity:1; stop-color:#3862E7"/>
  </linearGradient>
  <linearGradient id="id3" gradientUnits="userSpaceOnUse" x1="93.98" y1="91.17" x2="95.05" y2="93.61">
   <stop offset="0" style="stop-opacity:1; stop-color:#2C57C9"/>
   <stop offset="0.768627" style="stop-opacity:0.101961; stop-color:#354F9C"/>
   <stop offset="1" style="stop-opacity:1; stop-color:#354F9C"/>
  </linearGradient>
  <linearGradient id="id4" gradientUnits="userSpaceOnUse" xlink:href="#id1" x1="3078.33" y1="-1190.07" x2="2022.24" y2="-974.95">
  </linearGradient>
  <linearGradient id="id5" gradientUnits="userSpaceOnUse" x1="95.35" y1="93.15" x2="115.04" y2="112.38">
   <stop offset="0" style="stop-opacity:1; stop-color:#4879F1"/>
   <stop offset="0.470588" style="stop-opacity:1; stop-color:#4879F1"/>
   <stop offset="0.729412" style="stop-opacity:1; stop-color:#354F9C"/>
   <stop offset="1" style="stop-opacity:1; stop-color:#354F9C"/>
  </linearGradient>
 </defs>
 <g id="图层_x0020_1">
  <metadata id="CorelCorpID_0Corel-Layer"/>
  <g id="_105553362699936">
   <g>
    <g id="Isolation_Mode">
     <polygon class="fil0" points="89.93,88.95 87.44,90.4 87.18,91.3 88.04,95.89 "/>
     <polygon class="fil1" points="86.93,90.8 83.84,111.21 90.34,105.45 87.38,91.75 "/>
     <polygon class="fil2" points="101.76,95.29 88.13,89.43 87.74,92 89.76,102.56 "/>
     <polygon class="fil3" points="101.76,95.29 88.13,89.43 87.74,92 "/>
     <path class="fil4" d="M88.13 89.43c0,0 -0.86,0.6 -1.2,1.37l3.12 14.55 -6.21 5.86c0,0 0.11,0.31 0.45,0.23 0.34,-0.09 6.33,-5.79 6.33,-5.79l-3.14 -14.8 0.55 -0.67 0.11 -0.75 0 -0z"/>
     <polygon class="fil0" points="105.5,83.1 109.11,89.43 103.36,87.76 "/>
     <polygon class="fil5" points="101.76,95.29 105.5,83.1 96.53,85.34 "/>
     <polygon class="fil0" points="101.76,95.29 90.34,73.41 88.13,89.43 "/>
     <polygon class="fil6" points="101.76,95.29 90.34,73.41 88.13,89.43 "/>
     <polygon class="fil1" points="89.02,89.81 88.13,89.43 90.34,73.41 90.59,73.94 "/>
     <polygon class="fil0" points="71.62,75.72 85.32,75.98 88.13,89.43 "/>
     <polygon class="fil7" points="76.76,75.82 85.32,75.98 88.13,89.43 "/>
     <polygon class="fil0" points="73.8,71.03 90.34,73.41 88.13,89.43 "/>
     <polygon class="fil8" points="73.8,71.03 90.34,73.41 88.13,89.43 "/>
     <polygon class="fil1" points="88.19,88.98 88.13,89.43 73.8,71.03 "/>
     <polygon class="fil1" points="105.29,83.15 105.5,83.1 101.76,95.29 101.61,95.18 "/>
    </g>
   </g>
   <path class="fil9 str0" d="M0.48 0.48c3.2,2.38 19.36,14.86 24.38,28.19 5.58,14.82 -1.4,27.9 -2.96,30.69 -1.57,2.79 -14.51,20.05 -4.71,40.63 10.7,22.47 42.8,22.59 44.99,4.71 0.69,-5.67 -1.91,-10.2 -7.67,-12.55 -5.76,-2.35 -13.34,2.35 -14.82,8.54 -1.48,6.19 1.74,17.09 14.12,20.4 12.38,3.31 24.41,-7.6 25.11,-9.64"/>
  </g>
 </g>
</svg>
