<?xml version="1.0" encoding="UTF-8"?>
<!DOCTYPE svg PUBLIC "-//W3C//DTD SVG 1.1//EN" "http://www.w3.org/Graphics/SVG/1.1/DTD/svg11.dtd">
<!-- Creator: CorelDRAW -->
<svg xmlns="http://www.w3.org/2000/svg" xml:space="preserve" width="3.72407in" height="3.64962in" version="1.1" style="shape-rendering:geometricPrecision; text-rendering:geometricPrecision; image-rendering:optimizeQuality; fill-rule:evenodd; clip-rule:evenodd"
viewBox="0 0 108.43 106.27"
 xmlns:xlink="http://www.w3.org/1999/xlink"
 xmlns:xodm="http://www.corel.com/coreldraw/odm/2003">
 <defs>
  <style type="text/css">
   <![CDATA[
    .str0 {stroke:#C1C4C9;stroke-width:0.97;stroke-linecap:round;stroke-linejoin:round;stroke-miterlimit:2.61313;stroke-dasharray:2.911814 3.882419}
    .fil9 {fill:none}
    .fil1 {fill:#2C5CDB;fill-rule:nonzero}
    .fil7 {fill:#4879F1;fill-rule:nonzero}
    .fil0 {fill:#4A77EF;fill-rule:nonzero}
    .fil3 {fill:url(#id0);fill-rule:nonzero}
    .fil5 {fill:url(#id1);fill-rule:nonzero}
    .fil2 {fill:url(#id2);fill-rule:nonzero}
    .fil6 {fill:url(#id3);fill-rule:nonzero}
    .fil4 {fill:url(#id4);fill-rule:nonzero}
    .fil8 {fill:url(#id5);fill-rule:nonzero}
   ]]>
  </style>
  <linearGradient id="id0" gradientUnits="userSpaceOnUse" x1="58.12" y1="88.15" x2="59.07" y2="90.33">
   <stop offset="0" style="stop-opacity:1; stop-color:#2C57C9"/>
   <stop offset="0.768627" style="stop-opacity:0.101961; stop-color:#354F9C"/>
   <stop offset="1" style="stop-opacity:1; stop-color:#354F9C"/>
  </linearGradient>
  <linearGradient id="id1" gradientUnits="userSpaceOnUse" x1="64.53" y1="79.84" x2="62.08" y2="100.01">
   <stop offset="0" style="stop-opacity:1; stop-color:#4A77EF"/>
   <stop offset="0.768627" style="stop-opacity:1; stop-color:#2C5CDB"/>
   <stop offset="1" style="stop-opacity:1; stop-color:#2C5CDB"/>
  </linearGradient>
  <linearGradient id="id2" gradientUnits="userSpaceOnUse" x1="59.34" y1="89.92" x2="76.92" y2="107.09">
   <stop offset="0" style="stop-opacity:1; stop-color:#4879F1"/>
   <stop offset="0.470588" style="stop-opacity:1; stop-color:#4879F1"/>
   <stop offset="0.729412" style="stop-opacity:1; stop-color:#354F9C"/>
   <stop offset="1" style="stop-opacity:1; stop-color:#354F9C"/>
  </linearGradient>
  <linearGradient id="id3" gradientUnits="userSpaceOnUse" x1="52.88" y1="82.02" x2="65" y2="82.02">
   <stop offset="0" style="stop-opacity:1; stop-color:#3A72EC"/>
   <stop offset="0.768627" style="stop-opacity:1; stop-color:#4D83F6"/>
   <stop offset="1" style="stop-opacity:1; stop-color:#4D83F6"/>
  </linearGradient>
  <linearGradient id="id4" gradientUnits="userSpaceOnUse" x1="49.04" y1="96.3" x2="55.03" y2="96.3">
   <stop offset="0" style="stop-opacity:1; stop-color:#3869E7"/>
   <stop offset="0.768627" style="stop-opacity:1; stop-color:#3862E7"/>
   <stop offset="1" style="stop-opacity:1; stop-color:#3862E7"/>
  </linearGradient>
  <linearGradient id="id5" gradientUnits="userSpaceOnUse" xlink:href="#id1" x1="2723.15" y1="-1055.99" x2="1780.06" y2="-863.89">
  </linearGradient>
 </defs>
 <g id="图层_x0020_1">
  <metadata id="CorelCorpID_0Corel-Layer"/>
  <g id="_105553362782528">
   <g>
    <g id="Isolation_Mode">
     <polygon class="fil0" points="54.5,86.17 52.27,87.47 52.04,88.27 52.81,92.37 "/>
     <polygon class="fil1" points="51.82,87.82 49.06,106.05 54.87,100.91 52.22,88.67 "/>
     <polygon class="fil2" points="65.07,91.84 52.89,86.6 52.55,88.9 54.35,98.32 "/>
     <polygon class="fil3" points="65.07,91.84 52.89,86.6 52.55,88.9 "/>
     <path class="fil4" d="M52.89 86.6c0,0 -0.77,0.54 -1.07,1.23l2.79 13 -5.55 5.23c0,0 0.1,0.28 0.4,0.2 0.31,-0.08 5.65,-5.17 5.65,-5.17l-2.81 -13.22 0.49 -0.59 0.1 -0.67 0 -0z"/>
     <polygon class="fil0" points="68.41,80.95 71.63,86.6 66.49,85.1 "/>
     <polygon class="fil5" points="65.07,91.84 68.41,80.95 60.39,82.95 "/>
     <polygon class="fil0" points="65.07,91.84 54.87,72.29 52.89,86.6 "/>
     <polygon class="fil6" points="65.07,91.84 54.87,72.29 52.89,86.6 "/>
     <polygon class="fil1" points="53.69,86.94 52.89,86.6 54.87,72.29 55.09,72.77 "/>
     <polygon class="fil0" points="38.15,74.36 50.38,74.59 52.89,86.6 "/>
     <polygon class="fil7" points="42.73,74.45 50.38,74.59 52.89,86.6 "/>
     <polygon class="fil0" points="40.1,70.16 54.87,72.29 52.89,86.6 "/>
     <polygon class="fil8" points="40.1,70.16 54.87,72.29 52.89,86.6 "/>
     <polygon class="fil1" points="52.95,86.19 52.89,86.6 40.1,70.16 "/>
     <polygon class="fil1" points="68.22,81 68.41,80.95 65.07,91.84 64.93,91.73 "/>
    </g>
   </g>
   <path class="fil9 str0" d="M107.95 9.05c-1.86,0.84 -15.03,7.61 -28.73,3.42 -13.7,-4.19 -15.6,-9.51 -30.25,-11.8 -14.65,-2.28 -28.54,11.04 -33.49,15.79 -11.3,10.87 -19.98,29.17 -11.75,44.32 4.14,7.61 11.08,9.93 14.89,10.26 3.8,0.33 11.41,-3.14 11.91,-11.25 0.5,-8.11 -7.61,-12.08 -13.07,-11.58 -5.46,0.5 -16.87,9.32 -13.73,21.95 3.14,12.63 14.06,17.26 17.37,18.91"/>
  </g>
 </g>
</svg>
