<?xml version="1.0" encoding="UTF-8"?><svg id="Layer_2" xmlns="http://www.w3.org/2000/svg" viewBox="0 0 58.17 55.64"><defs><style>.cls-1{fill:#fc9491;}.cls-2{fill:#fff;}.cls-3{fill:#c94644;}</style></defs><g id="Isolation_Mode"><g id="_1006_Cap_Education_Graduation_School_Study"><polygon class="cls-2" points="26.1 6.37 1.21 16.49 12.64 21.85 26.1 28.22 40.46 21.65 40.46 21.65 51.79 16.49 26.1 6.37"/><path class="cls-2" d="M55.64,45.52v6.37h-7.59v-6.37c0-2.12,1.72-3.84,3.84-3.84,1.01,0,2.02.4,2.73,1.11.51.71,1.01,1.72,1.01,2.73Z"/><path class="cls-2" d="M53.72,1.32c1.73,0,3.14,1.4,3.14,3.14s-1.4,3.14-3.14,3.14-3.14-1.4-3.14-3.14,1.4-3.14,3.14-3.14Z"/><path class="cls-2" d="M32.17,50.58c1.06,0,1.92.86,1.92,1.92s-.86,1.92-1.92,1.92-1.92-.86-1.92-1.92.86-1.92,1.92-1.92Z"/><path class="cls-2" d="M5.06,41.78c1.4,0,2.53,1.13,2.53,2.53s-1.13,2.53-2.53,2.53-2.53-1.13-2.53-2.53,1.13-2.53,2.53-2.53Z"/><path class="cls-2" d="M26.5,13.96c1.4,0,2.53,1.13,2.53,2.53s-1.13,2.53-2.53,2.53-2.53-1.13-2.53-2.53,1.13-2.53,2.53-2.53Z"/><polygon class="cls-1" points="40.46 21.65 40.46 37.93 12.64 37.93 12.64 21.85 26.1 28.22 40.46 21.65"/><path class="cls-3" d="M45.52,30.35c.73,0,1.31.59,1.31,1.32s-.59,1.31-1.31,1.31-1.32-.59-1.32-1.31.59-1.32,1.32-1.32Z"/><path class="cls-3" d="M41.68,2.53c.73,0,1.31.59,1.31,1.31s-.59,1.32-1.31,1.32-1.31-.59-1.31-1.32.59-1.31,1.31-1.31Z"/><path class="cls-3" d="M20.23,46.74c.73,0,1.32.59,1.32,1.32s-.59,1.31-1.32,1.31-1.31-.59-1.31-1.31.59-1.32,1.31-1.32Z"/><path class="cls-3" d="M10.12,5.06c.73,0,1.31.59,1.31,1.32s-.59,1.31-1.31,1.31-1.31-.59-1.31-1.31.59-1.32,1.31-1.32Z"/><path class="cls-3" d="M6.27,29.03c.73,0,1.32.59,1.32,1.32s-.59,1.32-1.32,1.32-1.31-.59-1.31-1.32.59-1.32,1.31-1.32Z"/><path class="cls-3" d="M40.46,39.25H12.64c-.71,0-1.31-.61-1.31-1.32v-16.08c0-.71.61-1.32,1.31-1.32s1.32.61,1.32,1.32v14.87h25.29v-15.07c0-.71.61-1.31,1.31-1.31s1.31.61,1.31,1.31v16.29c-.2.71-.81,1.32-1.42,1.32Z"/><path class="cls-3" d="M26.1,29.44c-.2,0-.4,0-.51-.1L.71,17.6c-.4-.2-.71-.71-.71-1.21s.3-.91.81-1.11L25.69,5.16c.3-.1.61-.1.91,0l25.69,10.12c.51.2.81.61.81,1.11s-.3,1.01-.71,1.21l-11.43,5.16h0l-14.26,6.58c-.2.1-.4.1-.61.1ZM4.35,16.49l21.75,10.32,13.76-6.27h0l8.7-3.95L26.1,7.79,4.35,16.49Z"/><path class="cls-3" d="M51.79,42.99c-.71,0-1.31-.61-1.31-1.31v-23.97h-21.45c-.71,0-1.31-.61-1.31-1.32s.61-1.32,1.31-1.32h22.76c.71,0,1.32.61,1.32,1.32v25.29c0,.71-.61,1.31-1.32,1.31Z"/><path class="cls-3" d="M55.64,53.11h-7.59c-.71,0-1.31-.61-1.31-1.32v-6.37c0-2.83,2.23-5.06,5.06-5.06,1.32,0,2.63.51,3.54,1.52.91,1.01,1.52,2.23,1.52,3.54v6.37c0,.71-.61,1.32-1.21,1.32ZM49.26,50.58h5.06v-5.06c0-.71-.3-1.32-.71-1.82-.51-.51-1.11-.71-1.82-.71-1.42,0-2.53,1.11-2.53,2.53v5.06Z"/><path class="cls-3" d="M26.5,20.23c-2.12,0-3.84-1.72-3.84-3.84s1.72-3.84,3.84-3.84,3.84,1.72,3.84,3.84-1.72,3.84-3.84,3.84ZM26.5,15.17c-.71,0-1.31.61-1.31,1.32s.61,1.31,1.31,1.31,1.31-.61,1.31-1.31-.61-1.32-1.31-1.32Z"/><path class="cls-3" d="M5.06,48.05c-2.12,0-3.84-1.72-3.84-3.84s1.72-3.84,3.84-3.84,3.84,1.72,3.84,3.84-1.82,3.84-3.84,3.84ZM5.06,42.99c-.71,0-1.31.61-1.31,1.32s.61,1.31,1.31,1.31,1.32-.61,1.32-1.31c-.1-.71-.71-1.32-1.32-1.32Z"/><path class="cls-3" d="M32.17,55.64c-1.72,0-3.14-1.42-3.14-3.14s1.42-3.14,3.14-3.14,3.14,1.42,3.14,3.14c.1,1.72-1.42,3.14-3.14,3.14ZM32.17,51.89c-.3,0-.61.3-.61.61s.3.61.61.61.61-.3.61-.61c.1-.4-.2-.61-.61-.61Z"/><path class="cls-3" d="M53.72,8.9c-2.43,0-4.45-2.02-4.45-4.45s2.02-4.45,4.45-4.45,4.45,2.02,4.45,4.45-2.02,4.45-4.45,4.45ZM53.72,2.53c-1.01,0-1.92.81-1.92,1.92s.81,1.92,1.92,1.92c1.01,0,1.92-.81,1.92-1.92s-.91-1.92-1.92-1.92Z"/></g></g></svg>