<?xml version="1.0" encoding="UTF-8"?><svg id="Layer_2" xmlns="http://www.w3.org/2000/svg" viewBox="0 0 56.68 57.61"><defs><style>.cls-1{fill:#c93c3b;}.cls-2{fill:#fc9290;}.cls-3{fill:#fff;}</style></defs><g id="Isolation_Mode"><g id="_1024_Back_To_School_Education_Remover"><path class="cls-3" d="M13.68,6.93c2.12,0,3.84,1.72,3.84,3.84s-1.72,3.84-3.84,3.84-3.84-1.72-3.84-3.84,1.72-3.84,3.84-3.84Z"/><path class="cls-3" d="M41.5,41.13c1.4,0,2.53,1.13,2.53,2.53s-1.13,2.53-2.53,2.53-2.53-1.13-2.53-2.53,1.13-2.53,2.53-2.53Z"/><path class="cls-3" d="M52.22,27.27c1.73,0,3.14,1.4,3.14,3.14s-1.4,3.14-3.14,3.14-3.14-1.4-3.14-3.14,1.4-3.14,3.14-3.14Z"/><polygon class="cls-2" points="22.48 46.89 14.69 48 6.91 40.22 8.02 32.43 22.48 46.89"/><polygon class="cls-3" points="49.8 11.79 26.33 41.94 12.97 28.48 43.02 5.11 49.8 11.79"/><polygon class="cls-2" points="53.64 6.83 49.8 11.79 43.02 5.11 48.08 1.27 53.64 6.83"/><polygon class="cls-3" points="26.33 41.94 22.48 46.89 8.02 32.43 12.97 28.48 26.33 41.94"/><polygon class="cls-3" points="14.69 48 11.36 51.34 9.13 49.12 5.79 45.78 3.57 43.55 6.91 40.22 14.69 48"/><polygon class="cls-3" points="9.13 49.12 5.79 52.46 1.24 50.23 5.79 45.78 9.13 49.12"/><path class="cls-1" d="M55.36,54.98c.73,0,1.32.59,1.32,1.31s-.59,1.32-1.32,1.32-1.32-.59-1.32-1.32.59-1.31,1.32-1.31Z"/><path class="cls-1" d="M51.62,54.98c.73,0,1.32.59,1.32,1.31s-.59,1.32-1.32,1.32-1.31-.59-1.31-1.32.59-1.31,1.31-1.31Z"/><path class="cls-1" d="M51.62,43.55c.73,0,1.32.59,1.32,1.32s-.59,1.31-1.32,1.31-1.31-.59-1.31-1.31.59-1.32,1.31-1.32Z"/><path class="cls-1" d="M28.86,48.71c.71,0,1.31.61,1.31,1.32s-.61,1.31-1.31,1.31-1.31-.61-1.31-1.31c0-.81.61-1.32,1.31-1.32Z"/><path class="cls-1" d="M26.33,4.4c.73,0,1.31.59,1.31,1.32s-.59,1.31-1.31,1.31-1.32-.59-1.32-1.31.59-1.32,1.32-1.32Z"/><path class="cls-1" d="M11.15.56c.73,0,1.32.59,1.32,1.31s-.59,1.31-1.32,1.31-1.31-.59-1.31-1.31.59-1.31,1.31-1.31Z"/><path class="cls-1" d="M6.1,20.79c.73,0,1.31.59,1.31,1.32s-.59,1.31-1.31,1.31-1.31-.59-1.31-1.31.59-1.32,1.31-1.32Z"/><path class="cls-1" d="M6.91,41.53h-.2c-.71-.1-1.21-.71-1.11-1.42l1.11-7.79c.1-.71.71-1.21,1.42-1.11.71.1,1.21.71,1.11,1.42l-1.11,7.79c-.1.61-.61,1.11-1.21,1.11Z"/><path class="cls-1" d="M14.69,49.32c-.61,0-1.11-.4-1.21-1.11-.1-.71.4-1.31,1.11-1.42l7.79-1.11c.71-.1,1.31.4,1.42,1.11.1.71-.4,1.31-1.11,1.42l-7.89,1.11h-.1Z"/><path class="cls-1" d="M11.36,52.66c-.3,0-.61-.1-.91-.4l-2.23-2.23c-.51-.51-.51-1.32,0-1.82.51-.51,1.32-.51,1.82,0l1.31,1.32,1.52-1.52-5.97-5.97-1.52,1.52,1.31,1.32c.51.51.51,1.31,0,1.82-.51.51-1.31.51-1.82,0l-2.23-2.23c-.2-.2-.4-.61-.4-.91s.1-.61.4-.91l3.34-3.34c.51-.51,1.31-.51,1.82,0l7.79,7.79c.2.2.4.61.4.91s-.1.61-.4.91l-3.34,3.34c-.3.3-.61.4-.91.4Z"/><path class="cls-1" d="M5.79,53.77c-.2,0-.4,0-.61-.1l-4.45-2.33c-.4-.2-.61-.51-.71-.91-.1-.4.1-.81.4-1.11l4.45-4.45c.2-.2.61-.4.91-.4s.61.1.91.4l3.34,3.34c.51.51.51,1.32,0,1.82l-3.44,3.34c-.2.2-.51.4-.81.4ZM3.47,49.93l2.02,1.01,1.82-1.82-1.52-1.52-2.33,2.33Z"/><path class="cls-1" d="M26.33,43.15c-.3,0-.61-.1-.91-.4l-13.35-13.35c-.51-.51-.51-1.31,0-1.82s1.31-.51,1.82,0l13.35,13.35c.51.51.51,1.31,0,1.82-.2.3-.61.4-.91.4Z"/><path class="cls-1" d="M49.8,13.1c-.3,0-.61-.1-.91-.4l-6.68-6.68c-.51-.51-.51-1.31,0-1.82.51-.51,1.31-.51,1.82,0l6.68,6.68c.51.51.51,1.32,0,1.82-.3.3-.61.4-.91.4Z"/><path class="cls-1" d="M22.48,48.21c-.3,0-.61-.1-.91-.4l-14.47-14.47c-.3-.3-.4-.61-.4-1.01s.2-.71.51-.91L47.27.26c.51-.4,1.21-.3,1.72.1l5.56,5.56c.41.4.51,1.21.1,1.72l-3.95,5.06-23.37,29.94-3.94,5.06c-.2.3-.51.4-.91.51h0ZM9.84,32.53l12.44,12.44,3.04-3.84,23.37-30.04,3.24-4.15-3.95-3.95-4.15,3.24L9.84,32.53Z"/><path class="cls-1" d="M47.77,57.51H11.15c-.71,0-1.31-.61-1.31-1.31s.61-1.32,1.31-1.32h36.72c.71,0,1.31.61,1.31,1.32-.1.81-.71,1.31-1.42,1.31Z"/><path class="cls-1" d="M23.8,28.48c-.3,0-.71-.1-.91-.4-.51-.51-.4-1.31.1-1.82l12.65-11.43c.51-.51,1.31-.4,1.82.1.51.51.41,1.32-.1,1.82l-12.75,11.43c-.3.2-.51.3-.81.3Z"/><path class="cls-1" d="M41.5,47.4c-2.12,0-3.84-1.72-3.84-3.84s1.72-3.84,3.84-3.84,3.84,1.72,3.84,3.84-1.82,3.84-3.84,3.84ZM41.5,42.34c-.71,0-1.32.61-1.32,1.32s.61,1.32,1.32,1.32,1.31-.61,1.31-1.32c-.1-.71-.71-1.32-1.31-1.32Z"/><path class="cls-1" d="M52.22,34.75c-2.43,0-4.45-2.02-4.45-4.45s2.02-4.45,4.45-4.45,4.45,2.02,4.45,4.45-2.02,4.45-4.45,4.45ZM52.22,28.48c-1.01,0-1.92.81-1.92,1.92s.81,1.92,1.92,1.92c1.01,0,1.92-.81,1.92-1.92s-.91-1.92-1.92-1.92Z"/><path class="cls-1" d="M13.68,15.84c-2.83,0-5.06-2.23-5.06-5.06s2.23-5.06,5.06-5.06,5.06,2.23,5.06,5.06-2.33,5.06-5.06,5.06ZM13.68,8.25c-1.42,0-2.53,1.11-2.53,2.53s1.11,2.53,2.53,2.53,2.53-1.11,2.53-2.53-1.21-2.53-2.53-2.53Z"/></g></g></svg>