<?xml version="1.0" encoding="UTF-8"?><svg id="Layer_2" xmlns="http://www.w3.org/2000/svg" viewBox="0 0 58.27 58.27"><defs><style>.cls-1{fill:#fc9d9c;}.cls-2{fill:#fff;}.cls-3{fill:#c9494d;}</style></defs><g id="Isolation_Mode"><g id="_1016_Geography_Globe_Map_School_Supplies"><path class="cls-2" d="M3.84,46.84c1.4,0,2.53,1.13,2.53,2.53s-1.13,2.53-2.53,2.53-2.53-1.13-2.53-2.53,1.13-2.53,2.53-2.53Z"/><path class="cls-2" d="M5.16,5.16c1.4,0,2.53,1.13,2.53,2.53s-1.13,2.53-2.53,2.53-2.53-1.13-2.53-2.53,1.13-2.53,2.53-2.53Z"/><path class="cls-2" d="M53.21,3.84c2.12,0,3.84,1.72,3.84,3.84s-1.72,3.84-3.84,3.84-3.84-1.72-3.84-3.84,1.72-3.84,3.84-3.84Z"/><path class="cls-1" d="M27.92,5.16c11.17,0,20.23,9.06,20.23,20.23s-9.06,20.23-20.23,20.23S7.69,36.57,7.69,25.39,16.75,5.16,27.92,5.16Z"/><path class="cls-2" d="M27.92,30.95c2.43,0,4.75.61,6.68,1.62-1.32,4.45-3.84,7.49-6.68,7.49v-9.1Z"/><path class="cls-2" d="M21.14,32.57c1.32,4.45,3.84,7.49,6.68,7.49-4.15,0-7.99-1.72-10.62-4.55h0c1.21-1.21,2.53-2.12,3.95-2.93Z"/><path class="cls-2" d="M27.92,25.39v5.56c-2.43,0-4.75.61-6.68,1.62-.61-2.12-1.01-4.65-1.01-7.28h7.69v.1Z"/><path class="cls-2" d="M35.61,25.39h6.98c0,3.95-1.52,7.49-4.05,10.22-1.11-1.21-2.43-2.23-3.95-2.93.61-2.23,1.01-4.65,1.01-7.28Z"/><path class="cls-2" d="M27.92,10.62c4.15,0,7.99,1.72,10.62,4.55-1.11,1.21-2.43,2.23-3.95,2.93-1.32-4.45-3.84-7.49-6.68-7.49Z"/><path class="cls-3" d="M53.21,45.52c.73,0,1.32.59,1.32,1.32s-.59,1.31-1.32,1.31-1.32-.59-1.32-1.31.59-1.32,1.32-1.32Z"/><path class="cls-3" d="M45.62,51.89c.73,0,1.32.59,1.32,1.32s-.59,1.31-1.32,1.31-1.32-.59-1.32-1.31.59-1.32,1.32-1.32Z"/><path class="cls-3" d="M43.09,1.32c.73,0,1.32.59,1.32,1.31s-.59,1.31-1.32,1.31-1.31-.59-1.31-1.31.59-1.31,1.31-1.31Z"/><path class="cls-2" d="M42.59,25.39h-6.98c0-2.63-.41-5.06-1.01-7.28,1.52-.71,2.83-1.72,3.95-2.93,2.53,2.63,4.05,6.27,4.05,10.22Z"/><path class="cls-2" d="M38.54,35.51c-2.73,2.83-6.47,4.55-10.62,4.55,2.93,0,5.36-3.03,6.68-7.49,1.52.81,2.83,1.82,3.95,2.93Z"/><path class="cls-2" d="M35.61,25.39h-7.69v-5.56c2.43,0,4.75-.61,6.68-1.62.61,2.02,1.01,4.55,1.01,7.18Z"/><path class="cls-2" d="M27.92,25.39h7.69c0,2.63-.41,5.06-1.01,7.28-2.02-1.01-4.35-1.62-6.68-1.62v-5.67h0Z"/><path class="cls-2" d="M34.6,18.11c-2.02,1.01-4.35,1.62-6.68,1.62v-9.1c2.83,0,5.36,3.03,6.68,7.49Z"/><path class="cls-2" d="M27.92,30.95v9.1c-2.93,0-5.36-3.03-6.68-7.49,1.92-1.01,4.25-1.62,6.68-1.62Z"/><path class="cls-2" d="M27.92,19.73v5.56h-7.69c0-2.63.4-5.06,1.01-7.28,1.92,1.21,4.25,1.72,6.68,1.72Z"/><path class="cls-2" d="M27.92,10.62v9.1c-2.43,0-4.75-.61-6.68-1.62,1.21-4.45,3.74-7.49,6.68-7.49Z"/><path class="cls-2" d="M27.92,10.62c-2.93,0-5.36,3.03-6.68,7.49-1.52-.71-2.83-1.72-3.95-2.93h0c2.63-2.83,6.37-4.55,10.62-4.55Z"/><path class="cls-2" d="M21.14,18.11c-.61,2.12-1.01,4.65-1.01,7.28h-6.98c0-3.95,1.52-7.49,4.05-10.22h0c1.11,1.21,2.43,2.23,3.95,2.93Z"/><path class="cls-2" d="M20.13,25.39c0,2.63.4,5.06,1.01,7.28-1.42.71-2.73,1.72-3.84,2.93h0c-2.53-2.63-4.05-6.27-4.05-10.22h6.88Z"/><path class="cls-3" d="M11.43,0c.73,0,1.31.59,1.31,1.32s-.59,1.31-1.31,1.31-1.32-.59-1.32-1.31.59-1.32,1.32-1.32Z"/><path class="cls-3" d="M11.43,50.58c.73,0,1.31.59,1.31,1.31s-.59,1.32-1.31,1.32-1.32-.59-1.32-1.32.59-1.31,1.32-1.31Z"/><path class="cls-3" d="M2.63,13.96c.73,0,1.31.59,1.31,1.32s-.59,1.31-1.31,1.31-1.32-.59-1.32-1.31.59-1.32,1.32-1.32Z"/><path class="cls-3" d="M27.92,41.37c-3.44,0-6.37-3.14-7.89-8.4-.71-2.33-1.01-4.96-1.01-7.59s.4-5.26,1.01-7.59c1.52-5.26,4.55-8.4,7.89-8.4s6.37,3.14,7.89,8.4c.71,2.33,1.01,4.96,1.01,7.59s-.4,5.26-1.01,7.59c-1.52,5.26-4.55,8.4-7.89,8.4ZM27.92,11.94c-2.12,0-4.35,2.63-5.46,6.58-.61,2.12-.91,4.45-.91,6.88s.3,4.75.91,6.88c1.21,4.05,3.34,6.58,5.46,6.58s4.35-2.63,5.46-6.58c.61-2.12.91-4.45.91-6.88s-.3-4.75-.91-6.88c-1.21-4.05-3.34-6.58-5.46-6.58Z"/><path class="cls-3" d="M27.92,21.04c-2.53,0-5.06-.61-7.28-1.72-1.62-.81-3.04-1.92-4.25-3.24-.51-.51-.51-1.31,0-1.82.51-.51,1.32-.51,1.82,0,1.01,1.11,2.23,2.02,3.64,2.73,1.92,1.01,3.95,1.52,6.17,1.52s4.25-.51,6.17-1.52c1.31-.71,2.53-1.62,3.64-2.73.51-.51,1.31-.51,1.82,0,.51.51.51,1.31,0,1.82-1.42,1.31-2.93,2.33-4.45,3.14-2.22,1.21-4.75,1.82-7.28,1.82Z"/><path class="cls-3" d="M38.54,36.82c-.3,0-.71-.1-.91-.4-1.01-1.11-2.23-2.02-3.64-2.73-1.92-1.01-3.94-1.52-6.17-1.52s-4.25.51-6.17,1.52c-1.32.71-2.53,1.62-3.54,2.63-.51.51-1.31.51-1.82,0-.51-.51-.51-1.32,0-1.82,1.21-1.32,2.63-2.33,4.25-3.14,2.23-1.11,4.75-1.72,7.28-1.72s5.06.61,7.28,1.72c1.62.81,3.03,1.92,4.25,3.24.5.51.5,1.31,0,1.82-.2.3-.51.4-.81.4Z"/><path class="cls-3" d="M42.59,26.61H13.15c-.71,0-1.32-.61-1.32-1.31s.61-1.32,1.32-1.32h29.44c.71,0,1.32.61,1.32,1.32,0,.81-.61,1.31-1.32,1.31Z"/><path class="cls-3" d="M27.92,41.37c-.71,0-1.31-.61-1.31-1.31V10.62c0-.71.61-1.32,1.31-1.32s1.32.61,1.32,1.32v29.44c-.1.71-.71,1.31-1.32,1.31Z"/><path class="cls-3" d="M27.92,41.37c-4.45,0-8.5-1.72-11.53-4.96-2.83-3.03-4.45-6.88-4.45-11.03s1.62-8.09,4.45-11.03c3.04-3.24,7.18-4.96,11.53-4.96s8.5,1.72,11.53,4.96c2.83,3.03,4.45,6.88,4.45,11.03s-1.62,8.09-4.45,11.03c-3.03,3.24-7.18,4.96-11.53,4.96ZM27.92,11.94c-3.74,0-7.18,1.52-9.71,4.15-2.43,2.53-3.74,5.87-3.74,9.31s1.32,6.78,3.74,9.31c2.53,2.73,6.07,4.15,9.71,4.15s7.18-1.52,9.71-4.15c2.43-2.53,3.74-5.87,3.74-9.31s-1.31-6.78-3.74-9.31c-2.63-2.73-6.07-4.15-9.71-4.15Z"/><path class="cls-3" d="M31.66,58.27c-.71,0-1.32-.61-1.32-1.31v-6.58c0-.61.51-1.11,1.11-1.21,11.63-1.72,20.43-11.94,20.43-23.77,0-.71.61-1.31,1.32-1.31s1.32.61,1.32,1.31c0,6.37-2.33,12.54-6.47,17.4-3.95,4.45-9.21,7.59-14.97,8.7v5.56c-.1.61-.71,1.21-1.42,1.21Z"/><path class="cls-3" d="M24.08,58.27c-.71,0-1.32-.61-1.32-1.31v-5.56c-5.77-1.11-11.13-4.15-14.97-8.7C3.64,37.83,1.32,31.66,1.32,25.29c0-.71.61-1.32,1.32-1.32s1.31.61,1.31,1.32c0,11.84,8.8,22.05,20.43,23.77.61.1,1.11.61,1.11,1.21v6.58c-.1.81-.71,1.42-1.42,1.42Z"/><path class="cls-3" d="M27.92,46.84c-11.83,0-21.55-9.61-21.55-21.55S15.98,3.84,27.92,3.84s21.45,9.71,21.45,21.55-9.61,21.45-21.45,21.45ZM27.92,6.37c-10.52,0-19.02,8.5-19.02,19.02s8.5,19.02,19.02,19.02,19.02-8.5,19.02-19.02S38.34,6.37,27.92,6.37Z"/><path class="cls-3" d="M35.51,58.27h-15.17c-.71,0-1.31-.61-1.31-1.31s.61-1.31,1.31-1.31h15.17c.71,0,1.32.61,1.32,1.31-.1.71-.71,1.31-1.32,1.31Z"/><path class="cls-3" d="M3.84,53.21c-2.12,0-3.84-1.72-3.84-3.84s1.72-3.84,3.84-3.84,3.84,1.72,3.84,3.84-1.72,3.84-3.84,3.84ZM3.84,48.15c-.71,0-1.32.61-1.32,1.31s.61,1.32,1.32,1.32,1.31-.61,1.31-1.32c0-.81-.61-1.31-1.31-1.31Z"/><path class="cls-3" d="M53.21,12.75c-2.83,0-5.06-2.23-5.06-5.06s2.22-5.06,5.06-5.06,5.06,2.23,5.06,5.06-2.33,5.06-5.06,5.06ZM53.21,5.16c-1.42,0-2.53,1.11-2.53,2.53s1.11,2.53,2.53,2.53,2.53-1.11,2.53-2.53-1.21-2.53-2.53-2.53Z"/><path class="cls-3" d="M5.16,11.43c-2.12,0-3.84-1.72-3.84-3.84s1.72-3.84,3.84-3.84,3.84,1.72,3.84,3.84-1.82,3.84-3.84,3.84ZM5.16,6.37c-.71,0-1.31.61-1.31,1.32s.61,1.31,1.31,1.31,1.32-.61,1.32-1.31c-.1-.71-.71-1.32-1.32-1.32Z"/></g></g></svg>