<?xml version="1.0" encoding="UTF-8"?><svg id="Layer_2" xmlns="http://www.w3.org/2000/svg" viewBox="0 0 58.27 53.21"><defs><style>.cls-1{fill:#c9566f;}.cls-2{fill:#fcadbc;}.cls-3{fill:#fff;}</style></defs><g id="Isolation_Mode"><g id="_1020_Document_Drawer_School_Storage"><rect class="cls-2" x="5.16" y="1.31" width="6.37" height="12.65"/><polygon class="cls-3" points="36.72 39.25 35.51 44.31 22.86 44.31 21.55 39.25 36.72 39.25"/><polygon class="cls-2" points="36.72 26.6 35.51 31.66 22.86 31.66 21.55 26.6 36.72 26.6"/><polygon class="cls-3" points="36.72 13.96 35.51 19.02 22.86 19.02 21.55 13.96 36.72 13.96"/><polygon class="cls-2" points="36.72 1.31 35.51 6.37 22.86 6.37 21.55 1.31 36.72 1.31"/><rect class="cls-2" x="46.84" y="1.31" width="6.37" height="12.65"/><rect class="cls-2" x="46.84" y="26.6" width="6.37" height="12.65"/><rect class="cls-2" x="5.16" y="26.6" width="6.37" height="12.65"/><rect class="cls-3" x="5.16" y="39.25" width="6.37" height="12.64"/><rect class="cls-3" x="46.84" y="13.96" width="6.37" height="12.64"/><rect class="cls-3" x="5.16" y="13.96" width="6.37" height="12.64"/><rect class="cls-3" x="46.84" y="39.25" width="6.37" height="12.64"/><polygon class="cls-3" points="11.43 51.89 11.43 39.25 21.55 39.25 22.86 44.31 35.51 44.31 36.72 39.25 46.84 39.25 46.84 51.89 11.43 51.89"/><polygon class="cls-2" points="46.84 26.6 46.84 39.25 36.72 39.25 21.55 39.25 11.43 39.25 11.43 26.6 21.55 26.6 22.86 31.66 35.51 31.66 36.72 26.6 46.84 26.6"/><polygon class="cls-3" points="46.84 13.96 46.84 26.6 36.72 26.6 21.55 26.6 11.43 26.6 11.43 13.96 21.55 13.96 22.86 19.02 35.51 19.02 36.72 13.96 46.84 13.96"/><polygon class="cls-2" points="46.84 1.31 46.84 13.96 36.72 13.96 21.55 13.96 11.43 13.96 11.43 1.31 21.55 1.31 22.86 6.37 35.51 6.37 36.72 1.31 46.84 1.31"/><path class="cls-1" d="M35.51,45.62h-12.65c-.61,0-1.11-.4-1.21-.91l-1.32-5.06c-.2-.71.2-1.31.91-1.52.71-.2,1.31.2,1.52.91l1.01,4.15h10.62l1.01-4.15c.2-.71.81-1.11,1.52-.91.71.2,1.11.81.91,1.52l-1.32,5.06c0,.51-.51.91-1.01.91Z"/><path class="cls-1" d="M53.21,53.21c-.71,0-1.31-.61-1.31-1.32v-12.64c0-.71.61-1.31,1.31-1.31s1.31.61,1.31,1.31v12.64c-.1.71-.71,1.32-1.31,1.32Z"/><path class="cls-1" d="M5.16,53.21c-.71,0-1.32-.61-1.32-1.32v-12.64c0-.71.61-1.31,1.32-1.31s1.31.61,1.31,1.31v12.64c-.1.71-.71,1.32-1.31,1.32Z"/><path class="cls-1" d="M35.51,32.98h-12.65c-.61,0-1.11-.4-1.21-.91l-1.32-5.06c-.2-.71.2-1.31.91-1.52.71-.2,1.31.2,1.52.91l1.01,4.15h10.62l1.01-4.15c.2-.71.81-1.11,1.52-.91.71.2,1.11.81.91,1.52l-1.32,5.06c0,.51-.51.91-1.01.91Z"/><path class="cls-1" d="M53.21,40.56H5.16c-.71,0-1.32-.61-1.32-1.31v-12.65c0-.71.61-1.31,1.32-1.31s1.31.61,1.31,1.31v11.43h45.52v-11.43c0-.71.61-1.31,1.31-1.31s1.31.61,1.31,1.31v12.65c-.2.71-.81,1.31-1.42,1.31Z"/><path class="cls-1" d="M35.51,20.33h-12.65c-.61,0-1.11-.4-1.21-.91l-1.32-5.06c-.2-.71.2-1.31.91-1.52.71-.2,1.31.2,1.52.91l1.01,4.15h10.62l1.01-4.15c.2-.71.81-1.11,1.52-.91.71.2,1.11.81.91,1.52l-1.32,5.06c0,.51-.51.91-1.01.91Z"/><path class="cls-1" d="M53.21,27.92H5.16c-.71,0-1.32-.61-1.32-1.32v-12.64c0-.71.61-1.32,1.32-1.32s1.31.61,1.31,1.32v11.43h45.52v-11.43c0-.71.61-1.32,1.31-1.32s1.31.61,1.31,1.32v12.64c-.2.71-.81,1.32-1.42,1.32Z"/><path class="cls-1" d="M35.51,7.69h-12.65c-.61,0-1.11-.4-1.21-.91l-1.32-5.06c-.1-.4,0-.81.2-1.11.2-.3.61-.51,1.01-.51h15.17c.4,0,.71.2,1.01.51.3.3.3.71.2,1.11l-1.31,5.06c-.1.51-.61.91-1.11.91ZM23.77,5.16h10.62l.61-2.53h-11.84l.61,2.53Z"/><path class="cls-1" d="M53.21,15.27H5.16c-.71,0-1.32-.61-1.32-1.31V1.31c0-.71.61-1.31,1.32-1.31h16.49c.71,0,1.31.61,1.31,1.31s-.61,1.32-1.31,1.32H6.47v10.12h45.52V2.63h-15.17c-.71,0-1.31-.61-1.31-1.32s.61-1.31,1.31-1.31h16.49c.71,0,1.31.61,1.31,1.31v12.65c-.2.71-.81,1.31-1.42,1.31Z"/><path class="cls-1" d="M46.84,53.21c-.71,0-1.31-.61-1.31-1.32V1.31c0-.71.61-1.31,1.31-1.31s1.31.61,1.31,1.31v50.58c0,.71-.61,1.32-1.31,1.32Z"/><path class="cls-1" d="M11.43,53.21c-.71,0-1.31-.61-1.31-1.32V1.31c0-.71.61-1.31,1.31-1.31s1.32.61,1.32,1.31v50.58c0,.71-.61,1.32-1.32,1.32Z"/><path class="cls-1" d="M56.95,53.21H1.31c-.71,0-1.31-.61-1.31-1.32s.61-1.32,1.31-1.32h55.64c.71,0,1.32.61,1.32,1.32s-.61,1.32-1.32,1.32Z"/></g></g></svg>