<?xml version="1.0" encoding="UTF-8"?><svg id="Layer_2" xmlns="http://www.w3.org/2000/svg" viewBox="0 0 60.8 58.27"><defs><style>.cls-1{fill:#c94a60;}.cls-2{fill:#fff;}.cls-3{fill:#fca3b0;}</style></defs><g id="Isolation_Mode"><g id="_1005_Art_Art_board_Board_School"><path class="cls-2" d="M56.95,34.19c1.42,0,2.53,1.11,2.53,2.53,0,.71-.3,1.31-.71,1.82-.5.51-1.11.71-1.82.71H3.84c-1.42,0-2.53-1.11-2.53-2.53,0-.71.3-1.32.71-1.82.51-.51,1.11-.71,1.82-.71h53.11Z"/><rect class="cls-2" x="39.25" y="30.45" width="11.43" height="3.84"/><polygon class="cls-3" points="5.06 6.37 5.06 1.31 55.64 1.31 55.64 34.19 50.58 34.19 50.58 30.45 39.25 30.45 39.25 34.19 5.06 34.19 5.06 6.37"/><path class="cls-2" d="M49.37,42.99c2.12,0,3.84,1.72,3.84,3.84s-1.72,3.84-3.84,3.84-3.84-1.72-3.84-3.84,1.72-3.84,3.84-3.84Z"/><path class="cls-2" d="M36.72,42.99c2.12,0,3.84,1.72,3.84,3.84s-1.72,3.84-3.84,3.84-3.84-1.72-3.84-3.84,1.72-3.84,3.84-3.84Z"/><path class="cls-2" d="M24.08,42.99c2.12,0,3.84,1.72,3.84,3.84s-1.72,3.84-3.84,3.84-3.84-1.72-3.84-3.84,1.72-3.84,3.84-3.84Z"/><path class="cls-2" d="M11.43,42.99c2.12,0,3.84,1.72,3.84,3.84s-1.72,3.84-3.84,3.84-3.84-1.72-3.84-3.84,1.72-3.84,3.84-3.84Z"/><path class="cls-1" d="M56.95,48.05c.73,0,1.32.59,1.32,1.32s-.59,1.32-1.32,1.32-1.32-.59-1.32-1.32.59-1.32,1.32-1.32Z"/><path class="cls-1" d="M3.84,42.99c.73,0,1.32.59,1.32,1.32s-.59,1.31-1.32,1.31-1.32-.59-1.32-1.31.59-1.32,1.32-1.32Z"/><path class="cls-1" d="M56.95,40.56H3.84c-2.12,0-3.84-1.72-3.84-3.84,0-1.01.4-1.92,1.11-2.73.71-.71,1.72-1.11,2.73-1.11h1.21c.71,0,1.32.61,1.32,1.32s-.61,1.31-1.32,1.31h-1.32c-.3,0-.61.1-.91.41-.2.2-.4.51-.4.91,0,.71.61,1.32,1.31,1.32h53.11c.3,0,.61-.1.91-.41.2-.2.4-.5.4-.91,0-.71-.61-1.32-1.32-1.32h-1.21c-.71,0-1.31-.61-1.31-1.31s.61-1.32,1.31-1.32h1.32c2.12,0,3.84,1.72,3.84,3.84,0,1.01-.4,1.92-1.11,2.73-.71.81-1.72,1.11-2.73,1.11Z"/><path class="cls-1" d="M55.64,35.51h-5.06c-.71,0-1.32-.61-1.32-1.31s.61-1.32,1.32-1.32h3.84V2.53H6.37v30.35h32.88c.71,0,1.32.61,1.32,1.32s-.61,1.31-1.32,1.31H5.06c-.71,0-1.32-.61-1.32-1.31V1.31c0-.71.61-1.31,1.32-1.31h50.58c.71,0,1.32.61,1.32,1.31v32.88c0,.71-.61,1.31-1.32,1.31Z"/><path class="cls-1" d="M17.7,58.27c-.71,0-1.31-.61-1.31-1.32,0-2.83-2.23-5.06-5.06-5.06s-5.06,2.22-5.06,5.06c0,.71-.61,1.32-1.32,1.32s-1.31-.61-1.31-1.32c0-4.15,3.44-7.59,7.59-7.59s7.59,3.44,7.59,7.59c.2.71-.41,1.32-1.11,1.32Z"/><path class="cls-1" d="M11.43,51.89c-2.83,0-5.06-2.23-5.06-5.06s2.23-5.06,5.06-5.06,5.06,2.23,5.06,5.06-2.33,5.06-5.06,5.06ZM11.43,44.31c-1.42,0-2.53,1.11-2.53,2.53s1.11,2.53,2.53,2.53,2.53-1.11,2.53-2.53-1.21-2.53-2.53-2.53Z"/><path class="cls-1" d="M30.35,58.27c-.71,0-1.32-.61-1.32-1.32,0-2.83-2.23-5.06-5.06-5.06s-5.06,2.22-5.06,5.06c0,.71-.61,1.32-1.31,1.32s-1.32-.61-1.32-1.32c0-4.15,3.44-7.59,7.59-7.59s7.59,3.44,7.59,7.59c.2.71-.4,1.32-1.11,1.32Z"/><path class="cls-1" d="M24.08,51.89c-2.83,0-5.06-2.23-5.06-5.06s2.23-5.06,5.06-5.06,5.06,2.23,5.06,5.06-2.33,5.06-5.06,5.06ZM24.08,44.31c-1.42,0-2.53,1.11-2.53,2.53s1.11,2.53,2.53,2.53,2.53-1.11,2.53-2.53-1.21-2.53-2.53-2.53Z"/><path class="cls-1" d="M42.99,58.27c-.71,0-1.32-.61-1.32-1.32,0-2.83-2.23-5.06-5.06-5.06s-5.06,2.22-5.06,5.06c0,.71-.61,1.32-1.32,1.32s-1.32-.61-1.32-1.32c0-4.15,3.44-7.59,7.59-7.59s7.59,3.44,7.59,7.59c.2.71-.4,1.32-1.11,1.32Z"/><path class="cls-1" d="M36.72,51.89c-2.83,0-5.06-2.23-5.06-5.06s2.23-5.06,5.06-5.06,5.06,2.23,5.06,5.06-2.33,5.06-5.06,5.06ZM36.72,44.31c-1.42,0-2.53,1.11-2.53,2.53s1.11,2.53,2.53,2.53,2.53-1.11,2.53-2.53-1.21-2.53-2.53-2.53Z"/><path class="cls-1" d="M55.64,58.27c-.71,0-1.31-.61-1.31-1.32,0-2.83-2.23-5.06-5.06-5.06s-5.06,2.22-5.06,5.06c0,.71-.61,1.32-1.32,1.32s-1.31-.61-1.31-1.32c0-4.15,3.44-7.59,7.59-7.59s7.59,3.44,7.59,7.59c.2.71-.41,1.32-1.11,1.32Z"/><path class="cls-1" d="M49.37,51.89c-2.83,0-5.06-2.23-5.06-5.06s2.23-5.06,5.06-5.06,5.06,2.23,5.06,5.06-2.33,5.06-5.06,5.06ZM49.37,44.31c-1.42,0-2.53,1.11-2.53,2.53s1.11,2.53,2.53,2.53,2.53-1.11,2.53-2.53-1.21-2.53-2.53-2.53Z"/><path class="cls-1" d="M50.58,35.51h-11.33c-.71,0-1.31-.61-1.31-1.31v-3.84c0-.71.61-1.32,1.31-1.32h11.33c.71,0,1.32.61,1.32,1.32v3.84c0,.71-.61,1.31-1.32,1.31ZM40.46,32.98h8.9v-1.32h-8.9v1.32Z"/><path class="cls-1" d="M13.96,22.86c-.71,0-1.32-.61-1.32-1.31v-5.77l-.4.41c-.51.5-1.32.5-1.82,0-.51-.51-.51-1.32,0-1.82l2.53-2.53c.4-.4.91-.51,1.42-.3.51.2.81.61.81,1.21v8.9c0,.61-.61,1.21-1.21,1.21Z"/><path class="cls-1" d="M29.13,22.86c-.71,0-1.32-.61-1.32-1.31v-5.77l-.4.41c-.51.5-1.32.5-1.82,0-.51-.51-.51-1.32,0-1.82l2.53-2.53c.4-.4.91-.51,1.42-.3.51.2.81.61.81,1.21v8.9c0,.61-.61,1.21-1.21,1.21Z"/><path class="cls-1" d="M22.76,19.02h-3.84c-.71,0-1.31-.61-1.31-1.32s.61-1.31,1.31-1.31h3.84c.71,0,1.31.61,1.31,1.31s-.61,1.32-1.31,1.32Z"/><path class="cls-1" d="M37.93,17.8h-3.84c-.71,0-1.31-.61-1.31-1.32s.61-1.31,1.31-1.31h3.84c.71,0,1.31.61,1.31,1.31s-.61,1.32-1.31,1.32Z"/><path class="cls-1" d="M37.93,21.55h-3.84c-.71,0-1.31-.61-1.31-1.32s.61-1.32,1.31-1.32h3.84c.71,0,1.31.61,1.31,1.32s-.61,1.32-1.31,1.32Z"/><path class="cls-1" d="M20.84,20.94c-.71,0-1.31-.61-1.31-1.32v-3.84c0-.71.61-1.32,1.31-1.32s1.32.61,1.32,1.32v3.84c0,.71-.61,1.32-1.32,1.32Z"/><path class="cls-1" d="M48.05,7.69H5.06c-.71,0-1.32-.61-1.32-1.31s.61-1.32,1.32-1.32h42.99c.71,0,1.32.61,1.32,1.32s-.61,1.31-1.32,1.31Z"/></g></g></svg>