<?xml version="1.0" encoding="UTF-8"?><svg id="Layer_2" xmlns="http://www.w3.org/2000/svg" viewBox="0 0 60.8 59.48"><defs><style>.cls-1{fill:#c9596c;}.cls-2{fill:#fff;}.cls-3{fill:#fcafba;}</style></defs><g id="Isolation_Mode"><g id="_1010_Back_To_School_Education_Board"><path class="cls-2" d="M53.21,48.15c1.4,0,2.53,1.13,2.53,2.53s-1.13,2.53-2.53,2.53-2.53-1.13-2.53-2.53,1.13-2.53,2.53-2.53Z"/><path class="cls-2" d="M7.08,50.58c1.06,0,1.92.86,1.92,1.92s-.86,1.92-1.92,1.92-1.92-.86-1.92-1.92.86-1.92,1.92-1.92Z"/><polygon class="cls-2" points="45.62 43.09 45.62 45.62 30.45 45.62 15.28 45.62 15.28 43.09 15.28 40.57 45.62 40.57 45.62 43.09"/><path class="cls-2" d="M30.45,51.89c1.73,0,3.14,1.4,3.14,3.14s-1.4,3.14-3.14,3.14-3.14-1.4-3.14-3.14,1.4-3.14,3.14-3.14Z"/><path class="cls-2" d="M55.74,12.75H3.84c-1.42,0-2.53-1.11-2.53-2.53,0-.71.3-1.31.71-1.82.4-.51,1.11-.71,1.82-.71h53.11c1.42,0,2.53,1.11,2.53,2.53,0,.71-.3,1.32-.71,1.82-.4.51-1.11.71-1.82.71h-1.21Z"/><path class="cls-3" d="M5.16,17.8v-5.06h50.58v30.35h-10.12v-2.53H15.28v2.53H5.16v-25.29ZM53.21,17.8c0-.71-.61-1.32-1.31-1.32s-1.21.61-1.21,1.32.61,1.31,1.31,1.31,1.21-.71,1.21-1.31Z"/><path class="cls-1" d="M52,16.49c.73,0,1.31.59,1.31,1.32s-.59,1.31-1.31,1.31-1.31-.59-1.31-1.31.59-1.32,1.31-1.32Z"/><path class="cls-1" d="M46.94,0c.73,0,1.31.59,1.31,1.32s-.59,1.32-1.31,1.32-1.31-.59-1.31-1.32.59-1.32,1.31-1.32Z"/><path class="cls-1" d="M43.09,49.37c.73,0,1.32.59,1.32,1.31s-.59,1.32-1.32,1.32-1.31-.59-1.31-1.32.59-1.31,1.31-1.31Z"/><path class="cls-1" d="M38.04,54.42c.73,0,1.31.59,1.31,1.32s-.59,1.31-1.31,1.31-1.31-.59-1.31-1.31.59-1.32,1.31-1.32Z"/><path class="cls-1" d="M21.65,2.53c.73,0,1.32.59,1.32,1.32s-.59,1.31-1.32,1.31-1.32-.59-1.32-1.31.59-1.32,1.32-1.32Z"/><path class="cls-1" d="M19.12,48.05c.73,0,1.31.59,1.31,1.32s-.59,1.31-1.31,1.31-1.31-.59-1.31-1.31.59-1.32,1.31-1.32Z"/><path class="cls-1" d="M20.84,32.27h-5.46c-.71,0-1.31-.61-1.31-1.31v-4.15c0-.71.61-1.32,1.31-1.32h4.25v-1.42h-4.25c-.71,0-1.31-.61-1.31-1.32s.61-1.31,1.31-1.31h5.46c.71,0,1.31.61,1.31,1.31v4.15c0,.71-.61,1.32-1.31,1.32h-4.25v1.62h4.25c.71,0,1.31.61,1.31,1.32s-.61,1.11-1.31,1.11Z"/><path class="cls-1" d="M45.52,28.22c-.71,0-1.32-.61-1.32-1.32v-2.83h-2.83c-.71,0-1.31-.61-1.31-1.32s.61-1.31,1.31-1.31h4.15c.71,0,1.31.61,1.31,1.31v4.15c-.1.71-.61,1.32-1.31,1.32Z"/><path class="cls-1" d="M45.52,32.27h-4.15c-.71,0-1.31-.61-1.31-1.31s.61-1.32,1.31-1.32h2.83v-1.62h-2.83c-.71,0-1.31-.61-1.31-1.32s.61-1.31,1.31-1.31h4.15c.71,0,1.31.61,1.31,1.31v4.15c-.1.91-.61,1.42-1.31,1.42Z"/><path class="cls-1" d="M34.8,27.92h-6.37c-.71,0-1.31-.61-1.31-1.31s.61-1.32,1.31-1.32h6.37c.71,0,1.31.61,1.31,1.32-.1.71-.61,1.31-1.31,1.31Z"/><path class="cls-1" d="M31.56,31.06c-.71,0-1.32-.61-1.32-1.31v-6.37c0-.71.61-1.32,1.32-1.32s1.31.61,1.31,1.32v6.37c0,.71-.61,1.31-1.31,1.31Z"/><path class="cls-1" d="M30.45,59.48c-2.43,0-4.45-2.02-4.45-4.45s2.02-4.45,4.45-4.45,4.45,2.02,4.45,4.45-2.02,4.45-4.45,4.45ZM30.45,53.21c-1.01,0-1.92.81-1.92,1.92,0,1.01.81,1.92,1.92,1.92s1.92-.81,1.92-1.92-.91-1.92-1.92-1.92Z"/><path class="cls-1" d="M57.05,13.96h-1.31c-.71,0-1.31-.61-1.31-1.31s.61-1.32,1.31-1.32h1.31c.3,0,.61-.1.91-.4.2-.2.4-.51.4-.91,0-.71-.61-1.31-1.32-1.31H3.95c-.3,0-.61.1-.91.4-.2.2-.4.51-.4.91,0,.71.61,1.32,1.31,1.32h1.21c.71,0,1.32.61,1.32,1.32s-.61,1.31-1.32,1.31h-1.31c-2.12,0-3.84-1.72-3.84-3.84,0-1.01.4-1.92,1.11-2.73.71-.81,1.72-1.11,2.73-1.11h53.11c2.12,0,3.84,1.72,3.84,3.84,0,1.01-.4,1.92-1.11,2.73-.71.71-1.62,1.11-2.63,1.11Z"/><path class="cls-1" d="M55.74,44.31h-10.12c-.71,0-1.31-.61-1.31-1.31s.61-1.32,1.31-1.32h8.9V13.96H6.47v27.82h8.8c.71,0,1.31.61,1.31,1.31s-.61,1.32-1.31,1.32H5.16c-.71,0-1.31-.61-1.31-1.32V12.75c0-.71.61-1.31,1.31-1.31h50.58c.71,0,1.31.61,1.31,1.31v30.35c0,.61-.61,1.21-1.31,1.21Z"/><path class="cls-1" d="M30.45,53.21c-.71,0-1.32-.61-1.32-1.32v-6.37c0-.71.61-1.31,1.32-1.31s1.31.61,1.31,1.31v6.37c0,.71-.61,1.32-1.31,1.32Z"/><path class="cls-1" d="M45.62,46.84H15.28c-.71,0-1.32-.61-1.32-1.32v-5.06c0-.71.61-1.32,1.32-1.32h30.35c.71,0,1.31.61,1.31,1.32v5.06c0,.71-.61,1.32-1.31,1.32ZM16.59,44.31h27.82v-2.53h-27.82v2.53Z"/><path class="cls-1" d="M7.08,55.74c-1.72,0-3.14-1.42-3.14-3.14s1.42-3.14,3.14-3.14,3.14,1.42,3.14,3.14c0,1.62-1.42,3.14-3.14,3.14ZM7.08,51.89c-.3,0-.61.3-.61.61s.3.61.61.61.61-.3.61-.61-.3-.61-.61-.61Z"/><path class="cls-1" d="M53.21,54.42c-2.12,0-3.84-1.72-3.84-3.84s1.72-3.84,3.84-3.84,3.84,1.72,3.84,3.84-1.72,3.84-3.84,3.84ZM53.21,49.37c-.71,0-1.31.61-1.31,1.31s.61,1.32,1.31,1.32,1.31-.61,1.31-1.32-.61-1.31-1.31-1.31Z"/><path class="cls-1" d="M48.15,19.02H5.16c-.71,0-1.31-.61-1.31-1.32s.61-1.32,1.31-1.32h42.99c.71,0,1.31.61,1.31,1.32s-.61,1.32-1.31,1.32Z"/></g></g></svg>