<?xml version="1.0" encoding="UTF-8"?><svg id="Layer_2" xmlns="http://www.w3.org/2000/svg" viewBox="0 0 55.64 53.11"><defs><style>.cls-1{fill:#fcdab1;}.cls-2{fill:#fff;}.cls-3{fill:#c9965b;}</style></defs><g id="Isolation_Mode"><g id="_1001_Education_Graduate_Graduation_School_Woman"><path class="cls-2" d="M3.84,25.29c1.4,0,2.53,1.13,2.53,2.53s-1.13,2.53-2.53,2.53-2.53-1.13-2.53-2.53,1.13-2.53,2.53-2.53Z"/><path class="cls-2" d="M5.77,3.74c1.06,0,1.92.86,1.92,1.92s-.86,1.92-1.92,1.92-1.92-.86-1.92-1.92.86-1.92,1.92-1.92Z"/><path class="cls-2" d="M48.76,11.43c1.73,0,3.14,1.4,3.14,3.14s-1.4,3.14-3.14,3.14-3.14-1.4-3.14-3.14,1.4-3.14,3.14-3.14Z"/><path class="cls-1" d="M41.78,51.79H7.59v-8.09c0-5.36,4.35-9.61,9.61-9.61h5.56l5.06,7.59,5.06-7.59h5.56c5.36,0,9.61,4.35,9.61,9.61v8.09h-6.27Z"/><path class="cls-2" d="M35.2,18.31c.2.81.3,1.62.3,2.53,0,5.26-3.44,9.51-7.59,9.51s-7.59-4.25-7.59-9.51c0-.71.1-1.42.2-2.12.51.1,1.11.2,1.72.2,2.23,0,4.15-1.01,5.06-2.43.91,1.42,2.83,2.43,5.06,2.43,1.01,0,2.02-.2,2.83-.61Z"/><path class="cls-2" d="M35.2,18.31c-.81.41-1.82.61-2.93.61-2.23,0-4.15-1.01-5.06-2.43.3-.41.51-.91.61-1.42h6.17c.51,1.01,1.01,2.12,1.21,3.24Z"/><path class="cls-2" d="M21.85,15.17h5.97c-.1.51-.3,1.01-.61,1.42-.91,1.42-2.83,2.43-5.06,2.43-.61,0-1.21-.1-1.72-.2.3-1.42.81-2.63,1.42-3.64Z"/><polygon class="cls-2" points="35.1 9.31 35.1 15.17 33.99 15.17 27.82 15.17 21.85 15.17 20.64 15.17 20.64 9.41 20.64 9.41 27.72 11.33 35.1 9.31"/><polygon class="cls-2" points="35.1 9.31 27.72 11.33 20.64 9.41 14.77 7.79 27.72 5.06 41.07 7.79 35.1 9.31"/><path class="cls-3" d="M54.42,40.46c.67,0,1.21.54,1.21,1.21s-.54,1.21-1.21,1.21-1.21-.54-1.21-1.21.54-1.21,1.21-1.21Z"/><path class="cls-3" d="M50.68,26.6c.67,0,1.21.54,1.21,1.21s-.54,1.21-1.21,1.21-1.21-.54-1.21-1.21.54-1.21,1.21-1.21Z"/><path class="cls-3" d="M45.62,2.53c.67,0,1.21.54,1.21,1.21s-.54,1.21-1.21,1.21-1.21-.54-1.21-1.21.54-1.21,1.21-1.21Z"/><path class="cls-3" d="M19.02,0c.67,0,1.21.54,1.21,1.21s-.54,1.21-1.21,1.21-1.21-.54-1.21-1.21.54-1.21,1.21-1.21Z"/><path class="cls-3" d="M8.9,15.17c.67,0,1.21.54,1.21,1.21s-.54,1.21-1.21,1.21-1.21-.54-1.21-1.21.54-1.21,1.21-1.21Z"/><path class="cls-3" d="M2.63,39.25c.67,0,1.21.54,1.21,1.21s-.54,1.21-1.21,1.21-1.21-.54-1.21-1.21.54-1.21,1.21-1.21Z"/><path class="cls-3" d="M48.15,53.11H7.69c-.71,0-1.31-.61-1.31-1.32v-8.09c0-6.07,4.86-10.92,10.92-10.92h5.56c.71,0,1.32.61,1.32,1.32s-.61,1.31-1.32,1.31h-5.56c-4.65,0-8.4,3.74-8.4,8.4v6.78h37.93v-6.78c0-4.65-3.74-8.4-8.4-8.4h-5.56c-.71,0-1.32-.61-1.32-1.31s.61-1.32,1.32-1.32h5.56c6.07,0,10.92,4.86,10.92,10.92v8.09c0,.71-.51,1.32-1.21,1.32Z"/><path class="cls-3" d="M27.92,42.99c-.41,0-.81-.2-1.01-.61l-5.06-7.59c-.41-.61-.2-1.42.3-1.72.61-.4,1.42-.2,1.72.3l5.06,7.59c.4.61.2,1.42-.3,1.72-.2.2-.51.3-.71.3Z"/><path class="cls-3" d="M27.92,42.99c-.2,0-.51-.1-.71-.2-.61-.4-.71-1.21-.3-1.72l5.06-7.59c.41-.61,1.21-.71,1.72-.3.61.4.71,1.21.3,1.72l-5.06,7.59c-.2.3-.61.51-1.01.51Z"/><path class="cls-3" d="M41.78,53.11c-.71,0-1.32-.61-1.32-1.32v-7.59c0-.71.61-1.31,1.32-1.31s1.32.61,1.32,1.31v7.59c0,.71-.61,1.32-1.32,1.32Z"/><path class="cls-3" d="M13.96,53.11c-.71,0-1.32-.61-1.32-1.32v-7.59c0-.71.61-1.31,1.32-1.31s1.31.61,1.31,1.31v7.59c0,.71-.61,1.32-1.31,1.32Z"/><path class="cls-3" d="M27.92,31.56c-4.86,0-8.9-4.86-8.9-10.72,0-.81.1-1.52.2-2.33.1-.71.81-1.11,1.52-1.01.71.1,1.11.81,1.01,1.52-.1.61-.2,1.21-.2,1.92,0,4.55,2.83,8.19,6.37,8.19s6.37-3.64,6.37-8.19c0-.71-.1-1.52-.2-2.23-.1-.71.3-1.32,1.01-1.52.71-.1,1.32.3,1.52,1.01.2.91.3,1.82.3,2.73-.2,5.87-4.15,10.62-9,10.62Z"/><path class="cls-3" d="M32.37,20.23c-2.53,0-4.86-1.11-6.07-2.93-.3-.4-.3-1.01,0-1.42.2-.3.3-.61.41-.91.1-.71.81-1.11,1.52-1.01.71.1,1.11.81,1.01,1.52-.1.3-.2.71-.3,1.01.81.81,2.12,1.31,3.54,1.31.51,0,.91-.1,1.32-.2-.2-.61-.51-1.21-.81-1.72-.4-.61-.2-1.42.4-1.72.61-.4,1.42-.2,1.72.41.61,1.11,1.11,2.22,1.42,3.54.1.61-.2,1.21-.71,1.42-1.11.41-2.33.71-3.44.71Z"/><path class="cls-3" d="M22.25,20.23c-.71,0-1.32-.1-2.02-.2-.61-.2-1.01-.81-.91-1.42.3-1.42.81-2.83,1.52-4.05.4-.61,1.11-.81,1.72-.41.61.41.81,1.11.4,1.72-.3.61-.61,1.21-.81,1.92h.1c1.72,0,3.24-.71,4.05-1.82.41-.61,1.21-.71,1.72-.3.61.4.71,1.21.3,1.72-1.21,1.72-3.54,2.83-6.07,2.83Z"/><path class="cls-3" d="M35.1,16.39h-14.46c-.71,0-1.32-.61-1.32-1.32v-5.66c0-.71.61-1.32,1.32-1.32s1.31.61,1.31,1.32v4.45h11.94v-4.55c0-.71.61-1.32,1.32-1.32s1.32.61,1.32,1.32v5.77c-.1.81-.71,1.31-1.42,1.31Z"/><path class="cls-3" d="M27.72,12.64h-.3l-13.05-3.64c-.61-.2-.91-.71-.91-1.21,0-.61.4-1.11,1.01-1.21l12.95-2.73h.51l13.35,2.73c.61.1,1.01.61,1.01,1.21s-.4,1.11-.91,1.21l-13.35,3.54c-.1.1-.2.1-.3.1ZM20.03,7.89l7.59,2.12,7.89-2.12-7.89-1.62-7.59,1.62Z"/><path class="cls-3" d="M44.31,31.56h-7.59c-.71,0-1.32-.61-1.32-1.31s.61-1.32,1.32-1.32h4.05c-5.16-5.16-6.78-13.15-6.88-13.56-.1-.71.3-1.31,1.01-1.52.71-.1,1.32.3,1.52,1.01,0,.1,2.12,10.22,8.6,14.37.51.3.71.91.51,1.42-.1.61-.61.91-1.21.91Z"/><path class="cls-3" d="M19.02,31.56h-7.59c-.61,0-1.01-.4-1.21-.91-.2-.51.1-1.11.51-1.42,6.47-4.15,8.6-14.26,8.6-14.37.1-.71.81-1.11,1.52-1.01.71.1,1.11.81,1.01,1.52-.1.41-1.72,8.4-6.88,13.66h4.05c.71,0,1.32.61,1.32,1.32s-.61,1.21-1.32,1.21Z"/><path class="cls-3" d="M3.84,31.56c-2.12,0-3.84-1.72-3.84-3.84s1.72-3.84,3.84-3.84,3.84,1.72,3.84,3.84-1.72,3.84-3.84,3.84ZM3.84,26.5c-.71,0-1.32.61-1.32,1.31s.61,1.32,1.32,1.32,1.32-.61,1.32-1.32-.61-1.31-1.32-1.31Z"/><path class="cls-3" d="M5.77,8.8c-1.72,0-3.14-1.42-3.14-3.14s1.42-3.14,3.14-3.14,3.14,1.42,3.14,3.14-1.42,3.14-3.14,3.14ZM5.77,5.06c-.3,0-.61.3-.61.61s.3.61.61.61.61-.3.61-.61-.3-.61-.61-.61Z"/><path class="cls-3" d="M48.76,18.92c-2.43,0-4.45-2.02-4.45-4.45s2.02-4.45,4.45-4.45,4.45,2.02,4.45,4.45-2.02,4.45-4.45,4.45ZM48.76,12.64c-1.01,0-1.92.81-1.92,1.92s.81,1.92,1.92,1.92c1.01,0,1.92-.81,1.92-1.92s-.91-1.92-1.92-1.92Z"/></g></g></svg>