<?xml version="1.0" encoding="UTF-8"?><svg id="Layer_2" xmlns="http://www.w3.org/2000/svg" viewBox="0 0 53.21 59.48"><defs><style>.cls-1{fill:#fcdbb6;}.cls-2{fill:#fff;}.cls-3{fill:#c99763;}</style></defs><g id="Isolation_Mode"><g id="_1000_Back_To_School_Creative_Education_Idea_Light"><path class="cls-2" d="M48.76,38.04c1.73,0,3.14,1.4,3.14,3.14s-1.4,3.14-3.14,3.14-3.14-1.4-3.14-3.14,1.4-3.14,3.14-3.14Z"/><path class="cls-2" d="M3.24,3.84c1.06,0,1.92.86,1.92,1.92s-.86,1.92-1.92,1.92-1.92-.86-1.92-1.92.86-1.92,1.92-1.92Z"/><path class="cls-2" d="M3.84,42.99c1.4,0,2.53,1.13,2.53,2.53s-1.13,2.53-2.53,2.53-2.53-1.13-2.53-2.53,1.13-2.53,2.53-2.53Z"/><path class="cls-2" d="M35.51,49.37v2.23c0,1.52-1.32,2.83-2.83,2.83h-12.14c-1.52,0-2.83-1.32-2.83-2.83v-2.23h17.8Z"/><path class="cls-2" d="M30.45,54.42v1.52c0,1.21-1.01,2.33-2.33,2.33h-3.03c-1.21,0-2.33-1.01-2.33-2.33v-1.52h7.69Z"/><polygon class="cls-2" points="35.51 44.31 35.51 49.37 17.8 49.37 17.8 44.31 24.08 44.31 29.13 44.31 35.51 44.31"/><path class="cls-1" d="M26.5,1.32c-9.51.1-17.4,7.79-17.6,17.3-.1,4.35,1.31,8.29,3.84,11.43,3.24,4.05,5.06,9.1,5.06,14.26v.1h17.8v-.1c0-5.16,1.72-10.12,4.96-14.16,2.43-3.04,3.95-6.88,3.95-11.13-.2-9.81-8.19-17.8-18.01-17.7Z"/><path class="cls-3" d="M49.37,30.35c.73,0,1.32.59,1.32,1.32s-.59,1.31-1.32,1.31-1.31-.59-1.31-1.31.59-1.32,1.31-1.32Z"/><path class="cls-3" d="M48.15,5.06c.73,0,1.32.59,1.32,1.32s-.59,1.32-1.32,1.32-1.31-.59-1.31-1.32.59-1.32,1.31-1.32Z"/><path class="cls-3" d="M44.31,50.58c.73,0,1.31.59,1.31,1.31s-.59,1.32-1.31,1.32-1.31-.59-1.31-1.32.59-1.31,1.31-1.31Z"/><path class="cls-3" d="M3.84,31.56c.73,0,1.32.59,1.32,1.32s-.59,1.31-1.32,1.31-1.31-.59-1.31-1.31.59-1.32,1.31-1.32Z"/><path class="cls-3" d="M35.51,45.52c-.71,0-1.32-.61-1.32-1.32v-.1c0-5.46,1.82-10.72,5.26-14.87,2.33-2.93,3.64-6.58,3.64-10.32,0-4.45-1.72-8.6-4.86-11.63-3.14-3.03-7.18-4.75-11.63-4.75h-.1c-8.8.1-16.08,7.28-16.29,16.08-.1,3.84,1.21,7.59,3.54,10.52,3.44,4.35,5.36,9.71,5.36,15.07v.1c0,.71-.61,1.32-1.32,1.32s-1.31-.61-1.31-1.32v-.1c0-4.75-1.72-9.61-4.75-13.45-2.73-3.44-4.15-7.79-4.05-12.24.1-4.96,2.12-9.61,5.66-13.05C16.89,2.02,21.55,0,26.5,0h.1c5.06,0,9.81,1.92,13.35,5.46,3.64,3.54,5.56,8.4,5.56,13.45,0,4.35-1.52,8.6-4.25,11.94-3.04,3.74-4.65,8.4-4.65,13.35v.1c.1.71-.51,1.21-1.11,1.21Z"/><path class="cls-3" d="M39.15,20.23c-.71,0-1.31-.61-1.31-1.31,0-3.04-1.21-5.87-3.34-7.99-2.12-2.12-4.96-3.24-7.89-3.24h-.1c-.71,0-1.31-.61-1.31-1.21,0-.71.61-1.32,1.21-1.32h.1c3.64,0,7.08,1.42,9.71,3.95,2.63,2.63,4.05,6.07,4.05,9.81.2.81-.4,1.31-1.11,1.31Z"/><path class="cls-3" d="M35.51,50.58c-.71,0-1.32-.61-1.32-1.32v-3.84h-15.17v3.84c0,.71-.61,1.32-1.31,1.32s-1.21-.51-1.21-1.21v-5.06c0-.71.61-1.32,1.31-1.32h17.7c.71,0,1.31.61,1.31,1.32v5.06c-.1.71-.71,1.21-1.31,1.21Z"/><path class="cls-3" d="M28.12,59.48h-3.03c-1.92,0-3.54-1.62-3.54-3.54v-1.52c0-.71.61-1.32,1.31-1.32s1.31.61,1.31,1.32v1.52c0,.61.4,1.01,1.01,1.01h3.03c.61,0,1.01-.4,1.01-1.01v-1.52c0-.71.61-1.32,1.31-1.32s1.31.61,1.31,1.32v1.52c-.2,1.92-1.82,3.54-3.74,3.54Z"/><path class="cls-3" d="M32.67,55.64h-12.14c-2.23,0-4.05-1.82-4.05-4.05v-2.23c0-.71.61-1.31,1.31-1.31h17.7c.71,0,1.31.61,1.31,1.31v2.23c-.1,2.23-1.92,4.05-4.15,4.05ZM19.02,50.58v1.01c0,.81.71,1.52,1.52,1.52h12.14c.81,0,1.52-.71,1.52-1.52v-1.01h-15.17Z"/><path class="cls-3" d="M29.13,45.52c-.71,0-1.32-.61-1.32-1.32v-18.92c0-.71.61-1.32,1.32-1.32s1.31.61,1.31,1.32v19.02c0,.71-.61,1.21-1.31,1.21Z"/><path class="cls-3" d="M31.66,26.6h-2.53c-.71,0-1.32-.61-1.32-1.31v-2.53c0-1.01.4-1.92,1.11-2.73.71-.71,1.72-1.11,2.73-1.11s1.92.4,2.73,1.11c.71.71,1.11,1.72,1.11,2.73,0,2.12-1.72,3.84-3.84,3.84ZM30.45,24.08h1.21c.71,0,1.31-.61,1.31-1.32,0-.3-.1-.61-.4-.91-.2-.2-.51-.41-.91-.41s-.61.1-.91.41c-.2.2-.4.51-.4.91v1.32h.1Z"/><path class="cls-3" d="M29.13,26.6h-5.06c-.71,0-1.31-.61-1.31-1.31s.61-1.32,1.31-1.32h5.06c.71,0,1.31.61,1.31,1.32s-.61,1.31-1.31,1.31Z"/><path class="cls-3" d="M24.08,26.6h-2.53c-1.01,0-1.92-.4-2.73-1.11-.71-.71-1.11-1.72-1.11-2.73s.4-1.92,1.11-2.73c.71-.71,1.72-1.11,2.73-1.11,2.12,0,3.84,1.72,3.84,3.84v2.53c0,.71-.61,1.31-1.31,1.31ZM21.55,21.55c-.3,0-.61.1-.91.4-.2.2-.4.51-.4.91s.1.61.4.91c.2.2.51.4.91.4h1.31v-1.31c0-.81-.61-1.32-1.31-1.32Z"/><path class="cls-3" d="M24.08,45.52c-.71,0-1.31-.61-1.31-1.32v-18.92c0-.71.61-1.32,1.31-1.32s1.31.61,1.31,1.32v19.02c0,.71-.61,1.21-1.31,1.21Z"/><path class="cls-3" d="M3.84,49.37c-2.12,0-3.84-1.72-3.84-3.84s1.72-3.84,3.84-3.84,3.84,1.72,3.84,3.84-1.72,3.84-3.84,3.84ZM3.84,44.31c-.71,0-1.31.61-1.31,1.32s.61,1.31,1.31,1.31,1.32-.61,1.32-1.31c0-.81-.61-1.32-1.32-1.32Z"/><path class="cls-3" d="M3.24,8.9C1.52,8.9.1,7.49.1,5.77s1.42-3.14,3.14-3.14,3.14,1.42,3.14,3.14-1.42,3.14-3.14,3.14ZM3.24,5.06c-.3,0-.61.3-.61.61s.3.61.61.61.61-.3.61-.61-.3-.61-.61-.61Z"/><path class="cls-3" d="M48.76,45.52c-2.43,0-4.45-2.02-4.45-4.45s2.02-4.45,4.45-4.45,4.45,2.02,4.45,4.45-2.02,4.45-4.45,4.45ZM48.76,39.25c-1.01,0-1.92.81-1.92,1.92s.81,1.92,1.92,1.92c1.01,0,1.92-.81,1.92-1.92s-.91-1.92-1.92-1.92Z"/></g></g></svg>