<?xml version="1.0" encoding="UTF-8"?><svg id="Layer_2" xmlns="http://www.w3.org/2000/svg" viewBox="0 0 60.9 60.7"><defs><style>.cls-1{fill:#fcd8b4;}.cls-2{fill:#c99360;}.cls-3{fill:#fff;}</style></defs><g id="Isolation_Mode"><g id="_1023_Lab_Flask_Tube_Back_To_School_Education"><path class="cls-3" d="M5.06,1.32c1.4,0,2.53,1.13,2.53,2.53s-1.13,2.53-2.53,2.53-2.53-1.13-2.53-2.53,1.13-2.53,2.53-2.53Z"/><path class="cls-3" d="M55.03,7.59c1.73,0,3.14,1.4,3.14,3.14s-1.4,3.14-3.14,3.14-3.14-1.4-3.14-3.14,1.4-3.14,3.14-3.14Z"/><path class="cls-1" d="M19.02,13.96v37.93c0,4.15-3.44,7.59-7.59,7.59s-7.59-3.44-7.59-7.59V13.96h15.17Z"/><path class="cls-3" d="M45.52,21.55v2.93c7.99,1.72,13.96,8.8,13.96,17.3,0,0-9.21-4.45-15.17,0-5.97,4.45-19.22-4.55-19.22-4.55h-.4c1.72-6.37,6.88-11.33,13.35-12.75v-10.52h7.49v7.59Z"/><path class="cls-3" d="M44.31,41.78c-5.97,4.45-19.22-4.55-19.22-4.55h-.4c-.41,1.42-.61,3.04-.61,4.55,0,9.81,7.89,17.7,17.7,17.7s17.7-7.89,17.7-17.7c0,0-9.31-4.45-15.17,0Z"/><path class="cls-2" d="M56.95,20.23c.73,0,1.32.59,1.32,1.31s-.59,1.32-1.32,1.32-1.32-.59-1.32-1.32.59-1.31,1.32-1.31Z"/><path class="cls-2" d="M50.58,45.52c.73,0,1.32.59,1.32,1.32s-.59,1.31-1.32,1.31-1.32-.59-1.32-1.31.59-1.32,1.32-1.32Z"/><path class="cls-2" d="M49.37,1.21c.73,0,1.32.59,1.32,1.32s-.59,1.32-1.32,1.32-1.32-.59-1.32-1.32.59-1.32,1.32-1.32Z"/><path class="cls-2" d="M45.52,51.79c.73,0,1.31.59,1.31,1.31s-.59,1.32-1.31,1.32-1.32-.59-1.32-1.32.59-1.31,1.32-1.31Z"/><path class="cls-2" d="M41.78,46.74c.73,0,1.32.59,1.32,1.32s-.59,1.32-1.32,1.32-1.32-.59-1.32-1.32.59-1.32,1.32-1.32Z"/><path class="cls-2" d="M34.19,48.05c.73,0,1.32.59,1.32,1.32s-.59,1.31-1.32,1.31-1.32-.59-1.32-1.31.59-1.32,1.32-1.32Z"/><path class="cls-2" d="M29.13,2.53c.73,0,1.31.59,1.31,1.32s-.59,1.31-1.31,1.31-1.32-.59-1.32-1.31.59-1.32,1.32-1.32Z"/><path class="cls-2" d="M25.29,25.29c.73,0,1.32.59,1.32,1.32s-.59,1.31-1.32,1.31-1.31-.59-1.31-1.31.59-1.32,1.31-1.32Z"/><path class="cls-2" d="M17.7,6.27c.73,0,1.32.59,1.32,1.31s-.59,1.32-1.32,1.32-1.31-.59-1.31-1.32.59-1.31,1.31-1.31Z"/><path class="cls-2" d="M41.78,60.7c-10.42,0-19.02-8.5-19.02-19.02,0-1.62.2-3.34.61-4.96.91-3.34,2.73-6.37,5.26-8.8,2.22-2.12,5.06-3.74,8.09-4.55v-9.51c0-.71.61-1.32,1.31-1.32s1.32.61,1.32,1.32v10.52c0,.61-.41,1.11-1.01,1.21-6.07,1.31-10.72,5.87-12.34,11.83-.4,1.42-.61,2.83-.61,4.25,0,9.1,7.38,16.49,16.49,16.49s16.49-7.38,16.49-16.49c0-7.69-5.46-14.47-12.95-16.08-.61-.1-1.01-.61-1.01-1.21v-10.42c0-.71.61-1.31,1.32-1.31s1.31.61,1.31,1.31v9.51c3.74,1.01,7.18,3.24,9.61,6.27,2.73,3.34,4.25,7.59,4.25,11.94-.2,10.52-8.7,19.02-19.12,19.02Z"/><path class="cls-2" d="M11.43,60.7c-4.86,0-8.9-3.95-8.9-8.9V13.96c0-.71.61-1.31,1.32-1.31s1.32.61,1.32,1.31v37.93c0,3.44,2.83,6.37,6.37,6.37s6.37-2.83,6.37-6.37V13.96c0-.71.61-1.31,1.31-1.31s1.32.61,1.32,1.31v37.93c-.3,4.86-4.25,8.8-9.1,8.8Z"/><path class="cls-2" d="M48.05,15.17h-12.64c-.71,0-1.32-.61-1.32-1.31s.61-1.32,1.32-1.32h12.64c.71,0,1.32.61,1.32,1.32s-.61,1.31-1.32,1.31Z"/><path class="cls-2" d="M21.55,15.17H1.31c-.71,0-1.31-.61-1.31-1.31s.61-1.32,1.31-1.32h20.23c.71,0,1.31.61,1.31,1.32s-.71,1.31-1.31,1.31Z"/><path class="cls-2" d="M10.12,24.08h-2.53c-.71,0-1.32-.61-1.32-1.32s.61-1.31,1.32-1.31h2.53c.71,0,1.32.61,1.32,1.31s-.61,1.32-1.32,1.32Z"/><path class="cls-2" d="M10.12,27.82h-2.53c-.71,0-1.32-.61-1.32-1.32s.61-1.32,1.32-1.32h2.53c.71,0,1.32.61,1.32,1.32s-.61,1.32-1.32,1.32Z"/><path class="cls-2" d="M10.12,31.66h-2.53c-.71,0-1.32-.61-1.32-1.32s.61-1.31,1.32-1.31h2.53c.71,0,1.32.61,1.32,1.31s-.61,1.32-1.32,1.32Z"/><path class="cls-2" d="M10.12,35.41h-2.53c-.71,0-1.32-.61-1.32-1.32s.61-1.32,1.32-1.32h2.53c.71,0,1.32.61,1.32,1.32s-.61,1.32-1.32,1.32Z"/><path class="cls-2" d="M10.12,39.25h-2.53c-.71,0-1.32-.61-1.32-1.32s.61-1.31,1.32-1.31h2.53c.71,0,1.32.61,1.32,1.31s-.61,1.32-1.32,1.32Z"/><path class="cls-2" d="M10.12,42.99h-2.53c-.71,0-1.32-.61-1.32-1.32s.61-1.32,1.32-1.32h2.53c.71,0,1.32.61,1.32,1.32s-.61,1.32-1.32,1.32Z"/><path class="cls-2" d="M10.12,46.84h-2.53c-.71,0-1.32-.61-1.32-1.32s.61-1.31,1.32-1.31h2.53c.71,0,1.32.61,1.32,1.31s-.61,1.32-1.32,1.32Z"/><path class="cls-2" d="M10.12,50.58h-2.53c-.71,0-1.32-.61-1.32-1.32s.61-1.32,1.32-1.32h2.53c.71,0,1.32.61,1.32,1.32s-.61,1.32-1.32,1.32Z"/><path class="cls-2" d="M40.06,44.21c-2.33,0-4.96-.61-8.09-1.92-4.15-1.72-7.49-3.94-7.59-4.05-.61-.4-.71-1.21-.3-1.72.41-.61,1.21-.71,1.72-.3,3.44,2.33,13.45,7.79,17.8,4.55,6.47-4.86,16.08-.3,16.49-.1.61.3.91,1.01.61,1.72-.3.61-1.01.91-1.72.61-.1-.1-8.6-4.05-13.86-.1-1.42.81-3.14,1.32-5.06,1.32Z"/><path class="cls-2" d="M28.42,24.08c-1.21,0-2.33-.51-3.14-1.32-.81-.81-1.31-1.92-1.31-3.14v-11.43c0-3.14-2.53-5.67-5.67-5.67-1.52,0-2.93.61-4.05,1.62-1.11,1.01-1.62,2.53-1.62,4.05v5.67c0,.71-.61,1.31-1.32,1.31s-1.21-.61-1.21-1.21v-5.67c0-2.23.81-4.25,2.43-5.77C14.06,1.01,16.18.1,18.31.1c4.55,0,8.19,3.64,8.19,8.19v11.43c0,.51.2,1.01.51,1.31.3.3.81.51,1.32.51,1.01,0,1.92-.81,1.92-1.92v-9.51c0-1.72.71-3.24,1.82-4.45,1.21-1.21,2.83-1.82,4.45-1.82,3.44,0,6.37,2.83,6.37,6.37v3.84c0,.71-.61,1.31-1.31,1.31s-1.32-.61-1.32-1.31v-3.95c0-2.12-1.72-3.84-3.84-3.84-1.01,0-1.92.4-2.73,1.11-.71.71-1.11,1.72-1.11,2.73v9.51c.3,2.43-1.72,4.45-4.15,4.45Z"/><path class="cls-2" d="M55.03,15.17c-2.43,0-4.45-2.02-4.45-4.45s2.02-4.45,4.45-4.45,4.45,2.02,4.45,4.45-2.02,4.45-4.45,4.45ZM55.03,8.9c-1.01,0-1.92.81-1.92,1.92s.81,1.92,1.92,1.92c1.01,0,1.92-.81,1.92-1.92s-.91-1.92-1.92-1.92Z"/><path class="cls-2" d="M5.06,7.59c-2.12,0-3.84-1.72-3.84-3.84S2.93,0,5.06,0s3.84,1.72,3.84,3.84-1.72,3.74-3.84,3.74ZM5.06,2.53c-.71,0-1.32.61-1.32,1.32s.61,1.31,1.32,1.31,1.32-.61,1.32-1.31-.61-1.32-1.32-1.32Z"/><path class="cls-2" d="M45.52,19.02h-2.53c-.71,0-1.32-.61-1.32-1.32s.61-1.32,1.32-1.32h2.53c.71,0,1.31.61,1.31,1.32s-.61,1.32-1.31,1.32Z"/><path class="cls-2" d="M45.52,22.76h-2.53c-.71,0-1.32-.61-1.32-1.31s.61-1.32,1.32-1.32h2.53c.71,0,1.31.61,1.31,1.32s-.61,1.31-1.31,1.31Z"/></g></g></svg>