<?xml version="1.0" encoding="UTF-8"?><svg id="Layer_2" xmlns="http://www.w3.org/2000/svg" viewBox="0 0 59.68 59.58"><defs><style>.cls-1{fill:#c99f4a;}.cls-2{fill:#fff;}.cls-3{fill:#fcdfa1;}</style></defs><g id="Isolation_Mode"><g id="_1017_Back_To_School_Education_Hanging_Sign_School"><rect class="cls-3" x="13.96" y="16.59" width="44.31" height="29.13"/><circle class="cls-2" cx="22.76" cy="52" r="2.53"/><path class="cls-2" d="M51.89,16.59v3.14c0,1.72-1.42,3.14-3.14,3.14s-3.14-1.42-3.14-3.14v-6.27c0-1.72,1.42-3.14,3.14-3.14.91,0,1.62.41,2.22.91.61.61.91,1.32.91,2.23v3.14Z"/><path class="cls-2" d="M26.6,16.59v3.14c0,1.72-1.42,3.14-3.14,3.14s-3.14-1.42-3.14-3.14v-6.27c0-1.72,1.42-3.14,3.14-3.14.91,0,1.62.41,2.23.91.61.61.91,1.32.91,2.23v3.14Z"/><path class="cls-2" d="M8.9,12.75v45.52H3.84V12.75c0-1.42,1.11-2.53,2.53-2.53.71,0,1.31.3,1.82.71.41.51.71,1.11.71,1.82Z"/><path class="cls-1" d="M56.95,10.22c.73,0,1.32.59,1.32,1.31s-.59,1.32-1.32,1.32-1.31-.59-1.31-1.32.59-1.31,1.31-1.31Z"/><path class="cls-1" d="M55.64,56.95c.73,0,1.31.59,1.31,1.31s-.59,1.32-1.31,1.32-1.32-.59-1.32-1.32.59-1.31,1.32-1.31Z"/><path class="cls-1" d="M54.32,27.82c.1,1.31-.61,2.63-1.82,3.14-.3.1-.61.2-.91.2l-.1-1.32c.2,0,.41-.1.51-.2.41-.2.71-.61.81-1.01.1-.3.1-.51.1-.81h1.42Z"/><path class="cls-1" d="M52.91,27.92c0-.61-.3-1.21-.91-1.52-.3-.1-.61-.2-.91-.1l-.1-1.32c.51-.1,1.11,0,1.62.3.81.4,1.32,1.01,1.62,1.72.1.3.2.61.2.91h-1.52Z"/><polygon class="cls-1" points="50.88 40.46 53.92 40.46 53.92 41.68 49.47 41.68 49.47 35.51 50.88 35.51 50.88 40.46"/><path class="cls-1" d="M50.58,29.84c.3.1.61.2.91.1l.1,1.32c-.51.1-1.11,0-1.52-.3-.71-.4-1.31-1.01-1.62-1.72-.1-.3-.2-.61-.2-.91l1.42-.1c0,.71.3,1.32.91,1.62Z"/><path class="cls-1" d="M49.77,27.41c-.1.3-.1.51-.1.81l-1.42.1c-.1-1.32.61-2.53,1.82-3.14.3-.1.61-.2.91-.2l.1,1.32c-.2,0-.4.1-.51.2-.51.1-.71.51-.81.91Z"/><polygon class="cls-1" points="44.81 26.3 42.89 26.3 42.89 24.99 48.15 24.99 48.15 26.3 46.23 26.3 46.23 31.26 44.81 31.26 44.81 26.3"/><path class="cls-1" d="M44.31,35.71c.81-.3,1.72-.3,2.53,0,.81.41,1.32,1.01,1.62,1.72.3.81.3,1.62,0,2.33s-.81,1.32-1.62,1.72c-.4.2-1.72.3-2.53,0-.41-.2-.71-.4-1.01-.71-.51-.61-.81-1.32-.81-2.23,0-1.11.61-2.23,1.82-2.83ZM46.74,39.86c.61-.81.51-2.43-.51-3.04-.4-.2-1.01-.2-1.42,0-.41.2-.71.61-.81,1.01-.3.91,0,1.92.81,2.43.4.2,1.01.2,1.42,0,.2,0,.4-.2.51-.4Z"/><path class="cls-1" d="M40.46,50.68c.73,0,1.32.59,1.32,1.32s-.59,1.32-1.32,1.32-1.31-.59-1.31-1.32.59-1.32,1.31-1.32Z"/><path class="cls-1" d="M40.16,41.48c-.81.4-1.72.3-2.53,0-.81-.4-1.32-1.01-1.62-1.72-.61-1.62.1-3.34,1.62-4.05.81-.3,1.72-.3,2.53,0,.4.2.71.41,1.01.71,1.42,1.62.91,4.15-1.01,5.06ZM38.24,40.36c.4.2,1.01.2,1.42,0,.2-.1.4-.3.51-.41.61-.81.51-2.43-.51-3.03-.41-.2-1.01-.2-1.42,0-.41.2-.71.61-.81,1.01-.1.2-.1.91,0,1.42.1.4.4.81.81,1.01Z"/><polygon class="cls-1" points="38.74 27.82 41.17 31.26 39.55 31.26 37.83 28.73 37.12 29.44 37.12 31.26 35.71 31.26 35.71 29.84 35.71 26.3 35.71 24.99 37.12 24.99 37.12 27.72 39.45 24.99 41.07 24.99 38.74 27.82"/><polygon class="cls-1" points="33.58 39.15 31.06 39.15 31.06 41.68 29.64 41.68 29.64 40.36 29.64 36.82 29.64 35.51 31.06 35.51 31.06 37.93 33.58 37.93 33.58 35.51 35 35.51 35 41.68 33.58 41.68 33.58 39.15"/><path class="cls-1" d="M32.47,24.99c.61,0,1.11.1,1.52.41.4.2.71.61.91,1.01l-1.11.81c-.1-.2-.2-.3-.3-.4-.3-.3-.71-.41-1.11-.41-.3,0-.51.1-.71.2-.2.1-.4.3-.5.4-.51.71-.51,1.82,0,2.63.1.2.3.3.5.41.51.3,1.32.2,1.82-.3.1-.1.2-.2.3-.41l1.21.71c-.3.71-1.01,1.21-1.82,1.31-.71.2-1.42.1-2.02-.2-.81-.4-1.32-1.01-1.62-1.72-.1-.4-.3-1.52,0-2.33.3-.71.81-1.32,1.62-1.72.4-.3.81-.41,1.31-.41Z"/><path class="cls-1" d="M29.13,7.69c.73,0,1.31.59,1.31,1.32s-.59,1.31-1.31,1.31-1.32-.59-1.32-1.31.59-1.32,1.32-1.32Z"/><path class="cls-1" d="M25.69,40.36c.51.3,1.31.2,1.82-.3.1-.1.2-.2.3-.41l1.21.71c-.3.71-1.01,1.21-1.82,1.31-.71.2-1.42.1-2.02-.2-.81-.4-1.32-1.01-1.62-1.72-.1-.4-.3-1.52,0-2.33.3-.71.81-1.32,1.62-1.72.4-.2.81-.3,1.32-.3.61,0,1.11.1,1.52.4.41.2.71.61.91,1.01l-1.21.81c-.1-.2-.2-.3-.3-.41-.2-.2-.51-.3-.71-.4-.41-.1-.81-.1-1.11.1-.2.1-.4.3-.51.4-.61.91-.51,2.43.61,3.04Z"/><path class="cls-1" d="M27.41,29.84h-1.92l-.51,1.42h-1.52l2.23-6.17h1.31l2.23,6.17h-1.52l-.3-1.42ZM27.11,28.83l-.71-2.23-.71,2.23h1.42Z"/><path class="cls-1" d="M18.21,24.99h3.44c.2,0,.41,0,.61.1.71.4,1.11,1.42.61,2.33-.1.3-.4.51-.71.61.41.1.61.3.81.61.2.3.3.61.3,1.01,0,1.11-1.01,1.62-2.12,1.62h-3.03v-6.27h.1ZM19.62,27.52h1.42c.2,0,.3-.1.4-.2.1-.1.2-.3.2-.51s-.1-.41-.2-.51c-.1-.1-.2-.2-.4-.2h-1.42v1.42ZM19.62,30.04h1.62c.2,0,.3-.1.51-.2.1-.1.2-.3.2-.51s-.1-.4-.2-.5c-.1-.1-.2-.2-.4-.2h-1.72v1.42Z"/><path class="cls-1" d="M18.21,36.62c.51-1.01,1.72-1.32,2.73-1.11.41.1.81.2,1.11.41.2.1.3.2.51.2l-.61,1.21s-.1-.1-.2-.1c-.2-.1-.51-.3-.91-.4-.2-.1-.41-.1-.61-.1-.51,0-.81.2-.81.51,0,.61,1.01.61,2.12,1.01.81.3,1.11.81,1.11,1.62,0,.3-.1.61-.2.91-.1.2-.3.4-.51.61-1.11.81-3.14.41-4.25-.3l.61-1.21s.1.1.2.2c.3.2.71.4,1.11.51.2.1.51.1.71.1.51,0,.81-.2.81-.51,0-.1,0-.2-.1-.3-.4-.41-1.32-.41-2.12-.81-.41-.2-.71-.4-.81-.81-.1-.51-.1-1.11.1-1.62Z"/><path class="cls-1" d="M12.64,8.9c.73,0,1.32.59,1.32,1.32s-.59,1.31-1.32,1.31-1.32-.59-1.32-1.31.59-1.32,1.32-1.32Z"/><path class="cls-1" d="M45.52,17.8h-18.92c-.71,0-1.31-.61-1.31-1.32s.61-1.32,1.31-1.32h19.02c.71,0,1.32.61,1.32,1.32-.1.71-.71,1.32-1.42,1.32Z"/><path class="cls-1" d="M58.17,46.94H13.96c-.71,0-1.32-.61-1.32-1.32v-29.03c0-.71.61-1.32,1.32-1.32h6.37c.71,0,1.31.61,1.31,1.32s-.61,1.31-1.31,1.31h-5.06v26.61h41.78v-26.71h-5.06c-.71,0-1.31-.61-1.31-1.32s.61-1.32,1.31-1.32h6.37c.71,0,1.32.61,1.32,1.32v29.13c-.2.71-.81,1.32-1.52,1.32Z"/><path class="cls-1" d="M23.47,11.53c-.71,0-1.32-.61-1.32-1.31v-5.06c0-.71.61-1.32,1.32-1.32s1.21.61,1.21,1.32v5.06c0,.71-.61,1.31-1.21,1.31Z"/><path class="cls-1" d="M48.76,11.53c-.71,0-1.32-.61-1.32-1.31v-5.06c0-.71.61-1.32,1.32-1.32s1.31.61,1.31,1.32v5.06c-.1.71-.71,1.31-1.31,1.31Z"/><path class="cls-1" d="M8.9,59.58c-.71,0-1.31-.61-1.31-1.32V12.75c0-.3-.1-.61-.41-.91-.2-.2-.5-.4-.91-.4-.71,0-1.32.61-1.32,1.31v45.52c0,.71-.61,1.32-1.31,1.32s-1.32-.61-1.32-1.32V12.75c0-2.12,1.72-3.84,3.84-3.84,1.01,0,1.92.4,2.73,1.11.71.71,1.11,1.72,1.11,2.73v45.52c.1.71-.4,1.32-1.11,1.32Z"/><path class="cls-1" d="M6.37,11.53c-.71,0-1.32-.61-1.32-1.31V1.31c0-.71.61-1.31,1.32-1.31s1.31.61,1.31,1.31v8.9c-.1.71-.61,1.31-1.31,1.31Z"/><path class="cls-1" d="M56.95,6.47H2.53c-.71,0-1.31-.61-1.31-1.31s.61-1.32,1.31-1.32h54.42c.71,0,1.32.61,1.32,1.32s-.61,1.31-1.32,1.31Z"/><path class="cls-1" d="M23.47,24.18c-2.43,0-4.45-2.02-4.45-4.45v-6.37c0-2.43,2.02-4.45,4.45-4.45,1.21,0,2.33.51,3.14,1.32.81.81,1.32,1.92,1.32,3.14v6.37c-.1,2.43-2.02,4.45-4.45,4.45ZM23.47,11.53c-1.01,0-1.92.81-1.92,1.92v6.37c0,1.01.81,1.92,1.92,1.92s1.92-.81,1.92-1.92v-6.37c0-.51-.2-1.01-.51-1.31-.3-.3-.91-.61-1.42-.61Z"/><path class="cls-1" d="M48.76,24.18c-2.43,0-4.45-2.02-4.45-4.45v-6.37c0-2.43,2.02-4.45,4.45-4.45,1.21,0,2.33.51,3.14,1.32s1.31,1.92,1.31,3.14v6.37c-.1,2.43-2.02,4.45-4.45,4.45ZM48.76,11.53c-1.01,0-1.92.81-1.92,1.92v6.37c0,1.01.81,1.92,1.92,1.92,1.01,0,1.92-.81,1.92-1.92v-6.37c0-.51-.2-1.01-.51-1.31-.51-.51-.91-.61-1.42-.61Z"/><path class="cls-1" d="M51.89,59.58H1.31c-.71,0-1.31-.61-1.31-1.32s.61-1.31,1.31-1.31h50.58c.71,0,1.31.61,1.31,1.31-.1.71-.61,1.32-1.31,1.32Z"/><path class="cls-1" d="M22.76,55.74c-2.12,0-3.84-1.72-3.84-3.84s1.72-3.84,3.84-3.84,3.84,1.72,3.84,3.84-1.72,3.84-3.84,3.84ZM22.76,50.68c-.71,0-1.32.61-1.32,1.32s.61,1.32,1.32,1.32,1.31-.61,1.31-1.32-.61-1.32-1.31-1.32Z"/><path class="cls-1" d="M37.33,14.06c-1.72,0-3.14-1.42-3.14-3.14s1.42-3.14,3.14-3.14,3.14,1.42,3.14,3.14-1.42,3.14-3.14,3.14ZM37.33,10.22c-.3,0-.61.3-.61.61s.3.61.61.61.61-.3.61-.61-.3-.61-.61-.61Z"/></g></g></svg>