<?xml version="1.0" encoding="UTF-8"?><svg id="Layer_2" xmlns="http://www.w3.org/2000/svg" viewBox="0 0 57.05 60.7"><defs><style>.cls-1{fill:#fff;}.cls-2{fill:#c99c4d;}.cls-3{fill:#fcdca3;}</style></defs><g id="Isolation_Mode"><g id="_1007_Back_To_School_Education_Phone_Mute"><path class="cls-1" d="M3.84,44.31c1.4,0,2.53,1.13,2.53,2.53s-1.13,2.53-2.53,2.53-2.53-1.13-2.53-2.53,1.13-2.53,2.53-2.53Z"/><path class="cls-1" d="M52.6,34.19c1.73,0,3.14,1.4,3.14,3.14s-1.4,3.14-3.14,3.14-3.14-1.4-3.14-3.14,1.4-3.14,3.14-3.14Z"/><path class="cls-1" d="M52.6,10.12c1.06,0,1.92.86,1.92,1.92s-.86,1.92-1.92,1.92-1.92-.86-1.92-1.92.86-1.92,1.92-1.92Z"/><path class="cls-1" d="M41.17,1.31H15.88c-2.43,0-4.45,2.02-4.45,4.45v49.37c0,2.43,2.02,4.45,4.45,4.45h25.29c2.43,0,4.45-2.02,4.45-4.45V5.66c0-2.43-2.02-4.35-4.45-4.35Z"/><rect class="cls-3" x="16.49" y="8.9" width="24.08" height="42.99"/><rect class="cls-1" x="20.33" y="27.82" width="3.84" height="5.06"/><polygon class="cls-1" points="30.45 25.29 30.45 35.41 24.08 32.88 24.08 27.82 30.45 25.29"/><path class="cls-2" d="M50.68,20.23c.73,0,1.32.59,1.32,1.32s-.59,1.31-1.32,1.31-1.31-.59-1.31-1.31.59-1.32,1.31-1.32Z"/><path class="cls-2" d="M50.68,45.52c.73,0,1.32.59,1.32,1.32s-.59,1.31-1.32,1.31-1.31-.59-1.31-1.31.59-1.32,1.31-1.32Z"/><path class="cls-2" d="M34.19,45.52c.73,0,1.32.59,1.32,1.32s-.59,1.31-1.32,1.31-1.31-.59-1.31-1.31.59-1.32,1.31-1.32Z"/><path class="cls-2" d="M30.45,45.52c.73,0,1.31.59,1.31,1.32s-.59,1.31-1.31,1.31-1.32-.59-1.32-1.31.59-1.32,1.32-1.32Z"/><path class="cls-2" d="M26.6,45.52c.73,0,1.32.59,1.32,1.32s-.59,1.31-1.32,1.31-1.31-.59-1.31-1.31.59-1.32,1.31-1.32Z"/><path class="cls-2" d="M22.86,45.52c.73,0,1.31.59,1.31,1.32s-.59,1.31-1.31,1.31-1.32-.59-1.32-1.31.59-1.32,1.32-1.32Z"/><path class="cls-2" d="M5.16,13.86c.73,0,1.32.59,1.32,1.32s-.59,1.32-1.32,1.32-1.32-.59-1.32-1.32.59-1.32,1.32-1.32Z"/><path class="cls-2" d="M2.63,34.09c.73,0,1.32.59,1.32,1.31s-.59,1.32-1.32,1.32-1.31-.59-1.31-1.32.59-1.31,1.31-1.31Z"/><path class="cls-2" d="M41.17,60.7H15.88c-3.14,0-5.66-2.53-5.66-5.67V5.66c0-3.14,2.53-5.66,5.66-5.66h25.29c3.14,0,5.67,2.53,5.67,5.66v49.37c0,3.14-2.53,5.67-5.67,5.67ZM15.88,2.53c-1.72,0-3.14,1.42-3.14,3.14v49.37c0,1.72,1.42,3.14,3.14,3.14h25.29c1.72,0,3.14-1.42,3.14-3.14V5.66c0-1.72-1.42-3.14-3.14-3.14H15.88Z"/><path class="cls-2" d="M40.56,53.11h-24.08c-.71,0-1.32-.61-1.32-1.32V8.9c0-.71.61-1.32,1.32-1.32h24.08c.71,0,1.32.61,1.32,1.32v42.99c-.1.61-.61,1.21-1.32,1.21ZM17.8,50.58h21.55V10.12h-21.55v40.46Z"/><path class="cls-2" d="M26.6,6.37c-.61,0-1.11-.4-1.21-1.11-.1-.4.1-.71.3-1.01.4-.4.81-.4,1.52-.4h3.24c.71,0,1.21.61,1.21,1.32s-.61,1.21-1.32,1.21h-3.64c0-.1,0,0-.1,0Z"/><path class="cls-2" d="M26.6,56.95c-.61,0-1.11-.4-1.21-1.11-.1-.4.1-.71.3-1.01.4-.4.81-.4,1.52-.4h3.24c.71,0,1.21.61,1.21,1.31s-.61,1.21-1.32,1.21h-3.64c0-.1,0,0-.1,0Z"/><path class="cls-2" d="M30.45,36.72c-.2,0-.3,0-.51-.1l-6.37-2.53c-.61-.3-1.01-1.01-.71-1.62.3-.61,1.01-1.01,1.62-.71l4.55,1.82v-6.37l-4.55,1.82c-.61.3-1.42-.1-1.62-.71-.3-.61.1-1.42.71-1.62l6.37-2.53c.4-.2.81-.1,1.21.1.3.2.51.61.51,1.01v10.12c0,.41-.2.81-.51,1.01-.2.2-.51.3-.71.3Z"/><path class="cls-2" d="M24.08,34.19h-3.84c-.71,0-1.31-.61-1.31-1.31v-5.06c0-.71.61-1.31,1.31-1.31h3.84c.71,0,1.31.61,1.31,1.31v5.06c0,.71-.61,1.31-1.31,1.31ZM21.55,31.66h1.32v-2.53h-1.32v2.53Z"/><path class="cls-2" d="M34.19,32.88c-.3,0-.61-.1-.91-.41-.51-.51-.51-1.31,0-1.82l2.53-2.53c.51-.51,1.31-.51,1.82,0s.51,1.32,0,1.82l-2.53,2.53c-.2.3-.61.41-.91.41Z"/><path class="cls-2" d="M36.72,32.88c-.3,0-.61-.1-.91-.41l-2.53-2.53c-.51-.51-.51-1.32,0-1.82.51-.51,1.32-.51,1.82,0l2.53,2.53c.51.51.51,1.31,0,1.82-.2.3-.61.41-.91.41Z"/><path class="cls-2" d="M25.39,15.17h-3.84c-.71,0-1.32-.61-1.32-1.32s.61-1.31,1.32-1.31h3.84c.71,0,1.32.61,1.32,1.31s-.61,1.32-1.32,1.32Z"/><path class="cls-2" d="M25.39,19.02h-3.84c-.71,0-1.32-.61-1.32-1.31s.61-1.32,1.32-1.32h3.84c.71,0,1.32.61,1.32,1.32-.1.71-.61,1.31-1.32,1.31Z"/><path class="cls-2" d="M25.39,22.76h-3.84c-.71,0-1.32-.61-1.32-1.32s.61-1.31,1.32-1.31h3.84c.71,0,1.32.61,1.32,1.31-.1.71-.61,1.32-1.32,1.32Z"/><path class="cls-2" d="M3.84,50.58c-2.12,0-3.84-1.72-3.84-3.84s1.72-3.84,3.84-3.84,3.84,1.72,3.84,3.84-1.72,3.84-3.84,3.84ZM3.84,45.52c-.71,0-1.31.61-1.31,1.32s.61,1.31,1.31,1.31,1.32-.61,1.32-1.31-.61-1.32-1.32-1.32Z"/><path class="cls-2" d="M52.6,15.17c-1.72,0-3.14-1.42-3.14-3.14s1.42-3.14,3.14-3.14,3.14,1.42,3.14,3.14-1.42,3.14-3.14,3.14ZM52.6,11.43c-.3,0-.61.3-.61.61s.3.61.61.61.61-.3.61-.61c0-.41-.3-.61-.61-.61Z"/><path class="cls-2" d="M52.6,41.78c-2.43,0-4.45-2.02-4.45-4.45s2.02-4.45,4.45-4.45,4.45,2.02,4.45,4.45-2.02,4.45-4.45,4.45ZM52.6,35.41c-1.01,0-1.92.81-1.92,1.92s.81,1.92,1.92,1.92c1.01,0,1.92-.81,1.92-1.92s-.91-1.92-1.92-1.92Z"/></g></g></svg>