<?xml version="1.0" encoding="UTF-8"?><svg id="Layer_2" xmlns="http://www.w3.org/2000/svg" viewBox="0 0 56.55 53.51"><defs><style>.cls-1{fill:#c99846;}.cls-2{fill:#fff;}.cls-3{fill:#fcd99c;}</style></defs><g id="Isolation_Mode"><g id="_1022_Back_To_School_Education_Paper_Plane"><path class="cls-2" d="M52.7,33.89c1.4,0,2.53,1.13,2.53,2.53s-1.13,2.53-2.53,2.53-2.53-1.13-2.53-2.53,1.13-2.53,2.53-2.53Z"/><path class="cls-2" d="M4.65,41.48c1.4,0,2.53,1.13,2.53,2.53s-1.13,2.53-2.53,2.53-2.53-1.13-2.53-2.53,1.13-2.53,2.53-2.53Z"/><path class="cls-2" d="M14.16,4.75c1.73,0,3.14,1.4,3.14,3.14s-1.4,3.14-3.14,3.14-3.14-1.4-3.14-3.14,1.4-3.14,3.14-3.14Z"/><polygon class="cls-2" points="44.41 1.42 27.41 41.37 19.83 50.28 18.51 36.52 44.41 1.42"/><polygon class="cls-3" points="44.41 1.42 46.03 52.2 27.41 41.37 44.41 1.42"/><polygon class="cls-3" points="44.41 1.42 18.51 36.52 1.21 28.22 44.41 1.42"/><path class="cls-1" d="M53.92,16.08c.73,0,1.32.59,1.32,1.31s-.59,1.32-1.32,1.32-1.31-.59-1.31-1.32.59-1.31,1.31-1.31Z"/><path class="cls-1" d="M28.63,48.96c.73,0,1.32.59,1.32,1.32s-.59,1.32-1.32,1.32-1.31-.59-1.31-1.32.59-1.32,1.31-1.32Z"/><path class="cls-1" d="M26.1,3.44c.73,0,1.31.59,1.31,1.32s-.59,1.32-1.31,1.32-1.31-.59-1.31-1.32.59-1.32,1.31-1.32Z"/><path class="cls-1" d="M13.45,47.75c.73,0,1.32.59,1.32,1.32s-.59,1.32-1.32,1.32-1.32-.59-1.32-1.32.59-1.32,1.32-1.32Z"/><path class="cls-1" d="M4.65,16.08c.73,0,1.32.59,1.32,1.31s-.59,1.32-1.32,1.32-1.32-.59-1.32-1.32.59-1.31,1.32-1.31Z"/><path class="cls-1" d="M46.03,53.51c-.2,0-.4-.1-.61-.2l-17.7-10.32-6.88,8.09c-.3.4-.81.51-1.31.4-.51-.2-.81-.61-.91-1.11l-1.21-13.05L.71,29.23c-.4-.2-.71-.61-.71-1.11s.2-.91.61-1.11L43.8.2c.1-.1.3-.1.4-.2h.1c.3,0,.61,0,.81.2,0,0,.1,0,.1.1h0c.2.2.4.4.4.71v.3l1.62,50.78c0,.51-.2.91-.61,1.11-.2.2-.4.3-.61.3ZM27.41,40.06c.2,0,.4.1.61.2l16.69,9.71-1.42-44.91-23.47,31.87,1.01,10.32,5.67-6.68c.2-.3.51-.51.91-.51ZM3.84,28.02l14.26,6.98L39.55,5.97,3.84,28.02Z"/><path class="cls-1" d="M27.41,42.59c-.2,0-.3,0-.51-.1-.61-.3-.91-1.01-.71-1.62L43.19.91c.3-.61,1.01-.91,1.62-.71.61.3.91,1.01.71,1.62l-16.99,39.96c-.2.51-.61.81-1.11.81Z"/><path class="cls-1" d="M4.65,47.75c-2.12,0-3.84-1.72-3.84-3.84s1.72-3.84,3.84-3.84,3.84,1.72,3.84,3.84-1.72,3.84-3.84,3.84ZM4.65,42.69c-.71,0-1.32.61-1.32,1.32s.61,1.31,1.32,1.31,1.32-.61,1.32-1.31c-.1-.71-.61-1.32-1.32-1.32Z"/><path class="cls-1" d="M52.7,40.16c-2.12,0-3.84-1.72-3.84-3.84s1.72-3.84,3.84-3.84,3.84,1.72,3.84,3.84-1.72,3.84-3.84,3.84ZM52.7,35.1c-.71,0-1.32.61-1.32,1.32s.61,1.31,1.32,1.31,1.31-.61,1.31-1.31-.61-1.32-1.31-1.32Z"/><path class="cls-1" d="M14.16,12.34c-2.43,0-4.45-2.02-4.45-4.45s2.02-4.45,4.45-4.45,4.45,2.02,4.45,4.45-2.02,4.45-4.45,4.45ZM14.16,6.07c-1.01,0-1.92.81-1.92,1.92s.81,1.92,1.92,1.92,1.92-.81,1.92-1.92-.91-1.92-1.92-1.92Z"/></g></g></svg>