<?xml version="1.0" encoding="UTF-8"?><svg id="Layer_2" xmlns="http://www.w3.org/2000/svg" viewBox="0 0 58.27 54.42"><defs><style>.cls-1{fill:#498cc9;}.cls-2{fill:#fff;}.cls-3{fill:#9fccfc;}</style></defs><g id="Isolation_Mode"><g id="_1013_Back_To_School_Calculate_Education_Formula"><polygon class="cls-3" points="46.84 25.29 29.13 25.29 29.13 49.37 46.84 49.37 51.89 49.37 51.89 25.29 46.84 25.29"/><polygon class="cls-2" points="29.13 1.32 29.13 25.29 46.84 25.29 51.89 25.29 51.89 1.32 29.13 1.32"/><polygon class="cls-2" points="24.08 25.29 6.37 25.29 6.37 49.37 24.08 49.37 29.13 49.37 29.13 25.29 24.08 25.29"/><polygon class="cls-3" points="6.37 1.32 6.37 25.29 24.08 25.29 29.13 25.29 29.13 1.32 6.37 1.32"/><rect class="cls-2" x="11.43" y="31.66" width="5.06" height="5.06"/><rect class="cls-2" x="34.19" y="7.59" width="5.06" height="5.06"/><rect class="cls-2" x="11.43" y="7.59" width="5.06" height="5.06"/><rect class="cls-2" x="34.19" y="31.66" width="5.06" height="5.06"/><path class="cls-1" d="M56.95,41.68c.73,0,1.32.59,1.32,1.32s-.59,1.31-1.32,1.31-1.31-.59-1.31-1.31.59-1.32,1.31-1.32Z"/><path class="cls-1" d="M55.74,7.59c.73,0,1.32.59,1.32,1.32s-.59,1.31-1.32,1.31-1.31-.59-1.31-1.31.59-1.32,1.31-1.32Z"/><path class="cls-1" d="M46.84,3.74c.73,0,1.31.59,1.31,1.32s-.59,1.31-1.31,1.31-1.31-.59-1.31-1.31.59-1.32,1.31-1.32Z"/><path class="cls-1" d="M46.84,27.82c.73,0,1.31.59,1.31,1.31s-.59,1.32-1.31,1.32-1.31-.59-1.31-1.32.59-1.31,1.31-1.31Z"/><path class="cls-1" d="M24.08,3.74c.73,0,1.31.59,1.31,1.32s-.59,1.31-1.31,1.31-1.31-.59-1.31-1.31.59-1.32,1.31-1.32Z"/><path class="cls-1" d="M24.08,27.82c.73,0,1.31.59,1.31,1.31s-.59,1.32-1.31,1.32-1.31-.59-1.31-1.32.59-1.31,1.31-1.31Z"/><path class="cls-1" d="M15.27,51.79c.73,0,1.31.59,1.31,1.31s-.59,1.32-1.31,1.32-1.31-.59-1.31-1.32.59-1.31,1.31-1.31Z"/><path class="cls-1" d="M2.63,32.88c.73,0,1.32.59,1.32,1.31s-.59,1.32-1.32,1.32-1.31-.59-1.31-1.32.59-1.31,1.31-1.31Z"/><path class="cls-1" d="M1.31,15.17c.73,0,1.31.59,1.31,1.32s-.59,1.32-1.31,1.32-1.31-.59-1.31-1.32.59-1.32,1.31-1.32Z"/><path class="cls-1" d="M6.37,26.61c-.71,0-1.32-.61-1.32-1.32V1.32c0-.71.61-1.32,1.32-1.32h22.76c.71,0,1.31.61,1.31,1.32s-.61,1.21-1.31,1.21H7.69v22.76c0,.71-.61,1.32-1.31,1.32Z"/><path class="cls-1" d="M16.49,13.96h-5.06c-.71,0-1.31-.61-1.31-1.31v-5.06c0-.71.61-1.31,1.31-1.31h5.06c.71,0,1.31.61,1.31,1.31v5.06c0,.71-.61,1.31-1.31,1.31ZM12.75,11.43h2.53v-2.53h-2.53v2.53Z"/><path class="cls-1" d="M24.08,26.61c-.71,0-1.31-.61-1.31-1.32V8.9c0-.71.61-1.32,1.31-1.32s1.31.61,1.31,1.32v16.49c0,.61-.61,1.21-1.31,1.21Z"/><path class="cls-1" d="M51.89,26.61c-.71,0-1.31-.61-1.31-1.32V2.53h-20.23v22.76c0,.71-.61,1.32-1.31,1.32s-1.32-.61-1.32-1.32V1.32c0-.71.61-1.32,1.32-1.32h22.76c.71,0,1.31.61,1.31,1.32v24.08c.1.61-.51,1.21-1.21,1.21Z"/><path class="cls-1" d="M39.25,13.96h-5.06c-.71,0-1.31-.61-1.31-1.31v-5.06c0-.71.61-1.31,1.31-1.31h5.06c.71,0,1.31.61,1.31,1.31v5.06c0,.71-.61,1.31-1.31,1.31ZM35.51,11.43h2.53v-2.53h-2.53v2.53Z"/><path class="cls-1" d="M46.84,26.61c-.71,0-1.31-.61-1.31-1.32V8.9c0-.71.61-1.32,1.31-1.32s1.31.61,1.31,1.32v16.49c0,.61-.61,1.21-1.31,1.21Z"/><path class="cls-1" d="M29.13,50.58H6.37c-.71,0-1.32-.61-1.32-1.32v-23.97c0-.71.61-1.32,1.32-1.32h22.76c.71,0,1.31.61,1.31,1.32s-.61,1.32-1.31,1.32H7.69v21.45h21.45c.71,0,1.31.61,1.31,1.32,0,.61-.61,1.21-1.31,1.21Z"/><path class="cls-1" d="M16.49,37.93h-5.06c-.71,0-1.31-.61-1.31-1.31v-5.06c0-.71.61-1.31,1.31-1.31h5.06c.71,0,1.31.61,1.31,1.31v5.06c0,.71-.61,1.31-1.31,1.31ZM12.75,35.41h2.53v-2.53h-2.53v2.53Z"/><path class="cls-1" d="M24.08,50.58c-.71,0-1.31-.61-1.31-1.32v-16.39c0-.71.61-1.32,1.31-1.32s1.31.61,1.31,1.32v16.49c0,.61-.61,1.21-1.31,1.21Z"/><path class="cls-1" d="M51.89,50.58h-22.76c-.71,0-1.32-.61-1.32-1.32v-23.97c0-.71.61-1.32,1.32-1.32h22.76c.71,0,1.31.61,1.31,1.32v24.08c0,.61-.61,1.21-1.31,1.21ZM30.45,48.05h20.23v-21.45h-20.23v21.45Z"/><path class="cls-1" d="M39.25,37.93h-5.06c-.71,0-1.31-.61-1.31-1.31v-5.06c0-.71.61-1.31,1.31-1.31h5.06c.71,0,1.31.61,1.31,1.31v5.06c0,.71-.61,1.31-1.31,1.31ZM35.51,35.41h2.53v-2.53h-2.53v2.53Z"/><path class="cls-1" d="M46.84,50.58c-.71,0-1.31-.61-1.31-1.32v-16.39c0-.71.61-1.32,1.31-1.32s1.31.61,1.31,1.32v16.49c0,.61-.61,1.21-1.31,1.21Z"/><path class="cls-1" d="M13.96,42.99h-2.53c-.71,0-1.31-.61-1.31-1.32s.61-1.32,1.31-1.32h2.53c.71,0,1.31.61,1.31,1.32s-.61,1.32-1.31,1.32Z"/><path class="cls-1" d="M36.72,42.99h-2.53c-.71,0-1.31-.61-1.31-1.32s.61-1.32,1.31-1.32h2.53c.71,0,1.31.61,1.31,1.32s-.61,1.32-1.31,1.32Z"/><path class="cls-1" d="M13.96,19.02h-2.53c-.71,0-1.31-.61-1.31-1.32s.61-1.32,1.31-1.32h2.53c.71,0,1.31.61,1.31,1.32s-.61,1.32-1.31,1.32Z"/><path class="cls-1" d="M36.72,19.02h-2.53c-.71,0-1.31-.61-1.31-1.32s.61-1.32,1.31-1.32h2.53c.71,0,1.31.61,1.31,1.32s-.61,1.32-1.31,1.32Z"/></g></g></svg>