<?xml version="1.0" encoding="UTF-8"?><svg id="Layer_2" xmlns="http://www.w3.org/2000/svg" viewBox="0 0 58.17 54.4"><defs><style>.cls-1{fill:#3c81c9;}.cls-2{fill:#fff;}.cls-3{fill:#90c2fc;}</style></defs><g id="Isolation_Mode"><g id="_1003_Back_To_School_Drawing_Education_Highlighter_Marker"><path class="cls-2" d="M45.42,12.42c1.72,1.21,2.23,3.54,1.01,5.26l-11.43,16.69,1.01.71c.71.51,1.11,1.31,1.11,2.12,0,.51-.1,1.01-.4,1.42-.51.71-1.32,1.11-2.12,1.11-.51,0-1.01-.1-1.42-.4-2.33-1.62-2.93-4.75-1.32-6.98l7.79-11.53,5.77-8.4Z"/><path class="cls-2" d="M52.5,34.17c2.46,0,4.45,1.99,4.45,4.45s-1.99,4.45-4.45,4.45-4.45-1.99-4.45-4.45,1.99-4.45,4.45-4.45Z"/><path class="cls-2" d="M19.02,5.03c1.4,0,2.53,1.13,2.53,2.53s-1.13,2.53-2.53,2.53-2.53-1.13-2.53-2.53,1.13-2.53,2.53-2.53Z"/><path class="cls-2" d="M4.45,24.05c1.73,0,3.14,1.4,3.14,3.14s-1.4,3.14-3.14,3.14-3.14-1.4-3.14-3.14,1.4-3.14,3.14-3.14Z"/><path class="cls-3" d="M25.19,35.38l3.14,2.12-7.08,10.42c-1.11-.81-2.73-.51-3.54.71l-.71,1.01-1.52-1.11-3.24-2.12-1.52-1.01.71-1.01c.3-.4.4-.91.4-1.42,0-.81-.4-1.62-1.11-2.12l7.08-10.42,7.38,4.96Z"/><polygon class="cls-2" points="25.19 35.38 17.91 30.42 29.23 13.63 39.76 20.81 31.87 32.24 28.32 37.5 25.19 35.38"/><polygon class="cls-2" points="15.38 48.63 13.25 51.77 8.7 51.67 12.24 46.41 15.38 48.63"/><path class="cls-3" d="M43.7,3.62c2.93,1.92,3.64,5.87,1.62,8.8l-5.67,8.4-10.42-7.08,5.66-8.4c2.02-2.93,5.97-3.64,8.8-1.72Z"/><path class="cls-1" d="M55.74,51.87c.67,0,1.21.54,1.21,1.21s-.54,1.21-1.21,1.21-1.21-.54-1.21-1.21.54-1.21,1.21-1.21Z"/><path class="cls-1" d="M53.21,22.84c.67,0,1.21.54,1.21,1.21s-.54,1.21-1.21,1.21-1.21-.54-1.21-1.21.54-1.21,1.21-1.21Z"/><path class="cls-1" d="M41.78,43.07c.67,0,1.21.54,1.21,1.21s-.54,1.21-1.21,1.21-1.21-.54-1.21-1.21.54-1.21,1.21-1.21Z"/><path class="cls-1" d="M28.73.38c.51.51.51,1.32,0,1.82-.51.51-1.31.51-1.82,0-.51-.51-.51-1.32,0-1.82.61-.51,1.31-.51,1.82,0Z"/><path class="cls-1" d="M6.37,11.41c.67,0,1.21.54,1.21,1.21s-.54,1.21-1.21,1.21-1.21-.54-1.21-1.21.54-1.21,1.21-1.21Z"/><path class="cls-1" d="M3.84,40.54c.67,0,1.21.54,1.21,1.21s-.54,1.21-1.21,1.21-1.21-.54-1.21-1.21.54-1.21,1.21-1.21Z"/><path class="cls-1" d="M13.25,52.98h-4.55c-.51,0-.91-.3-1.11-.71-.2-.4-.2-.91.1-1.32l3.54-5.26c.4-.61,1.21-.71,1.72-.3.61.4.71,1.21.3,1.72l-2.12,3.34h1.52l1.72-2.53c.4-.61,1.21-.71,1.72-.3.61.4.71,1.21.3,1.72l-2.02,3.14c-.3.3-.71.51-1.11.51Z"/><path class="cls-1" d="M16.99,50.96c-.2,0-.51-.1-.71-.2l-6.27-4.35c-.3-.2-.51-.51-.51-.81-.1-.3,0-.71.2-.91l.71-1.01c.1-.2.2-.51.2-.71,0-.4-.2-.81-.51-1.01-.61-.4-.71-1.21-.3-1.72L33.99,4.73c1.11-1.72,2.83-2.83,4.86-3.14,2.02-.4,4.05,0,5.67,1.21,3.44,2.33,4.35,7.08,2.02,10.52-.4.61-1.21.71-1.72.3-.61-.4-.71-1.21-.3-1.72,1.62-2.33,1.01-5.46-1.31-6.98-1.11-.81-2.43-1.01-3.74-.81-1.32.2-2.43,1.01-3.24,2.12L12.34,40.64c.51.61.71,1.42.71,2.23s-.2,1.52-.71,2.12h0l4.15,2.83c.91-1.32,2.63-1.92,4.15-1.52l10.12-14.77c.4-.61,1.21-.71,1.72-.3.61.4.71,1.21.3,1.72l-10.52,15.68c-.2.3-.51.51-.81.51s-.71,0-.91-.2c-.3-.2-.61-.3-.91-.2-.3.1-.61.2-.81.51l-.71,1.01c-.3.51-.71.71-1.11.71Z"/><path class="cls-1" d="M28.32,38.72c-.2,0-.51-.1-.71-.2l-10.42-7.08c-.61-.4-.71-1.21-.3-1.72.4-.51,1.21-.71,1.72-.3l10.42,7.08c.61.4.71,1.21.3,1.72-.2.3-.61.51-1.01.51Z"/><path class="cls-1" d="M39.76,22.03c-.2,0-.51-.1-.71-.2l-10.42-7.08c-.61-.4-.71-1.21-.3-1.72.4-.61,1.21-.71,1.72-.3l10.42,7.08c.61.4.71,1.21.3,1.72-.3.3-.61.51-1.01.51Z"/><path class="cls-1" d="M22.36,40.84c-.2,0-.51-.1-.71-.2-.61-.4-.71-1.21-.3-1.72l11.33-16.79c.4-.61,1.21-.71,1.72-.3.61.4.71,1.21.3,1.72l-11.33,16.69c-.2.4-.61.61-1.01.61Z"/><path class="cls-1" d="M34.6,41.05c-.81,0-1.52-.2-2.12-.71-1.42-.91-2.33-2.43-2.63-4.05-.3-1.62,0-3.34,1.01-4.75l13.56-19.83c.2-.3.51-.51.81-.51.3-.1.71,0,.91.2,2.33,1.62,2.93,4.75,1.31,6.98l-10.72,15.68c1.01.71,1.62,1.92,1.62,3.14,0,.81-.2,1.52-.71,2.12-.61,1.01-1.72,1.72-3.03,1.72ZM45.52,14.44l-12.64,18.51c-.61.81-.81,1.82-.61,2.83.2,1.01.71,1.82,1.62,2.43.2.1.51.2.71.2.4,0,.81-.2,1.01-.51.1-.2.2-.51.2-.71,0-.4-.2-.81-.51-1.01l-1.01-.71c-.61-.4-.71-1.21-.3-1.72l11.33-16.79c.61-.81.61-1.72.2-2.53Z"/><path class="cls-1" d="M51.89,54.4h-29.03c-.71,0-1.31-.61-1.31-1.31s.61-1.32,1.31-1.32h29.13c.71,0,1.31.61,1.31,1.32-.1.71-.71,1.31-1.42,1.31Z"/><path class="cls-1" d="M4.45,31.64c-2.43,0-4.45-2.02-4.45-4.45s2.02-4.45,4.45-4.45,4.45,2.02,4.45,4.45-2.02,4.45-4.45,4.45ZM4.45,25.26c-1.01,0-1.92.81-1.92,1.92,0,1.01.81,1.92,1.92,1.92s1.92-.81,1.92-1.92c0-1.01-.81-1.92-1.92-1.92Z"/><path class="cls-1" d="M19.02,11.41c-2.12,0-3.84-1.72-3.84-3.84s1.72-3.84,3.84-3.84,3.84,1.72,3.84,3.84-1.72,3.84-3.84,3.84ZM19.02,6.35c-.71,0-1.32.61-1.32,1.31s.61,1.32,1.32,1.32,1.31-.61,1.31-1.32c0-.81-.61-1.31-1.31-1.31Z"/><path class="cls-1" d="M52.5,44.28c-3.14,0-5.66-2.53-5.66-5.67s2.53-5.66,5.66-5.66,5.66,2.53,5.66,5.66c.1,3.14-2.53,5.67-5.66,5.67ZM52.5,35.38c-1.72,0-3.14,1.42-3.14,3.14s1.42,3.14,3.14,3.14,3.14-1.42,3.14-3.14-1.42-3.14-3.14-3.14Z"/></g></g></svg>