<?xml version="1.0" encoding="UTF-8"?><svg id="Layer_2" xmlns="http://www.w3.org/2000/svg" viewBox="0 0 60.7 56.8"><defs><style>.cls-1{fill:#4a85c9;}.cls-2{fill:#91c0fc;}.cls-3{fill:#fff;}</style></defs><g id="Isolation_Mode"><g id="_1019_Book_Education_School_Apple"><path class="cls-3" d="M13.96,42.94v12.65h-3.84c-1.42,0-2.53-1.11-2.53-2.53v-7.69c0-1.42,1.11-2.53,2.53-2.53h3.84v.1Z"/><polygon class="cls-3" points="19.02 42.94 19.02 55.58 13.96 55.58 13.96 42.94 16.49 42.94 19.02 42.94"/><path class="cls-3" d="M59.48,45.37v7.69c0,1.42-1.11,2.53-2.53,2.53h-5.06v-12.65h5.06c1.42,0,2.53,1.11,2.53,2.43Z"/><polygon class="cls-3" points="51.89 42.94 51.89 55.58 19.02 55.58 19.02 42.94 41.78 42.94 46.84 42.94 50.58 42.94 51.89 42.94"/><path class="cls-3" d="M59.48,20.08v7.69c0,1.42-1.11,2.53-2.53,2.53h-5.06v-12.64h5.06c1.42,0,2.53,1.11,2.53,2.43Z"/><path class="cls-3" d="M53.72,2.48c1.73,0,3.14,1.4,3.14,3.14s-1.4,3.14-3.14,3.14-3.14-1.4-3.14-3.14,1.4-3.14,3.14-3.14Z"/><path class="cls-2" d="M53.11,32.72v7.69c0,1.42-1.11,2.53-2.53,2.53h-3.84v-12.64h3.84c1.42,0,2.53,1.11,2.53,2.43Z"/><polygon class="cls-3" points="51.89 17.65 51.89 30.29 50.58 30.29 46.84 30.29 41.78 30.29 19.02 30.29 19.02 17.65 30.35 17.65 33.99 17.65 51.89 17.65"/><path class="cls-1" d="M46.84,9.96c.73,0,1.31.59,1.31,1.31s-.59,1.31-1.31,1.31-1.32-.59-1.32-1.31.59-1.31,1.32-1.31Z"/><rect class="cls-2" x="41.78" y="30.29" width="5.06" height="12.64"/><path class="cls-1" d="M41.78,1.16c.73,0,1.31.59,1.31,1.31s-.59,1.31-1.31,1.31-1.31-.59-1.31-1.31.59-1.31,1.31-1.31Z"/><polygon class="cls-2" points="41.78 30.29 41.78 42.94 19.02 42.94 16.49 42.94 16.49 30.29 19.02 30.29 41.78 30.29"/><path class="cls-2" d="M35.51,4.7c7.18,0,2.43,12.95-1.52,12.95-.3,0-.71-.1-1.11-.2-.51-.1-.91-.1-1.42,0-.4.1-.81.2-1.11.2-3.94,0-8.7-12.95-1.52-12.95,1.42,0,2.73.81,3.34,2.02.61-1.21,1.92-2.02,3.34-2.02Z"/><path class="cls-1" d="M19.02,11.28c.73,0,1.31.59,1.31,1.31s-.59,1.32-1.31,1.32-1.31-.59-1.31-1.32.59-1.31,1.31-1.31Z"/><polygon class="cls-3" points="19.02 17.65 19.02 30.29 16.49 30.29 13.96 30.29 13.96 17.65 19.02 17.65"/><path class="cls-2" d="M16.49,30.29v12.64H3.74c-1.42,0-2.53-1.11-2.53-2.53v-7.69c0-1.42,1.11-2.53,2.53-2.53h12.75v.1Z"/><path class="cls-1" d="M15.17,2.37c.73,0,1.32.59,1.32,1.31s-.59,1.31-1.32,1.31-1.31-.59-1.31-1.31.59-1.31,1.31-1.31Z"/><path class="cls-3" d="M13.96,17.65v12.64h-3.84c-1.42,0-2.53-1.11-2.53-2.53v-7.69c0-1.42,1.11-2.53,2.53-2.53h3.84v.1Z"/><path class="cls-3" d="M7.59,7.53c1.4,0,2.53,1.13,2.53,2.53s-1.13,2.53-2.53,2.53-2.53-1.13-2.53-2.53,1.13-2.53,2.53-2.53Z"/><path class="cls-1" d="M56.95,56.8H19.02c-.71,0-1.31-.61-1.31-1.31s.61-1.32,1.31-1.32h37.93c.71,0,1.21-.51,1.21-1.21v-7.69c0-.71-.51-1.21-1.21-1.21h-6.37c-.71,0-1.31-.61-1.31-1.32s.61-1.31,1.31-1.31h6.37c2.02,0,3.74,1.72,3.74,3.74v7.69c0,2.33-1.72,3.95-3.74,3.95Z"/><path class="cls-1" d="M13.96,56.8h-3.84c-2.02,0-3.74-1.72-3.74-3.74v-7.69c0-2.02,1.72-3.74,3.74-3.74.71,0,1.31.61,1.31,1.31s-.61,1.32-1.31,1.32-1.21.51-1.21,1.21v7.69c0,.71.51,1.21,1.21,1.21h3.84c.71,0,1.32.61,1.32,1.31-.1.61-.71,1.11-1.32,1.11Z"/><path class="cls-1" d="M19.02,56.8h-5.06c-.71,0-1.31-.61-1.31-1.31v-12.54c0-.71.61-1.31,1.31-1.31s1.32.61,1.32,1.31v11.43h2.53v-11.43c0-.71.61-1.31,1.31-1.31s1.31.61,1.31,1.31v12.65c-.2.71-.81,1.21-1.42,1.21Z"/><path class="cls-1" d="M51.89,56.8c-.71,0-1.31-.61-1.31-1.31v-12.54c0-.71.61-1.31,1.31-1.31s1.32.61,1.32,1.31v12.65c-.1.71-.71,1.21-1.32,1.21Z"/><path class="cls-1" d="M21.55,40.41c-.71,0-1.31-.61-1.31-1.32v-5.06c0-.71.61-1.31,1.31-1.31s1.32.61,1.32,1.31v5.06c-.1.71-.71,1.32-1.32,1.32Z"/><path class="cls-1" d="M25.29,40.41c-.71,0-1.32-.61-1.32-1.32v-5.06c0-.71.61-1.31,1.32-1.31s1.31.61,1.31,1.31v5.06c0,.71-.61,1.32-1.31,1.32Z"/><path class="cls-1" d="M29.13,40.41c-.71,0-1.31-.61-1.31-1.32v-5.06c0-.71.61-1.31,1.31-1.31s1.32.61,1.32,1.31v5.06c-.1.71-.71,1.32-1.32,1.32Z"/><path class="cls-1" d="M56.95,31.51h-6.37c-.71,0-1.31-.61-1.31-1.32s.61-1.32,1.31-1.32h6.37c.71,0,1.21-.51,1.21-1.21v-7.69c0-.71-.51-1.21-1.21-1.21H19.02c-.71,0-1.31-.61-1.31-1.31s.61-1.32,1.31-1.32h37.93c2.02,0,3.74,1.72,3.74,3.74v7.69c0,2.33-1.72,3.95-3.74,3.95Z"/><path class="cls-1" d="M10.12,31.51c-2.02,0-3.74-1.72-3.74-3.74v-7.69c0-2.02,1.72-3.74,3.74-3.74h3.84c.71,0,1.32.61,1.32,1.31s-.61,1.31-1.32,1.31h-3.84c-.71,0-1.21.51-1.21,1.21v7.69c0,.71.51,1.21,1.21,1.21s1.31.61,1.31,1.32-.71,1.11-1.31,1.11Z"/><path class="cls-1" d="M19.02,31.51c-.71,0-1.31-.61-1.31-1.32v-11.33h-2.53v11.43c0,.71-.61,1.31-1.31,1.31s-1.31-.61-1.31-1.31v-12.64c0-.71.61-1.31,1.31-1.31h5.06c.71,0,1.31.61,1.31,1.31v12.64c0,.71-.61,1.21-1.21,1.21Z"/><path class="cls-1" d="M51.89,31.51c-.71,0-1.31-.61-1.31-1.32v-12.54c0-.71.61-1.31,1.31-1.31s1.32.61,1.32,1.31v12.64c-.1.71-.71,1.21-1.32,1.21Z"/><path class="cls-1" d="M41.78,44.15H3.74c-2.02,0-3.74-1.72-3.74-3.74v-7.69c0-2.02,1.72-3.74,3.74-3.74h37.93c.71,0,1.31.61,1.31,1.32s-.61,1.31-1.31,1.31H3.74c-.71,0-1.21.51-1.21,1.21v7.69c0,.71.51,1.21,1.21,1.21h37.93c.71,0,1.31.61,1.31,1.32,0,.61-.61,1.11-1.21,1.11Z"/><path class="cls-1" d="M50.58,44.15h-3.84c-.71,0-1.32-.61-1.32-1.31s.61-1.31,1.32-1.31h3.84c.71,0,1.21-.51,1.21-1.21v-7.69c0-.71-.51-1.21-1.21-1.21h-3.84c-.71,0-1.32-.61-1.32-1.32s.61-1.31,1.32-1.31h3.84c2.02,0,3.74,1.72,3.74,3.74v7.69c.1,2.33-1.62,3.94-3.74,3.94Z"/><path class="cls-1" d="M46.84,44.15h-5.06c-.71,0-1.31-.61-1.31-1.31v-12.54c0-.71.61-1.32,1.31-1.32h5.06c.71,0,1.31.61,1.31,1.32v12.64c-.1.71-.71,1.21-1.31,1.21ZM42.99,41.62h2.53v-10.12h-2.53v10.12Z"/><path class="cls-1" d="M16.49,44.15c-.71,0-1.32-.61-1.32-1.31v-12.54c0-.71.61-1.32,1.32-1.32s1.31.61,1.31,1.32v12.64c-.1.71-.71,1.21-1.31,1.21Z"/><path class="cls-1" d="M33.99,18.86c-.4,0-.81-.1-1.42-.2-.2-.1-.51-.1-.71,0-.61.2-1.11.2-1.42.2-3.54,0-6.47-6.07-6.47-10.12,0-1.52.4-2.73,1.11-3.74.61-.81,1.72-1.72,3.84-1.72,1.21,0,2.43.51,3.34,1.21.91-.81,2.12-1.21,3.34-1.21,2.12,0,3.24.91,3.84,1.72.71.91,1.11,2.23,1.11,3.74-.1,4.05-3.03,10.12-6.58,10.12ZM32.17,16.03c.3,0,.71,0,1.01.1.51.2.81.2.81.2.51,0,1.52-.71,2.43-2.33.91-1.62,1.52-3.64,1.52-5.26,0-.91-.2-1.62-.61-2.12-.4-.51-1.01-.71-1.82-.71-.91,0-1.82.51-2.23,1.31-.2.4-.61.71-1.11.71s-.91-.3-1.11-.71c-.4-.81-1.32-1.31-2.23-1.31s-1.52.2-1.82.71c-.4.51-.61,1.21-.61,2.12,0,1.62.61,3.54,1.52,5.26.91,1.62,1.92,2.33,2.43,2.33.1,0,.3,0,.81-.2.3,0,.61-.1,1.01-.1Z"/><path class="cls-1" d="M32.17,7.94c-.61,0-1.21-.51-1.21-1.11-.1-1.11-.4-4.86.81-6.37.4-.51,1.21-.61,1.82-.2.51.4.61,1.21.2,1.82-.4.4-.51,2.63-.3,4.55.1.71-.4,1.31-1.11,1.42-.1-.1-.2-.1-.2-.1Z"/><path class="cls-1" d="M7.59,13.8c-2.12,0-3.84-1.72-3.84-3.84s1.72-3.84,3.84-3.84,3.84,1.72,3.84,3.84-1.72,3.84-3.84,3.84ZM7.59,8.75c-.71,0-1.31.61-1.31,1.31s.61,1.31,1.31,1.31,1.32-.61,1.32-1.31-.61-1.31-1.32-1.31Z"/><path class="cls-1" d="M53.72,10.06c-2.43,0-4.45-2.02-4.45-4.45s2.02-4.45,4.45-4.45,4.45,2.02,4.45,4.45-2.02,4.45-4.45,4.45ZM53.72,3.69c-1.01,0-1.92.81-1.92,1.92s.81,1.92,1.92,1.92c1.01,0,1.92-.81,1.92-1.92s-.81-1.92-1.92-1.92Z"/></g></g></svg>