<?xml version="1.0" encoding="UTF-8"?><svg id="Layer_2" xmlns="http://www.w3.org/2000/svg" viewBox="0 0 58.34 58.27"><defs><style>.cls-1{fill:#a7c7fc;}.cls-2{fill:#4d80c9;}.cls-3{fill:#fff;}</style></defs><g id="Isolation_Mode"><g id="_1015_Diploma_Education_School_Study"><rect class="cls-1" x="7.66" y="16.49" width="42.99" height="25.29"/><path class="cls-3" d="M32.95,1.31c1.4,0,2.53,1.13,2.53,2.53s-1.13,2.53-2.53,2.53-2.53-1.13-2.53-2.53,1.13-2.53,2.53-2.53Z"/><path class="cls-3" d="M12.01,53.11c1.06,0,1.92.86,1.92,1.92s-.86,1.92-1.92,1.92-1.92-.86-1.92-1.92.86-1.92,1.92-1.92Z"/><path class="cls-3" d="M36.7,47.55c.81.3,1.62.51,2.53.51s1.72-.2,2.53-.51v6.88l-2.53-2.53-2.53,2.53v-6.88Z"/><path class="cls-3" d="M39.22,35.51c3.54,0,6.37,2.83,6.37,6.37,0,2.63-1.52,4.86-3.84,5.77-.81.3-1.62.51-2.53.51s-1.72-.2-2.53-.51c-2.23-1.01-3.84-3.24-3.84-5.77.1-3.64,2.83-6.37,6.37-6.37Z"/><polygon class="cls-3" points="56.93 10.22 56.93 48.15 50.66 41.78 50.66 16.49 56.93 10.22"/><polygon class="cls-3" points="7.66 16.49 7.66 41.78 1.29 48.15 1.29 10.22 7.66 16.49"/><path class="cls-3" d="M41.75,47.55c2.23-1.01,3.84-3.24,3.84-5.77h5.06l6.37,6.37h-15.17v-.61h-.1Z"/><path class="cls-3" d="M32.95,41.78c0,2.63,1.52,4.86,3.84,5.77v.51H1.39l6.37-6.37h25.19v.1Z"/><polygon class="cls-3" points="56.93 10.22 50.66 16.49 7.66 16.49 1.29 10.22 56.93 10.22"/><path class="cls-2" d="M50.66,53.11c.73,0,1.32.59,1.32,1.32s-.59,1.31-1.32,1.31-1.31-.59-1.31-1.31.59-1.32,1.31-1.32Z"/><path class="cls-2" d="M43.07,3.84c.73,0,1.31.59,1.31,1.31s-.59,1.32-1.31,1.32-1.31-.59-1.31-1.32.59-1.31,1.31-1.31Z"/><path class="cls-2" d="M26.58,21.55c.73,0,1.31.59,1.31,1.32s-.59,1.31-1.31,1.31-1.31-.59-1.31-1.31.59-1.32,1.31-1.32Z"/><path class="cls-2" d="M21.52,50.58c.73,0,1.32.59,1.32,1.32s-.59,1.32-1.32,1.32-1.31-.59-1.31-1.32.59-1.32,1.31-1.32Z"/><path class="cls-2" d="M12.72,1.31c.73,0,1.32.59,1.32,1.31s-.59,1.32-1.32,1.32-1.31-.59-1.31-1.32.59-1.31,1.31-1.31Z"/><path class="cls-2" d="M50.66,17.8c-.3,0-.61-.1-.91-.4-.51-.51-.51-1.32,0-1.82l6.37-6.37c.51-.51,1.31-.51,1.82,0,.51.51.51,1.32,0,1.82l-6.37,6.37c-.3.2-.61.4-.91.4Z"/><path class="cls-2" d="M56.93,49.37c-.3,0-.61-.1-.91-.4l-6.37-6.37c-.51-.51-.51-1.32,0-1.82.51-.5,1.31-.5,1.82,0l6.37,6.37c.51.51.51,1.32,0,1.82-.3.3-.61.4-.91.4Z"/><path class="cls-2" d="M1.29,49.37c-.3,0-.61-.1-.91-.4-.51-.51-.51-1.32,0-1.82l6.37-6.37c.51-.5,1.31-.5,1.82,0,.51.51.51,1.32,0,1.82l-6.37,6.37c-.3.3-.61.4-.91.4Z"/><path class="cls-2" d="M7.66,17.8c-.3,0-.61-.1-.91-.4L.38,11.03c-.51-.51-.51-1.32,0-1.82s1.31-.51,1.82,0l6.37,6.37c.51.51.51,1.32,0,1.82-.3.2-.61.4-.91.4Z"/><path class="cls-2" d="M56.93,49.37h-15.17c-.71,0-1.31-.61-1.31-1.31s.61-1.32,1.31-1.32h13.96V11.33H2.6v35.41h34.19c.71,0,1.32.61,1.32,1.32s-.61,1.31-1.32,1.31H1.39c-.71,0-1.32-.61-1.32-1.31V10.22c0-.71.61-1.31,1.32-1.31h55.64c.71,0,1.32.61,1.32,1.31v37.93c-.1.61-.71,1.21-1.42,1.21Z"/><path class="cls-2" d="M50.66,43.09h-5.06c-.71,0-1.32-.61-1.32-1.32s.61-1.31,1.32-1.31h3.74v-22.66H8.88v22.76h24.08c.71,0,1.31.61,1.31,1.32s-.61,1.32-1.31,1.32H7.66c-.71,0-1.32-.61-1.32-1.32v-25.29c0-.71.61-1.31,1.32-1.31h42.99c.71,0,1.32.61,1.32,1.31v25.29c-.1.61-.71,1.21-1.32,1.21Z"/><path class="cls-2" d="M41.75,55.74c-.3,0-.61-.1-.91-.4l-1.62-1.62-1.62,1.62c-.4.4-.91.51-1.42.3-.51-.2-.81-.61-.81-1.21v-6.88c0-.71.61-1.32,1.31-1.32s1.32.61,1.32,1.32v3.84l.4-.4c.51-.51,1.32-.51,1.82,0l.4.4v-3.84c0-.71.61-1.32,1.31-1.32s1.32.61,1.32,1.32v6.88c0,.51-.3,1.01-.81,1.21-.4,0-.51.1-.71.1Z"/><path class="cls-2" d="M39.22,49.37c-1.01,0-2.12-.2-3.03-.61-2.73-1.21-4.55-3.95-4.55-6.98,0-4.15,3.44-7.59,7.59-7.59s7.59,3.44,7.59,7.59c0,3.04-1.82,5.77-4.55,6.98-.91.4-2.02.61-3.03.61ZM39.22,36.72c-2.83,0-5.06,2.23-5.06,5.06,0,2.02,1.21,3.84,3.03,4.65.61.3,1.31.41,2.02.41s1.42-.1,2.02-.41c1.82-.81,3.03-2.63,3.03-4.65,0-2.83-2.23-5.06-5.06-5.06Z"/><path class="cls-2" d="M22.84,24.08h-10.12c-.71,0-1.31-.61-1.31-1.32s.61-1.32,1.31-1.32h10.12c.71,0,1.31.61,1.31,1.32-.1.71-.71,1.32-1.31,1.32Z"/><path class="cls-2" d="M36.7,27.92H12.72c-.71,0-1.31-.61-1.31-1.32s.61-1.31,1.31-1.31h24.08c.71,0,1.32.61,1.32,1.31-.1.71-.71,1.32-1.42,1.32Z"/><path class="cls-2" d="M36.7,31.66H12.72c-.71,0-1.31-.61-1.31-1.32s.61-1.32,1.31-1.32h24.08c.71,0,1.32.61,1.32,1.32s-.71,1.32-1.42,1.32Z"/><path class="cls-2" d="M29.11,35.51H12.72c-.71,0-1.31-.61-1.31-1.32s.61-1.31,1.31-1.31h16.39c.71,0,1.32.61,1.32,1.31s-.61,1.32-1.32,1.32Z"/><path class="cls-2" d="M12.01,58.27c-1.72,0-3.14-1.42-3.14-3.14s1.42-3.14,3.14-3.14,3.14,1.42,3.14,3.14c.1,1.62-1.42,3.14-3.14,3.14ZM12.01,54.42c-.3,0-.61.3-.61.61s.3.61.61.61.61-.3.61-.61c.1-.3-.2-.61-.61-.61Z"/><path class="cls-2" d="M32.95,7.69c-2.12,0-3.84-1.72-3.84-3.84s1.72-3.84,3.84-3.84,3.84,1.72,3.84,3.84-1.82,3.84-3.84,3.84ZM32.95,2.63c-.71,0-1.31.61-1.31,1.32s.61,1.32,1.31,1.32,1.21-.71,1.21-1.42-.61-1.21-1.21-1.21Z"/></g></g></svg>