<?xml version="1.0" encoding="UTF-8"?><svg id="Layer_2" xmlns="http://www.w3.org/2000/svg" viewBox="0 0 57.51 54.52"><defs><style>.cls-1{fill:#a7c7fc;}.cls-2{fill:#4d80c9;}.cls-3{fill:#fff;}</style></defs><g id="Isolation_Mode"><g id="_1012_Astronomy_School_Telescope"><path class="cls-3" d="M38.49,48.15c1.42,0,2.53,1.11,2.53,2.53,0,.71-.3,1.31-.71,1.82-.51.51-1.11.71-1.82.71H13.2c-1.42,0-2.53-1.11-2.53-2.53,0-.71.3-1.32.71-1.82.51-.51,1.11-.71,1.82-.71h25.29Z"/><path class="cls-3" d="M10.67,1.42c1.4,0,2.53,1.13,2.53,2.53s-1.13,2.53-2.53,2.53-2.53-1.13-2.53-2.53,1.13-2.53,2.53-2.53Z"/><path class="cls-3" d="M49.32,31.76c1.73,0,3.14,1.4,3.14,3.14s-1.4,3.14-3.14,3.14-3.14-1.4-3.14-3.14,1.4-3.14,3.14-3.14Z"/><path class="cls-3" d="M6.93,38.04c1.4,0,2.53,1.13,2.53,2.53s-1.13,2.53-2.53,2.53-2.53-1.13-2.53-2.53,1.13-2.53,2.53-2.53Z"/><path class="cls-3" d="M29.49,27.92c.1.4.2.81.2,1.31,0,2.12-1.72,3.84-3.84,3.84-1.82,0-3.34-1.32-3.74-3.04-.1-.2-.1-.51-.1-.81,0-2.12,1.72-3.84,3.84-3.84,1.72,0,3.14,1.11,3.64,2.53Z"/><path class="cls-3" d="M26.35,13.05l.3,1.21-7.28,2.02-.3-1.21c-.61-2.02.61-4.15,2.63-4.65.3-.1.71-.1,1.01-.1,1.72,0,3.24,1.01,3.64,2.73Z"/><path class="cls-3" d="M48.31,10.92c2.33-.61,4.75.71,5.36,3.04.1.4.2.81.2,1.21,0,1.92-1.32,3.64-3.24,4.25l-1.42.4-2.33-8.4,1.42-.51Z"/><polygon class="cls-3" points="4.91 25.59 5.92 29.23 2.28 30.25 1.27 26.6 4.91 25.59"/><polygon class="cls-1" points="12.8 20.74 15.12 29.34 6.63 31.66 5.92 29.23 5.92 29.23 4.91 25.59 4.3 23.17 12.8 20.74"/><path class="cls-1" d="M46.89,11.33l2.33,8.4.71,2.53c.61,2.02-.61,4.15-2.63,4.65h0c-2.02.61-4.15-.61-4.65-2.63l-3.74-13.35c-.61-2.02.61-4.15,2.63-4.65.3-.1.71-.1,1.01-.1,1.62,0,3.14,1.11,3.64,2.73l.71,2.43Z"/><path class="cls-1" d="M38.9,10.82l-12.14,3.44-7.28,2.02-7.28,2.02.71,2.43,2.43,8.5.71,2.43,6.37-1.72c-.1-.2-.1-.51-.1-.81,0-2.12,1.72-3.84,3.84-3.84,1.62,0,3.04,1.01,3.54,2.53l13.15-3.64-3.95-13.35Z"/><path class="cls-2" d="M56.19,41.78c.73,0,1.32.59,1.32,1.32s-.59,1.31-1.32,1.31-1.31-.59-1.31-1.31.59-1.32,1.31-1.32Z"/><path class="cls-2" d="M37.28,36.72c.73,0,1.31.59,1.31,1.31s-.59,1.32-1.31,1.32-1.32-.59-1.32-1.32.59-1.31,1.32-1.31Z"/><path class="cls-2" d="M32.22,16.49c.73,0,1.31.59,1.31,1.32s-.59,1.32-1.31,1.32-1.31-.59-1.31-1.32.59-1.32,1.31-1.32Z"/><path class="cls-2" d="M29.69,2.63c.73,0,1.31.59,1.31,1.32s-.59,1.31-1.31,1.31-1.32-.59-1.32-1.31.59-1.32,1.32-1.32Z"/><path class="cls-2" d="M5.62,11.43c.73,0,1.31.59,1.31,1.32s-.59,1.31-1.31,1.31-1.31-.59-1.31-1.31.59-1.32,1.31-1.32Z"/><path class="cls-2" d="M4.4,46.84c.73,0,1.31.59,1.31,1.32s-.59,1.32-1.31,1.32-1.31-.59-1.31-1.32.59-1.32,1.31-1.32Z"/><path class="cls-2" d="M6.63,32.98c-.51,0-1.01-.4-1.21-.91l-2.43-8.5c-.1-.3,0-.71.1-.91.1-.2.4-.51.81-.61l8.5-2.43c.71-.2,1.42.2,1.52.91.2.71-.2,1.42-.91,1.52l-7.28,2.02,1.72,6.07,7.28-2.02c.71-.2,1.42.2,1.52.91.2.71-.2,1.42-.91,1.52l-8.5,2.43h-.2Z"/><path class="cls-2" d="M2.28,31.56c-.2,0-.4-.1-.61-.2-.3-.2-.51-.41-.61-.81L.05,26.91c-.2-.71.2-1.42.91-1.52l3.64-1.01c.71-.2,1.42.2,1.52.91l1.01,3.64c.1.4,0,.81-.2,1.11-.2.2-.4.4-.71.51l-3.64,1.01h-.3ZM2.88,27.51l.3,1.21,1.21-.3-.3-1.32-1.21.4Z"/><path class="cls-2" d="M46.89,12.54c-.5,0-1.01-.41-1.21-.91l-.71-2.53c-.3-1.11-1.31-1.82-2.43-1.82-.2,0-.51,0-.71.1-.61.2-1.21.61-1.52,1.21-.3.61-.4,1.31-.2,1.92.2.71-.2,1.42-.91,1.52-.71.2-1.42-.2-1.52-.91-.4-1.31-.2-2.63.51-3.84s1.72-2.02,3.04-2.43c.4-.1.91-.2,1.31-.2,2.23,0,4.25,1.52,4.86,3.74l.71,2.53c.2.71-.2,1.42-.91,1.52-.1.1-.2.1-.3.1Z"/><path class="cls-2" d="M46.28,28.32c-2.23,0-4.25-1.42-4.86-3.74-.2-.71.2-1.42.91-1.52.71-.2,1.42.2,1.52.91.4,1.32,1.82,2.12,3.14,1.72h0c1.32-.4,2.12-1.82,1.72-3.14l-.71-2.53c-.2-.71.2-1.42.91-1.52.71-.2,1.42.2,1.52.91l.71,2.53c.71,2.73-.81,5.46-3.54,6.27h0c-.41,0-.91.1-1.32.1Z"/><path class="cls-2" d="M49.22,21.04c-.2,0-.4-.1-.61-.2-.3-.2-.5-.41-.61-.81l-2.33-8.4c-.1-.3,0-.71.1-1.01.2-.3.4-.51.81-.61l1.42-.4c.51-.1,1.01-.2,1.52-.2,2.53,0,4.75,1.72,5.46,4.15.1.51.2,1.01.2,1.52,0,2.53-1.72,4.75-4.15,5.46l-1.42.4c-.1,0-.3.1-.4.1ZM48.41,12.24l1.72,5.97.2-.1c1.32-.4,2.23-1.62,2.23-3.04,0-.3,0-.61-.1-.81-.41-1.32-1.62-2.23-3.04-2.23-.3,0-.61,0-.81.1l-.2.1Z"/><path class="cls-2" d="M19.37,17.6c-.51,0-1.01-.4-1.21-.91l-.3-1.21c-.71-2.73.81-5.46,3.54-6.27.4-.1.91-.2,1.31-.2,2.23,0,4.25,1.52,4.86,3.74l.3,1.21c.2.71-.2,1.42-.91,1.52-.71.2-1.42-.2-1.52-.91l-.3-1.21c-.3-1.11-1.31-1.82-2.43-1.82-.2,0-.51,0-.71.1-.61.2-1.21.61-1.52,1.21-.3.61-.4,1.32-.2,1.92l.3,1.21c.2.71-.2,1.42-.91,1.52,0,.1-.2.1-.3.1Z"/><path class="cls-2" d="M15.83,32.98c-.2,0-.4-.1-.61-.2-.3-.2-.51-.4-.61-.81l-3.74-13.35c-.1-.3,0-.71.1-.91.1-.2.4-.51.81-.61l26.81-7.49c.71-.2,1.42.2,1.52.91l3.74,13.35c.1.3,0,.71-.1.91-.2.3-.4.51-.81.61l-13.15,3.64c-.71.2-1.42-.2-1.52-.91-.2-.71.2-1.42.91-1.52l11.94-3.34-3.04-10.93-24.48,6.88,3.03,10.93,5.16-1.42c.71-.2,1.42.2,1.52.91.2.71-.2,1.42-.91,1.52l-6.37,1.72c0,.1-.1.1-.2.1Z"/><path class="cls-2" d="M25.85,34.29c-2.43,0-4.45-1.72-4.96-4.05-.1-.3-.1-.71-.1-1.01,0-2.83,2.23-5.06,5.06-5.06,2.12,0,4.05,1.32,4.75,3.34.2.51.3,1.11.3,1.72,0,2.73-2.23,5.06-5.06,5.06ZM25.85,26.71c-1.42,0-2.53,1.11-2.53,2.53,0,.2,0,.3.1.51.2,1.21,1.31,2.02,2.43,2.02,1.42,0,2.53-1.11,2.53-2.53,0-.3,0-.61-.1-.81-.4-1.11-1.31-1.72-2.43-1.72Z"/><path class="cls-2" d="M38.49,54.52c-.71,0-1.32-.61-1.32-1.32s.61-1.31,1.32-1.31c.3,0,.61-.1.91-.41.2-.2.4-.61.4-.91,0-.71-.61-1.31-1.31-1.31H13.2c-.3,0-.61.1-.91.4-.2.2-.4.61-.4.91,0,.71.61,1.32,1.31,1.32s1.31.61,1.31,1.31-.61,1.32-1.31,1.32c-2.12,0-3.84-1.72-3.84-3.84,0-1.01.4-1.92,1.11-2.73.71-.71,1.72-1.11,2.73-1.11h25.29c2.12,0,3.84,1.72,3.84,3.84,0,1.01-.4,1.92-1.11,2.73-.71.71-1.72,1.11-2.73,1.11Z"/><path class="cls-2" d="M19.58,49.47c-.2,0-.3,0-.51-.1-.61-.3-.91-1.01-.71-1.62l6.37-15.17c.2-.51.81-.91,1.42-.71.61.1,1.01.61,1.01,1.21v15.17c0,.71-.61,1.31-1.31,1.31s-1.31-.61-1.31-1.31v-8.9l-3.84,9.31c-.2.51-.61.81-1.11.81Z"/><path class="cls-2" d="M32.22,49.47c-.51,0-1.01-.3-1.21-.81l-6.37-15.17c-.3-.61,0-1.42.71-1.62.61-.3,1.42,0,1.62.71l6.37,15.17c.3.61,0,1.42-.71,1.62-.1,0-.3.1-.4.1Z"/><path class="cls-2" d="M19.58,22.86c-.51,0-1.01-.41-1.21-.91-.2-.71.2-1.42.91-1.52l8.9-2.53c.71-.2,1.42.2,1.52.91.2.71-.2,1.42-.91,1.52l-8.9,2.53h-.3Z"/><path class="cls-2" d="M6.93,44.41c-2.12,0-3.84-1.72-3.84-3.84s1.72-3.84,3.84-3.84,3.84,1.72,3.84,3.84-1.72,3.84-3.84,3.84ZM6.93,39.35c-.71,0-1.31.61-1.31,1.32s.61,1.31,1.31,1.31,1.32-.61,1.32-1.31-.61-1.32-1.32-1.32Z"/><path class="cls-2" d="M10.67,7.69c-2.12,0-3.84-1.72-3.84-3.84s1.72-3.84,3.84-3.84,3.84,1.72,3.84,3.84-1.72,3.84-3.84,3.84ZM10.67,2.63c-.71,0-1.31.61-1.31,1.32s.61,1.31,1.31,1.31,1.31-.61,1.31-1.31-.61-1.32-1.31-1.32Z"/><path class="cls-2" d="M49.32,39.35c-2.43,0-4.45-2.02-4.45-4.45s2.02-4.45,4.45-4.45,4.45,2.02,4.45,4.45-2.02,4.45-4.45,4.45ZM49.32,32.98c-1.01,0-1.92.81-1.92,1.92s.81,1.92,1.92,1.92,1.92-.81,1.92-1.92-.91-1.92-1.92-1.92Z"/><path class="cls-2" d="M44.87,54.52H6.93c-.71,0-1.31-.61-1.31-1.32s.61-1.31,1.31-1.31h37.93c.71,0,1.31.61,1.31,1.31-.1.71-.61,1.32-1.31,1.32Z"/></g></g></svg>