<?xml version="1.0" encoding="UTF-8"?><svg id="Layer_2" xmlns="http://www.w3.org/2000/svg" viewBox="0 0 54.42 53.11"><defs><style>.cls-1{fill:#a7c7fc;}.cls-2{fill:#4d80c9;}.cls-3{fill:#fff;}</style></defs><g id="Isolation_Mode"><g id="_1002_Education_Graduate_Graduation_School"><polygon class="cls-3" points="36.21 34.09 29.94 42.99 26.61 37.93 32.98 32.88 36.21 34.09"/><polygon class="cls-3" points="26.61 37.93 23.27 42.99 17 34.09 20.33 32.88 26.61 37.93"/><path class="cls-1" d="M40.57,51.79H6.37v-8.09c0-5.36,4.35-9.61,9.61-9.61h.91l6.37,8.9,3.34-5.06,3.34,5.06,6.37-8.9h.91c5.36,0,9.61,4.35,9.61,9.61v8.09h-6.27Z"/><path class="cls-3" d="M49.97,12.64c1.73,0,3.14,1.4,3.14,3.14s-1.4,3.14-3.14,3.14-3.14-1.4-3.14-3.14,1.4-3.14,3.14-3.14Z"/><path class="cls-3" d="M9.51,1.21c1.06,0,1.92.86,1.92,1.92s-.86,1.92-1.92,1.92-1.92-.86-1.92-1.92.86-1.92,1.92-1.92Z"/><path class="cls-3" d="M3.84,23.97c1.4,0,2.53,1.13,2.53,2.53s-1.13,2.53-2.53,2.53-2.53-1.13-2.53-2.53,1.13-2.53,2.53-2.53Z"/><path class="cls-3" d="M33.89,16.39c1.01,1.42,1.62,3.14,1.62,5.06,0,4.86-3.95,8.9-8.9,8.9s-8.9-3.95-8.9-8.9c0-1.92.61-3.64,1.62-5.06h14.57Z"/><polygon class="cls-3" points="33.89 10.62 33.89 16.39 19.32 16.39 19.32 10.72 19.42 10.62 26.4 12.64 33.89 10.62"/><polygon class="cls-3" points="33.89 10.62 26.4 12.64 19.42 10.62 13.45 9 26.4 6.27 39.76 9 33.89 10.62"/><path class="cls-2" d="M51.89,48.05c.67,0,1.21.54,1.21,1.21s-.54,1.21-1.21,1.21-1.21-.54-1.21-1.21.54-1.21,1.21-1.21Z"/><path class="cls-2" d="M49.37,26.6c.67,0,1.21.54,1.21,1.21s-.54,1.21-1.21,1.21-1.21-.54-1.21-1.21.54-1.21,1.21-1.21Z"/><path class="cls-2" d="M43.09,2.53c.67,0,1.21.54,1.21,1.21s-.54,1.21-1.21,1.21-1.21-.54-1.21-1.21.54-1.21,1.21-1.21Z"/><path class="cls-2" d="M5.97,11.73c.51.51.51,1.31,0,1.82-.51.51-1.32.51-1.82,0-.51-.51-.51-1.31,0-1.82.61-.51,1.32-.51,1.82,0Z"/><path class="cls-2" d="M2.23,35.71c.51.51.51,1.32,0,1.82-.51.51-1.31.51-1.82,0s-.51-1.31,0-1.82c.51-.51,1.31-.51,1.82,0Z"/><path class="cls-2" d="M33.89,17.7h-14.57c-.71,0-1.31-.61-1.31-1.31v-5.67c0-.71.61-1.31,1.31-1.31s1.32.61,1.32,1.31v4.45h11.94v-4.55c0-.71.61-1.31,1.32-1.31s1.31.61,1.31,1.31v5.77c-.1.71-.71,1.31-1.31,1.31Z"/><path class="cls-2" d="M26.4,13.86h-.3l-12.95-3.54c-.61-.2-.91-.71-.91-1.21,0-.61.41-1.11,1.01-1.21l12.95-2.73h.51l13.35,2.73c.61.1,1.01.61,1.01,1.21s-.41,1.11-.91,1.21l-13.35,3.54h-.41ZM18.82,9.21l7.59,2.12,7.89-2.12-7.89-1.62-7.59,1.62Z"/><path class="cls-2" d="M26.61,31.56c-5.56,0-10.12-4.55-10.12-10.12,0-2.02.61-4.05,1.82-5.77.41-.61,1.21-.71,1.72-.3.61.4.71,1.21.3,1.72-.81,1.31-1.31,2.83-1.31,4.35,0,4.15,3.44,7.59,7.59,7.59s7.59-3.44,7.59-7.59c0-1.52-.51-3.04-1.42-4.35-.4-.61-.3-1.31.3-1.72.61-.4,1.32-.3,1.72.3,1.32,1.72,1.92,3.74,1.92,5.77,0,5.56-4.55,10.12-10.12,10.12Z"/><path class="cls-2" d="M46.84,53.11H6.37c-.71,0-1.31-.61-1.31-1.32v-8.09c0-6.07,4.86-10.93,10.92-10.93h.91c.71,0,1.32.61,1.32,1.31s-.61,1.32-1.32,1.32h-.91c-4.65,0-8.4,3.74-8.4,8.4v6.78h37.93v-6.88c0-4.65-3.74-8.4-8.4-8.4h-.91c-.71,0-1.31-.61-1.31-1.32s.61-1.31,1.31-1.31h.91c6.07,0,10.92,4.86,10.92,10.93v8.09c.1.81-.51,1.42-1.21,1.42Z"/><path class="cls-2" d="M23.27,44.21c-.4,0-.81-.2-1.01-.51l-6.37-8.9c-.2-.3-.3-.71-.2-1.11.1-.4.41-.71.81-.81l3.34-1.31c.41-.2.91-.1,1.21.2l6.37,5.06c.51.4.61,1.11.3,1.72l-3.34,5.06c-.3.4-.61.61-1.11.61h0ZM18.92,34.7l4.25,5.97,1.72-2.53-4.86-3.84-1.11.4Z"/><path class="cls-2" d="M29.94,44.21h0c-.4,0-.81-.2-1.01-.61l-3.34-5.06c-.41-.51-.2-1.32.3-1.72l6.37-5.06c.3-.3.81-.3,1.21-.2l3.34,1.31c.4.1.61.4.81.81.1.4,0,.81-.2,1.11l-6.47,8.9c-.2.3-.61.51-1.01.51ZM28.33,38.14l1.72,2.53,4.25-5.97-1.11-.4-4.86,3.84Z"/><path class="cls-2" d="M39.76,22.76c-.71,0-1.32-.61-1.32-1.31v-12.44c0-.71.61-1.31,1.32-1.31s1.32.61,1.32,1.31v12.44c0,.71-.61,1.31-1.32,1.31Z"/><path class="cls-2" d="M40.57,53.11c-.71,0-1.32-.61-1.32-1.32v-7.59c0-.71.61-1.32,1.32-1.32s1.31.61,1.31,1.32v7.59c-.1.71-.71,1.32-1.31,1.32Z"/><path class="cls-2" d="M12.75,53.11c-.71,0-1.31-.61-1.31-1.32v-7.59c0-.71.61-1.32,1.31-1.32s1.32.61,1.32,1.32v7.59c-.1.71-.71,1.32-1.32,1.32Z"/><path class="cls-2" d="M3.84,30.35c-2.12,0-3.84-1.72-3.84-3.84s1.72-3.84,3.84-3.84,3.84,1.72,3.84,3.84-1.72,3.84-3.84,3.84ZM3.84,25.29c-.71,0-1.32.61-1.32,1.31s.61,1.32,1.32,1.32,1.31-.61,1.31-1.32-.61-1.31-1.31-1.31Z"/><path class="cls-2" d="M9.51,6.27c-1.72,0-3.14-1.42-3.14-3.14s1.42-3.14,3.14-3.14,3.14,1.42,3.14,3.14-1.42,3.14-3.14,3.14ZM9.51,2.53c-.3,0-.61.3-.61.61s.3.61.61.61.61-.3.61-.61-.2-.61-.61-.61Z"/><path class="cls-2" d="M49.97,20.23c-2.43,0-4.45-2.02-4.45-4.45s2.02-4.45,4.45-4.45,4.45,2.02,4.45,4.45-2.02,4.45-4.45,4.45ZM49.97,13.86c-1.01,0-1.92.81-1.92,1.92s.81,1.92,1.92,1.92c1.01,0,1.92-.81,1.92-1.92s-.81-1.92-1.92-1.92Z"/></g></g></svg>