<?xml version="1.0" encoding="UTF-8"?><svg id="Layer_2" xmlns="http://www.w3.org/2000/svg" viewBox="0 0 58.17 58.27"><defs><style>.cls-1{fill:#498bc9;}.cls-2{fill:#fff;}.cls-3{fill:#a1cdfc;}</style></defs><g id="Isolation_Mode"><g id="_1008_Back_To_School_Education_Bell"><path class="cls-3" d="M38.89,20.54c-1.31-1.32-2.93-2.43-4.75-3.14-1.52-.61-3.24-.91-5.06-.91s-3.54.3-5.06.91c-5.16,2.02-8.9,7.08-8.9,12.95v15.17h27.82v-15.17c.1-3.74-1.52-7.28-4.05-9.81Z"/><path class="cls-2" d="M29.08,24.08c2.79,0,5.06,2.26,5.06,5.06s-2.26,5.06-5.06,5.06-5.06-2.26-5.06-5.06,2.26-5.06,5.06-5.06Z"/><path class="cls-2" d="M34.14,50.68v1.31c0,2.83-2.23,5.06-5.06,5.06s-5.06-2.23-5.06-5.06v-1.31h10.12Z"/><circle class="cls-2" cx="52.45" cy="55.03" r="1.92" transform="translate(-10.3 97.94) rotate(-80.74)"/><path class="cls-2" d="M8.85,12.75c1.4,0,2.53,1.13,2.53,2.53s-1.13,2.53-2.53,2.53-2.53-1.13-2.53-2.53,1.13-2.53,2.53-2.53Z"/><path class="cls-2" d="M51.24,6.37c1.73,0,3.14,1.4,3.14,3.14s-1.4,3.14-3.14,3.14-3.14-1.4-3.14-3.14,1.4-3.14,3.14-3.14Z"/><path class="cls-2" d="M34.14,12.75v4.75c-1.52-.61-3.24-.91-5.06-.91s-3.54.3-5.06.91v-4.75h10.12Z"/><path class="cls-2" d="M31.61,3.84v8.9h-5.06V3.84c0-1.42,1.11-2.53,2.53-2.53.71,0,1.31.3,1.82.71.41.51.71,1.11.71,1.82Z"/><path class="cls-2" d="M44.26,45.62c1.42,0,2.53,1.11,2.53,2.53,0,.71-.3,1.32-.71,1.82-.51.51-1.11.71-1.82.71H13.91c-1.42,0-2.53-1.11-2.53-2.53,0-.71.3-1.31.71-1.82.51-.51,1.11-.71,1.82-.71h30.35Z"/><path class="cls-1" d="M51.84,42.99c.73,0,1.31.59,1.31,1.32s-.59,1.31-1.31,1.31-1.32-.59-1.32-1.31.59-1.32,1.32-1.32Z"/><path class="cls-1" d="M41.73,8.9c.73,0,1.32.59,1.32,1.31s-.59,1.31-1.32,1.31-1.32-.59-1.32-1.31.59-1.31,1.32-1.31Z"/><path class="cls-1" d="M12.7,7.59c.73,0,1.31.59,1.31,1.31s-.59,1.31-1.31,1.31-1.32-.59-1.32-1.31.59-1.31,1.32-1.31Z"/><path class="cls-1" d="M6.32,49.37c.73,0,1.31.59,1.31,1.32s-.59,1.31-1.31,1.31-1.32-.59-1.32-1.31.59-1.32,1.32-1.32Z"/><path class="cls-1" d="M24.02,18.71c-.71,0-1.31-.61-1.31-1.31v-4.75c0-.71.61-1.31,1.31-1.31h2.53c.71,0,1.32.61,1.32,1.31s-.61,1.32-1.32,1.32h-1.32v3.44c.1.71-.51,1.31-1.21,1.31Z"/><path class="cls-1" d="M34.14,18.71c-.71,0-1.32-.61-1.32-1.31v-3.44h-1.31c-.71,0-1.32-.61-1.32-1.32s.61-1.31,1.32-1.31h2.63c.71,0,1.32.61,1.32,1.31v4.75c0,.71-.61,1.31-1.32,1.31Z"/><path class="cls-1" d="M31.61,13.96h-5.06c-.71,0-1.32-.61-1.32-1.32V3.84c0-2.12,1.72-3.84,3.84-3.84,1.01,0,1.92.4,2.73,1.11.71.71,1.11,1.72,1.11,2.73v8.9c0,.61-.61,1.21-1.32,1.21ZM27.87,11.43h2.53V3.84c0-.3-.1-.61-.4-.91-.2-.2-.51-.4-.91-.4-.71,0-1.32.61-1.32,1.31v7.59h.1Z"/><path class="cls-1" d="M43.04,46.84c-.71,0-1.32-.61-1.32-1.31v-15.17c0-3.34-1.32-6.58-3.74-8.9-1.21-1.21-2.73-2.23-4.35-2.83-1.42-.61-3.04-.91-4.55-.91-1.62,0-3.14.3-4.55.91-4.86,1.92-8.09,6.58-8.09,11.73v15.17c0,.71-.61,1.31-1.31,1.31s-1.21-.61-1.21-1.21v-15.17c0-3.14.91-6.07,2.73-8.7,1.72-2.53,4.15-4.35,6.98-5.46,1.72-.71,3.64-1.01,5.56-1.01s3.74.3,5.56,1.01c1.92.81,3.74,1.92,5.26,3.44,2.83,2.83,4.45,6.68,4.45,10.72v15.17c-.2.61-.81,1.21-1.42,1.21Z"/><path class="cls-1" d="M44.26,51.89h-10.12c-.71,0-1.32-.61-1.32-1.31s.61-1.32,1.32-1.32h10.12c.3,0,.61-.1.91-.4.2-.2.4-.51.4-.91,0-.71-.61-1.31-1.31-1.31H13.91c-.3,0-.61.1-.91.4-.2.2-.4.61-.4.91,0,.71.61,1.31,1.32,1.31h10.12c.71,0,1.32.61,1.32,1.32s-.61,1.31-1.32,1.31h-10.12c-2.12,0-3.84-1.72-3.84-3.84,0-1.01.41-1.92,1.11-2.73.81-.61,1.72-1.01,2.73-1.01h30.35c2.12,0,3.84,1.72,3.84,3.84,0,1.01-.4,1.92-1.11,2.73-.81.61-1.72,1.01-2.73,1.01Z"/><path class="cls-1" d="M29.08,58.27c-3.44,0-6.37-2.83-6.37-6.37v-1.31c0-.71.61-1.32,1.31-1.32h10.12c.71,0,1.32.61,1.32,1.32v1.31c0,3.44-2.83,6.37-6.37,6.37ZM25.34,51.89c0,2.12,1.72,3.84,3.84,3.84s3.84-1.72,3.84-3.84h-7.69Z"/><path class="cls-1" d="M36.67,41.78H15.22c-.71,0-1.31-.61-1.31-1.31s.61-1.31,1.31-1.31h21.55c.71,0,1.32.61,1.32,1.31s-.71,1.31-1.42,1.31Z"/><path class="cls-1" d="M29.08,35.51c-3.44,0-6.37-2.83-6.37-6.37s2.83-6.37,6.37-6.37,6.37,2.83,6.37,6.37-2.83,6.37-6.37,6.37ZM29.08,25.39c-2.12,0-3.84,1.72-3.84,3.84s1.72,3.84,3.84,3.84,3.84-1.72,3.84-3.84-1.72-3.84-3.84-3.84Z"/><path class="cls-1" d="M10.17,35c-.3,0-.61-.1-.91-.4-1.01-1.01-1.52-2.23-1.52-3.64s.51-2.63,1.52-3.64c.51-.51,1.31-.51,1.82,0,.51.51.51,1.31,0,1.82s-.81,1.11-.81,1.82.3,1.31.81,1.82c.51.51.51,1.32,0,1.82-.3.3-.61.4-.91.4Z"/><path class="cls-1" d="M7.43,37.73c-.3,0-.61-.1-.91-.4-1.72-1.72-2.63-3.95-2.63-6.37s.91-4.65,2.63-6.37c.51-.51,1.31-.51,1.82,0,.51.51.51,1.31,0,1.82-1.21,1.21-1.92,2.83-1.92,4.55s.71,3.34,1.92,4.55c.51.51.51,1.31,0,1.82-.3.3-.61.4-.91.4Z"/><path class="cls-1" d="M4.7,40.46c-.3,0-.61-.1-.91-.4-5.06-5.06-5.06-13.15,0-18.21.51-.51,1.32-.51,1.82,0,.5.51.5,1.32,0,1.82-4.05,4.05-4.05,10.62,0,14.57.5.51.5,1.31,0,1.82-.3.3-.61.4-.91.4Z"/><path class="cls-1" d="M48,35c-.3,0-.61-.1-.91-.4-.51-.51-.51-1.31,0-1.82s.81-1.11.81-1.82-.3-1.31-.81-1.82c-.51-.51-.51-1.32,0-1.82.51-.51,1.32-.51,1.82,0,1.01,1.01,1.52,2.23,1.52,3.64s-.5,2.63-1.52,3.64c-.2.3-.51.4-.91.4Z"/><path class="cls-1" d="M50.73,37.73c-.3,0-.61-.1-.91-.4-.51-.51-.51-1.31,0-1.82,1.21-1.21,1.92-2.83,1.92-4.55s-.71-3.34-1.92-4.55c-.51-.51-.51-1.32,0-1.82s1.32-.51,1.82,0c1.72,1.72,2.63,3.95,2.63,6.37s-.91,4.65-2.63,6.37c-.2.3-.5.4-.91.4Z"/><path class="cls-1" d="M53.46,40.46c-.3,0-.61-.1-.91-.4-.51-.51-.51-1.31,0-1.82,4.05-4.05,4.05-10.62,0-14.57-.51-.51-.51-1.31,0-1.82s1.31-.51,1.82,0c5.06,5.06,5.06,13.15,0,18.21-.2.3-.51.4-.91.4Z"/><path class="cls-1" d="M8.85,19.02c-2.12,0-3.84-1.72-3.84-3.84s1.72-3.84,3.84-3.84,3.74,1.72,3.74,3.84-1.62,3.84-3.74,3.84ZM8.85,13.96c-.71,0-1.31.61-1.31,1.31s.61,1.31,1.31,1.31,1.32-.61,1.32-1.31-.61-1.31-1.32-1.31Z"/><path class="cls-1" d="M52.45,58.27c-1.72,0-3.14-1.42-3.14-3.14s1.42-3.14,3.14-3.14,3.14,1.42,3.14,3.14c.1,1.62-1.31,3.14-3.14,3.14ZM52.45,54.42c-.3,0-.61.3-.61.61s.3.61.61.61.61-.3.61-.61c.1-.3-.2-.61-.61-.61Z"/><path class="cls-1" d="M51.24,13.96c-2.43,0-4.45-2.02-4.45-4.45s2.02-4.45,4.45-4.45,4.45,2.02,4.45,4.45-2.02,4.45-4.45,4.45ZM51.24,7.69c-1.01,0-1.92.81-1.92,1.92s.81,1.92,1.92,1.92c1.01,0,1.92-.81,1.92-1.92s-.91-1.92-1.92-1.92Z"/></g></g></svg>