<?xml version="1.0" encoding="UTF-8"?><svg id="Layer_2" xmlns="http://www.w3.org/2000/svg" viewBox="0 0 54.42 58.27"><defs><style>.cls-1{fill:#a3cefc;}.cls-2{fill:#528fc9;}.cls-3{fill:#fff;}</style></defs><g id="Isolation_Mode"><g id="_1014_Chalkboard_Education_School"><polygon class="cls-1" points="37.93 12.75 17.7 12.75 2.53 12.75 2.53 41.78 20.23 41.78 25.29 41.78 30.35 41.78 35.41 41.78 36.72 41.78 36.72 38.04 48.05 38.04 48.05 41.78 53.11 41.78 53.11 12.75 37.93 12.75"/><polygon class="cls-3" points="37.93 19.02 37.93 27.92 31.66 27.92 29.13 27.92 29.13 22.86 29.13 19.02 37.93 19.02"/><polygon class="cls-3" points="31.66 27.92 31.66 35.51 19.02 35.51 19.02 22.86 29.13 22.86 29.13 27.92 31.66 27.92"/><rect class="cls-3" x="36.72" y="38.04" width="11.43" height="3.84"/><path class="cls-3" d="M3.84,48.15c1.4,0,2.53,1.13,2.53,2.53s-1.13,2.53-2.53,2.53-2.53-1.13-2.53-2.53,1.13-2.53,2.53-2.53Z"/><path class="cls-3" d="M47.44,1.31c1.73,0,3.14,1.4,3.14,3.14s-1.4,3.14-3.14,3.14-3.14-1.4-3.14-3.14,1.4-3.14,3.14-3.14Z"/><polygon class="cls-3" points="35.41 41.78 44.31 56.95 39.25 56.95 35.51 50.68 30.35 41.78 35.41 41.78"/><polygon class="cls-3" points="25.29 41.78 20.13 50.68 16.49 56.95 11.43 56.95 20.23 41.78 25.29 41.78"/><polygon class="cls-3" points="37.93 7.69 37.93 12.75 17.7 12.75 17.7 7.69 25.29 7.69 30.35 7.69 37.93 7.69"/><polygon class="cls-3" points="30.35 50.68 30.35 56.95 25.29 56.95 25.29 50.68 25.29 41.78 30.35 41.78 30.35 50.68"/><rect class="cls-3" x="25.29" y="3.84" width="5.06" height="3.84"/><path class="cls-2" d="M50.58,53.11c.73,0,1.31.59,1.31,1.31s-.59,1.31-1.31,1.31-1.32-.59-1.32-1.31.59-1.31,1.32-1.31Z"/><path class="cls-2" d="M44.31,46.84c.73,0,1.32.59,1.32,1.31s-.59,1.32-1.32,1.32-1.31-.59-1.31-1.32.59-1.31,1.31-1.31Z"/><path class="cls-2" d="M37.93,1.31c.73,0,1.32.59,1.32,1.31s-.59,1.31-1.32,1.31-1.31-.59-1.31-1.31.59-1.31,1.31-1.31Z"/><path class="cls-2" d="M11.43,1.31c.73,0,1.31.59,1.31,1.31s-.59,1.31-1.31,1.31-1.32-.59-1.32-1.31.59-1.31,1.32-1.31Z"/><path class="cls-2" d="M10.12,45.52c.73,0,1.32.59,1.32,1.31s-.59,1.31-1.32,1.31-1.32-.59-1.32-1.31.59-1.31,1.32-1.31Z"/><path class="cls-2" d="M3.84,5.06c.73,0,1.31.59,1.31,1.32s-.59,1.31-1.31,1.31-1.32-.59-1.32-1.31.59-1.32,1.32-1.32Z"/><path class="cls-2" d="M20.23,43.09H2.53c-.71,0-1.32-.61-1.32-1.32V12.75c0-.71.61-1.32,1.32-1.32h15.17c.71,0,1.32.61,1.32,1.32s-.61,1.21-1.32,1.21H3.84v26.6h16.49c.71,0,1.32.61,1.32,1.32s-.71,1.21-1.42,1.21Z"/><path class="cls-2" d="M36.72,43.09h-1.31c-.71,0-1.32-.61-1.32-1.32s.61-1.31,1.32-1.31h1.31c.71,0,1.32.61,1.32,1.31s-.61,1.32-1.32,1.32Z"/><path class="cls-2" d="M53.11,43.09h-5.06c-.71,0-1.31-.61-1.31-1.32s.61-1.31,1.31-1.31h3.84V13.96h-13.96c-.71,0-1.31-.61-1.31-1.32s.61-1.31,1.31-1.31h15.17c.71,0,1.31.61,1.31,1.31v29.13c0,.71-.61,1.32-1.31,1.32Z"/><path class="cls-2" d="M37.93,13.96h-20.23c-.71,0-1.31-.61-1.31-1.32v-5.06c0-.71.61-1.32,1.31-1.32h7.59c.71,0,1.32.61,1.32,1.32s-.61,1.31-1.32,1.31h-6.37v2.53h17.7v-2.53h-6.37c-.71,0-1.32-.61-1.32-1.31s.61-1.32,1.32-1.32h7.59c.71,0,1.31.61,1.31,1.32v5.06c.1.71-.5,1.32-1.21,1.32Z"/><path class="cls-2" d="M30.35,8.9h-5.06c-.71,0-1.31-.61-1.31-1.31v-3.74c0-.71.61-1.31,1.31-1.31h5.06c.71,0,1.32.61,1.32,1.31v3.84c0,.61-.61,1.21-1.32,1.21ZM26.61,6.37h2.53v-1.32h-2.53v1.32Z"/><path class="cls-2" d="M25.29,51.89h-5.16c-.71,0-1.31-.61-1.31-1.31s.61-1.32,1.31-1.32h5.16c.71,0,1.32.61,1.32,1.32s-.61,1.31-1.32,1.31Z"/><path class="cls-2" d="M35.51,51.89h-5.16c-.71,0-1.31-.61-1.31-1.31s.61-1.32,1.31-1.32h5.16c.71,0,1.32.61,1.32,1.32s-.61,1.31-1.32,1.31Z"/><path class="cls-2" d="M30.35,58.27h-5.06c-.71,0-1.31-.61-1.31-1.32v-15.17c0-.71.61-1.31,1.31-1.31h5.06c.71,0,1.32.61,1.32,1.31v15.17c0,.71-.61,1.32-1.32,1.32ZM26.61,55.74h2.53v-12.64h-2.53v12.64Z"/><path class="cls-2" d="M44.31,58.27h-5.06c-.4,0-.91-.2-1.11-.61l-8.9-15.17c-.2-.4-.2-.91,0-1.32.2-.4.61-.61,1.11-.61h5.06c.4,0,.91.2,1.11.61l8.9,15.17c.2.4.2.91,0,1.32-.3.3-.71.61-1.11.61ZM39.96,55.74h2.12l-7.38-12.64h-2.12l7.38,12.64Z"/><path class="cls-2" d="M16.49,58.27h-5.06c-.41,0-.91-.2-1.11-.61-.2-.4-.2-.91,0-1.32l8.9-15.17c.2-.4.61-.61,1.11-.61h5.06c.4,0,.91.2,1.11.61.2.4.2.91,0,1.32l-8.9,15.17c-.3.3-.71.61-1.11.61ZM13.66,55.74h2.12l7.38-12.64h-2.12l-7.38,12.64Z"/><path class="cls-2" d="M31.66,36.72h-12.64c-.71,0-1.32-.61-1.32-1.32v-12.54c0-.71.61-1.31,1.32-1.31h10.12c.71,0,1.32.61,1.32,1.31s-.61,1.32-1.32,1.32h-8.9v10.12h10.12v-6.37c0-.71.61-1.32,1.32-1.32s1.32.61,1.32,1.32v7.59c-.1.61-.61,1.21-1.32,1.21Z"/><path class="cls-2" d="M37.93,29.13h-8.9c-.71,0-1.32-.61-1.32-1.32v-8.8c0-.71.61-1.31,1.32-1.31h8.9c.71,0,1.32.61,1.32,1.31v8.9c0,.61-.61,1.21-1.32,1.21ZM30.35,26.6h6.37v-6.37h-6.37v6.37Z"/><path class="cls-2" d="M48.05,43.09h-11.33c-.71,0-1.31-.61-1.31-1.32v-3.84c0-.71.61-1.32,1.31-1.32h11.43c.71,0,1.31.61,1.31,1.32v3.84c-.1.71-.71,1.32-1.42,1.32ZM37.93,40.56h8.9v-1.31h-8.9v1.31Z"/><path class="cls-2" d="M3.84,54.42c-2.12,0-3.84-1.72-3.84-3.84s1.72-3.84,3.84-3.84,3.84,1.72,3.84,3.84-1.82,3.84-3.84,3.84ZM3.84,49.37c-.71,0-1.32.61-1.32,1.32s.61,1.31,1.32,1.31,1.31-.61,1.31-1.31c-.1-.71-.61-1.32-1.31-1.32Z"/><path class="cls-2" d="M47.44,8.9c-2.43,0-4.45-2.02-4.45-4.45s2.02-4.45,4.45-4.45,4.45,2.02,4.45,4.45-2.02,4.45-4.45,4.45ZM47.44,2.63c-1.01,0-1.92.81-1.92,1.92s.81,1.92,1.92,1.92c1.01,0,1.92-.81,1.92-1.92s-.91-1.92-1.92-1.92Z"/></g></g></svg>