<?xml version="1.0" encoding="UTF-8"?>
<!DOCTYPE svg PUBLIC "-//W3C//DTD SVG 1.1//EN" "http://www.w3.org/Graphics/SVG/1.1/DTD/svg11.dtd">
<!-- Creator: CorelDRAW -->
<svg xmlns="http://www.w3.org/2000/svg" xml:space="preserve" width="2.83415in" height="1.31654in" version="1.1" style="shape-rendering:geometricPrecision; text-rendering:geometricPrecision; image-rendering:optimizeQuality; fill-rule:evenodd; clip-rule:evenodd"
viewBox="0 0 1153.8 535.98"
 xmlns:xlink="http://www.w3.org/1999/xlink"
 xmlns:xodm="http://www.corel.com/coreldraw/odm/2003">
 <defs>
  <style type="text/css">
   <![CDATA[
    .fil0 {fill:#2A4A97}
   ]]>
  </style>
 </defs>
 <g id="图层_x0020_1">
  <metadata id="CorelCorpID_0Corel-Layer"/>
  <g id="_105553357192416">
   <g>
    <polygon class="fil0" points="542.59,0 329.4,0 626.16,302.37 "/>
    <polygon class="fil0" points="739.5,195.7 549.25,5.46 630.67,304.53 "/>
    <polygon class="fil0" points="624.61,305.97 520.57,201.93 416.54,305.97 "/>
    <polygon class="fil0" points="740.45,19.52 655.15,104.83 740.45,190.13 "/>
    <polygon class="fil0" points="745.07,19.52 745.07,80.69 806.23,80.69 "/>
   </g>
   <g>
    <path class="fil0" d="M32.35 512.62c-1.03,5.6 -1.53,10.39 -1.53,14.36 0,4 0.71,6.97 2.16,8.99 -6.23,0 -10.6,-0.66 -13.1,-1.95 -5.37,-2.66 -8.02,-7.6 -8.02,-14.78 0,-10.89 4.58,-26.19 13.7,-45.92 2.89,-6.18 6.05,-12.25 9.49,-18.28 -4.94,0.32 -8.99,1.08 -12.15,2.29 -3.16,1.21 -5.26,3.16 -6.34,5.89 0.45,0 0.92,0.53 1.37,1.58 0.47,1.05 0.71,2.34 0.71,3.89 0,1.55 -0.87,2.87 -2.58,3.97 -1.74,1.1 -3.55,1.66 -5.44,1.66 -3.45,0 -6.07,-0.82 -7.89,-2.42 -1.84,-1.63 -2.73,-3.81 -2.73,-6.6 0,-5.44 3.05,-10.07 9.15,-13.86 6.23,-3.81 13.91,-5.71 23.04,-5.71 2.1,0 4.87,0.16 8.26,0.47 8.52,-13.41 17.57,-24.54 27.17,-33.35 9.57,-8.81 18.81,-13.2 27.69,-13.2 5.34,0 9.49,0.74 12.47,2.24l-24.72 116.12 -22.72 0 12.1 -57.25c-7,-3.18 -14.04,-5.08 -21.12,-5.71 -9.44,20.91 -15.78,40.11 -18.96,57.57zm22.28 -64.33c7.34,1.42 13.76,3.26 19.25,5.47l9.18 -42.92c-9.05,4.92 -18.52,17.41 -28.43,37.45zm139.1 41.45c-6.68,19.46 -17.23,29.19 -31.67,29.19 -9.39,0 -14.62,-4.97 -15.65,-14.94 -6.15,9.97 -13.94,14.94 -23.33,14.94 -4.73,0 -8.73,-1.47 -12.02,-4.47 -3.23,-2.97 -4.86,-7.78 -4.86,-14.41 0,-2.97 0.42,-6.42 1.24,-10.31l10.7 -50.63 22.72 0 -11.31 53.63c-0.32,1.66 -0.47,3.13 -0.47,4.47 0,4.31 1.58,6.47 4.71,6.47 5.55,0 9.76,-4.65 12.62,-13.94l10.73 -50.63 22.72 0 -11.33 53.63c-0.45,1.79 -0.68,3.66 -0.68,5.55 0,3.6 2.16,5.39 6.47,5.39 5.92,0 10.18,-4.65 12.78,-13.94l6.63 0zm63.67 0c-6.52,7.6 -14.57,14.18 -24.12,19.73 -5.97,6.31 -14.23,9.47 -24.8,9.47 -7.42,0 -13.09,-2.02 -17.07,-6.05 -4,-4.02 -5.97,-8.31 -5.97,-12.86 0,-4.55 0.87,-8.07 2.6,-10.6 1.76,-2.52 3.68,-4.29 5.79,-5.31 7.39,-13.26 13.86,-28.85 19.41,-46.76l23.36 -3.1c0.42,9.86 0.81,18.12 1.24,24.75l1.92 25.04c0.21,2.47 0.32,4.92 0.32,7.31 0,2.42 -0.21,4.52 -0.63,6.34 4.63,-2.68 8.42,-5.34 11.33,-7.94l6.63 0zm-55.33 16.73c10.07,0 15.12,-4.89 15.12,-14.65 0,-2.74 -0.21,-5.94 -0.63,-9.63l-0.92 -9.02c-0.55,-5.76 -1.05,-11.99 -1.47,-18.73 -2.66,8.63 -6.92,18.57 -12.78,29.82 2.42,1.13 3.63,2.81 3.63,5.05 0,2.24 -0.63,4.15 -1.89,5.76 -1.26,1.63 -2.95,2.45 -5.07,2.45 -2.13,0 -3.55,-0.71 -4.21,-2.08 0,7.34 2.73,11.02 8.23,11.02zm100.89 -16.73c-6.76,19.46 -18.09,29.19 -33.95,29.19 -4.18,0 -7.89,-1.47 -11.18,-4.47 -3.23,-2.97 -4.86,-7.78 -4.86,-14.41 0,-2.97 0.42,-6.42 1.24,-10.31l9.47 -44.32 -5.23 0 1.31 -6.31 5.15 0 4.79 -21.8 23.35 -3.16 -5.42 24.96 9.49 0 -1.24 6.31 -9.47 0 -10.1 47.31c-0.42,1.89 -0.63,3.79 -0.63,5.63 0,3.55 2.13,5.31 6.42,5.31 3.08,0 5.94,-1.34 8.57,-4 2.66,-2.68 4.55,-6 5.68,-9.94l6.6 0zm35.8 -71.59c0,3.5 -1.24,6.44 -3.73,8.84 -2.47,2.37 -5.47,3.58 -8.94,3.58 -3.45,0 -6.39,-1.21 -8.81,-3.63 -2.42,-2.42 -3.63,-5.34 -3.63,-8.78 0,-3.45 1.21,-6.42 3.6,-8.89 2.37,-2.5 5.34,-3.73 8.84,-3.73 3.52,0 6.52,1.24 8.99,3.68 2.47,2.47 3.68,5.44 3.68,8.94zm9.78 71.59c-6.76,19.46 -18.09,29.19 -33.95,29.19 -4.18,0 -7.89,-1.47 -11.18,-4.47 -3.23,-2.97 -4.86,-7.78 -4.86,-14.41 0,-2.97 0.42,-6.42 1.24,-10.31l10.7 -50.63 22.72 0 -11.31 53.63c-0.42,1.89 -0.63,3.79 -0.63,5.63 0,3.55 2.13,5.31 6.42,5.31 3.08,0 5.94,-1.34 8.57,-4 2.66,-2.68 4.55,-6 5.68,-9.94l6.6 0zm28.57 -42.45c5.13,-5.86 11.28,-8.78 18.41,-8.78 5.05,0 9.23,1.37 12.57,4.15 3.34,2.76 5,6.86 5,12.34 0,5.44 -0.87,11.6 -2.6,18.49l-3.79 15.25c-0.82,3.34 -1.24,6.05 -1.24,8.15 0,2.1 0.45,3.76 1.34,4.97 0.92,1.21 2.6,1.81 5.05,1.81 2.47,0 4.21,-0.34 5.18,-1 -0.79,5.71 -2.84,9.84 -6.18,12.41 -3.34,2.55 -6.81,3.84 -10.39,3.84 -6.34,0 -10.75,-1.84 -13.33,-5.55 -2.26,-3.08 -3.39,-6.97 -3.39,-11.68 0,-4.68 1.18,-11.75 3.55,-21.22 2.37,-9.44 3.55,-15.96 3.55,-19.57 0,-5.39 -1.92,-8.1 -5.71,-8.1 -3.81,0 -7.21,3.02 -10.18,9.02 -0.87,1.71 -1.6,3.55 -2.16,5.55l-10.71 50.63 -22.75 0 16.73 -78.9 22.72 0 -1.68 8.18z"/>
    <path class="fil0" d="M465.2 413.43l0 105.8 78.83 0 0 -14.82 -61.49 0 0 -32.01 55.42 0 0 -14.82 -55.42 0 0 -29.34 58.97 0 0 -14.82 -76.31 0zm148.18 -2.07l0 41.79c-6.37,-8.45 -13.93,-12.59 -22.82,-12.59 -10.97,0 -19.71,4 -25.93,12 -5.93,7.41 -8.74,16.74 -8.74,28.01 0,11.71 2.96,21.34 8.89,28.75 6.37,8 15.26,12 26.67,12 10.08,0 17.78,-3.41 23.12,-10.22l0 8.15 15.71 0 0 -107.88 -16.89 0zm-18.82 42.82c5.33,0 9.93,2.22 13.48,6.67 3.85,4.74 5.93,11.26 5.93,19.41l0 1.19c0,7.41 -1.63,13.63 -4.74,18.37 -3.56,5.19 -8.74,7.85 -15.26,7.85 -7.56,0 -13.04,-2.67 -16.45,-8 -2.96,-4.44 -4.3,-10.82 -4.3,-19.11 0,-8.3 1.48,-14.52 4.59,-18.82 3.56,-5.04 9.04,-7.56 16.74,-7.56zm53.49 -11.56l0 47.71c0,20.6 9.19,30.97 27.56,30.97 9.48,0 17.49,-4 24,-12l0 9.93 16.89 0 0 -76.61 -16.89 0 0 46.83c-1.48,5.48 -4,9.78 -7.41,13.04 -3.41,3.11 -6.96,4.74 -10.67,4.74 -5.93,0 -10.08,-1.48 -12.74,-4.3 -2.67,-2.96 -3.85,-7.41 -3.85,-13.63l0 -46.68 -16.89 0zm120.62 -2.07c-12,0 -21.34,4 -28.01,12 -6.22,7.26 -9.34,16.74 -9.34,28.3 0,11.85 3.11,21.49 9.48,28.9 6.52,7.71 15.71,11.56 27.56,11.56 9.93,0 17.93,-2.52 23.86,-7.41 6.07,-5.04 10.08,-12.74 11.85,-23.12l-16.74 0c-1.33,11.11 -7.56,16.74 -18.82,16.74 -6.52,0 -11.41,-2.37 -14.67,-6.96 -3.56,-4.74 -5.19,-11.41 -5.19,-19.86 0,-8.3 1.78,-14.82 5.33,-19.41 3.56,-4.74 8.45,-6.96 14.67,-6.96 5.04,0 9.19,1.19 12.3,3.56 2.97,2.37 5.04,5.93 6.08,10.82l16.74 0c-1.48,-9.63 -5.33,-16.74 -11.41,-21.49 -5.93,-4.44 -13.78,-6.67 -23.71,-6.67zm83.58 0c-9.78,0 -17.48,1.63 -23.12,5.19 -6.67,3.85 -10.82,10.08 -12.45,18.52l16.75 1.33c0.89,-4 3.11,-6.96 6.37,-8.89 2.82,-1.78 6.52,-2.52 11.26,-2.52 10.96,0 16.45,4.89 16.45,14.97l0 2.96 -16.74 0.45c-11.26,0.3 -20.01,2.67 -26.23,7.11 -6.82,4.59 -10.08,11.26 -10.08,19.86 0,6.37 2.37,11.56 7.11,15.71 4.59,4 10.82,6.07 18.82,6.07 6.67,0 12.45,-1.18 17.34,-3.41 4.3,-2.07 8,-4.89 10.97,-8.74l0 10.08 15.71 0 0 -48.9c0,-9.34 -2.37,-16.45 -7.11,-21.34 -5.34,-5.63 -13.78,-8.45 -25.04,-8.45zm15.26 43.71l0 3.85c0,5.93 -2.37,10.82 -6.82,14.67 -4.44,3.7 -9.93,5.63 -16.45,5.63 -3.7,0 -6.67,-1.04 -9.04,-2.82 -2.37,-1.78 -3.41,-4 -3.41,-6.67 0,-9.19 6.67,-13.93 20.15,-14.22l15.56 -0.45zm58.68 -66.38l-16.89 6.96 0 17.78 -13.78 0 0 13.93 13.78 0 0 43.27c0,6.22 1.48,10.82 4.44,14.08 3.11,3.56 8,5.33 14.67,5.33l12.89 0 0 -13.93 -10.08 0c-1.78,0 -2.96,-0.45 -3.85,-1.34 -0.89,-1.04 -1.19,-2.37 -1.19,-4.15l0 -43.27 17.04 0 0 -13.93 -17.04 0 0 -24.75zm41.05 -6.52c-3.26,0 -5.93,1.04 -8.15,3.11 -2.22,2.08 -3.26,4.74 -3.26,8 0,3.26 1.04,5.93 3.26,8.15 2.22,2.07 4.89,3.11 8.15,3.11 3.26,0 5.93,-1.04 8.15,-3.11 2.22,-2.08 3.41,-4.89 3.41,-8.15 0,-3.26 -1.18,-5.93 -3.26,-8 -2.22,-2.07 -5.04,-3.11 -8.3,-3.11zm-8.45 31.27l0 76.61 16.89 0 0 -76.61 -16.89 0zm73.35 -2.07c-11.71,0 -21.04,3.7 -28.01,11.41 -7.11,7.56 -10.52,17.19 -10.52,29.04 0,11.71 3.41,21.34 10.37,28.75 7.11,7.71 16.45,11.56 28.16,11.56 11.56,0 21.04,-3.85 28.15,-11.56 6.82,-7.41 10.37,-17.04 10.37,-28.75 0,-11.85 -3.56,-21.49 -10.52,-29.04 -7.11,-7.71 -16.45,-11.41 -28.01,-11.41zm0 13.78c6.96,0 12.45,2.67 16.3,8.3 3.26,4.74 5.04,10.97 5.04,18.37 0,7.26 -1.78,13.34 -5.04,18.23 -3.85,5.48 -9.33,8.3 -16.3,8.3 -7.11,0 -12.45,-2.81 -16.3,-8.3 -3.26,-4.74 -4.89,-10.82 -4.89,-18.23 0,-7.41 1.63,-13.63 4.89,-18.37 3.85,-5.63 9.19,-8.3 16.3,-8.3zm92.91 -13.78c-4.59,0 -8.74,0.89 -12.6,2.82 -3.7,1.78 -7.11,4.59 -10.08,8.15l0 -8.89 -16.89 0 0 76.61 16.89 0 0 -46.08c0.59,-6.07 2.67,-10.82 6.22,-14.08 3.11,-2.96 6.82,-4.44 10.96,-4.44 11.56,0 17.34,6.22 17.34,18.82l0 45.79 16.89 0 0 -47.27c0,-21.04 -9.63,-31.41 -28.75,-31.41z"/>
   </g>
  </g>
 </g>
</svg>
