<?xml version="1.0" encoding="UTF-8"?>
<!DOCTYPE svg PUBLIC "-//W3C//DTD SVG 1.1//EN" "http://www.w3.org/Graphics/SVG/1.1/DTD/svg11.dtd">
<!-- Creator: CorelDRAW -->
<svg xmlns="http://www.w3.org/2000/svg" xml:space="preserve" width="3.43973in" height="0.397976in" version="1.1" style="shape-rendering:geometricPrecision; text-rendering:geometricPrecision; image-rendering:optimizeQuality; fill-rule:evenodd; clip-rule:evenodd"
viewBox="0 0 2228.16 257.8"
 xmlns:xlink="http://www.w3.org/1999/xlink"
 xmlns:xodm="http://www.corel.com/coreldraw/odm/2003">
 <defs>
  <style type="text/css">
   <![CDATA[
    .fil0 {fill:#2A4A97}
   ]]>
  </style>
 </defs>
 <g id="图层_x0020_1">
  <metadata id="CorelCorpID_0Corel-Layer"/>
  <g id="_105553356752192">
   <g>
    <path class="fil0" d="M493.84 221.68c-1.59,8.66 -2.36,16.07 -2.36,22.21 0,6.18 1.1,10.78 3.34,13.91 -9.64,0 -16.39,-1.02 -20.26,-3.01 -8.3,-4.11 -12.4,-11.75 -12.4,-22.86 0,-16.84 7.07,-40.51 21.19,-71.01 4.47,-9.56 9.35,-18.95 14.68,-28.27 -7.65,0.49 -13.91,1.67 -18.79,3.54 -4.88,1.87 -8.14,4.88 -9.8,9.11 0.69,0 1.43,0.81 2.12,2.44 0.73,1.62 1.1,3.62 1.1,6.02 0,2.4 -1.34,4.43 -3.99,6.14 -2.69,1.71 -5.49,2.56 -8.42,2.56 -5.33,0 -9.39,-1.26 -12.2,-3.74 -2.84,-2.52 -4.23,-5.9 -4.23,-10.21 0,-8.42 4.72,-15.58 14.15,-21.43 9.64,-5.9 21.51,-8.83 35.63,-8.83 3.25,0 7.52,0.24 12.77,0.73 13.18,-20.74 27.17,-37.95 42.01,-51.57 14.8,-13.63 29.08,-20.42 42.83,-20.42 8.26,0 14.68,1.14 19.28,3.46l-38.23 179.57 -35.14 0 18.71 -88.54c-10.82,-4.92 -21.72,-7.85 -32.66,-8.83 -14.6,32.33 -24.41,62.03 -29.33,89.03zm34.45 -99.48c11.35,2.2 21.27,5.04 29.77,8.46l14.19 -66.38c-13.99,7.61 -28.63,26.93 -43.97,57.92zm215.12 64.1c-10.33,30.1 -26.64,45.15 -48.97,45.15 -14.52,0 -22.61,-7.69 -24.2,-23.1 -9.52,15.42 -21.56,23.1 -36.08,23.1 -7.32,0 -13.5,-2.28 -18.59,-6.91 -5,-4.6 -7.52,-12.04 -7.52,-22.29 0,-4.6 0.65,-9.93 1.91,-15.95l16.55 -78.29 35.14 0 -17.49 82.93c-0.49,2.56 -0.73,4.84 -0.73,6.91 0,6.67 2.44,10.01 7.28,10.01 8.58,0 15.09,-7.2 19.52,-21.56l16.59 -78.29 35.14 0 -17.53 82.93c-0.69,2.76 -1.06,5.65 -1.06,8.58 0,5.57 3.34,8.34 10,8.34 9.15,0 15.74,-7.2 19.77,-21.56l10.25 0zm98.47 0c-10.09,11.76 -22.53,21.92 -37.3,30.51 -9.23,9.76 -22,14.64 -38.36,14.64 -11.47,0 -20.25,-3.13 -26.39,-9.35 -6.18,-6.22 -9.23,-12.85 -9.23,-19.89 0,-7.04 1.34,-12.49 4.03,-16.39 2.72,-3.9 5.69,-6.63 8.95,-8.21 11.42,-20.5 21.43,-44.62 30.01,-72.32l36.12 -4.8c0.65,15.25 1.26,28.03 1.91,38.27l2.97 38.72c0.33,3.82 0.49,7.6 0.49,11.31 0,3.74 -0.33,7 -0.98,9.8 7.16,-4.15 13.01,-8.26 17.53,-12.28l10.25 0zm-85.57 25.87c15.58,0 23.39,-7.56 23.39,-22.65 0,-4.23 -0.33,-9.19 -0.98,-14.89l-1.42 -13.95c-0.86,-8.91 -1.63,-18.55 -2.28,-28.96 -4.11,13.34 -10.7,28.72 -19.77,46.12 3.74,1.75 5.61,4.35 5.61,7.81 0,3.46 -0.97,6.43 -2.93,8.91 -1.95,2.52 -4.55,3.78 -7.85,3.78 -3.29,0 -5.49,-1.1 -6.51,-3.21 0,11.35 4.23,17.04 12.73,17.04zm156.02 -25.87c-10.45,30.1 -27.98,45.15 -52.51,45.15 -6.47,0 -12.2,-2.28 -17.29,-6.91 -5,-4.6 -7.52,-12.04 -7.52,-22.29 0,-4.6 0.65,-9.93 1.91,-15.95l14.64 -68.53 -8.09 0 2.03 -9.76 7.97 0 7.4 -33.72 36.12 -4.88 -8.38 38.6 14.68 0 -1.91 9.76 -14.64 0 -15.62 73.17c-0.65,2.93 -0.98,5.86 -0.98,8.7 0,5.49 3.29,8.22 9.93,8.22 4.76,0 9.19,-2.08 13.26,-6.18 4.11,-4.15 7.04,-9.27 8.79,-15.38l10.21 0zm55.36 -110.71c0,5.41 -1.91,9.96 -5.77,13.66 -3.82,3.66 -8.46,5.53 -13.83,5.53 -5.33,0 -9.88,-1.87 -13.62,-5.61 -3.74,-3.74 -5.61,-8.26 -5.61,-13.59 0,-5.33 1.87,-9.93 5.57,-13.75 3.66,-3.87 8.26,-5.78 13.66,-5.78 5.45,0 10.09,1.91 13.91,5.69 3.82,3.82 5.69,8.42 5.69,13.83zm15.13 110.71c-10.45,30.1 -27.98,45.15 -52.51,45.15 -6.47,0 -12.2,-2.28 -17.29,-6.91 -5,-4.6 -7.52,-12.04 -7.52,-22.29 0,-4.6 0.65,-9.93 1.91,-15.95l16.55 -78.29 35.14 0 -17.49 82.93c-0.65,2.93 -0.98,5.86 -0.98,8.7 0,5.49 3.29,8.22 9.92,8.22 4.76,0 9.19,-2.08 13.26,-6.18 4.11,-4.15 7.04,-9.27 8.79,-15.38l10.21 0zm44.18 -65.64c7.93,-9.07 17.45,-13.59 28.47,-13.59 7.81,0 14.28,2.11 19.44,6.43 5.17,4.27 7.73,10.61 7.73,19.08 0,8.42 -1.34,17.93 -4.03,28.59l-5.86 23.59c-1.26,5.16 -1.91,9.35 -1.91,12.61 0,3.25 0.69,5.81 2.07,7.69 1.43,1.87 4.03,2.81 7.81,2.81 3.82,0 6.51,-0.53 8.02,-1.55 -1.22,8.82 -4.4,15.21 -9.56,19.2 -5.17,3.94 -10.54,5.94 -16.06,5.94 -9.8,0 -16.63,-2.85 -20.62,-8.58 -3.5,-4.76 -5.24,-10.78 -5.24,-18.06 0,-7.24 1.83,-18.18 5.49,-32.82 3.66,-14.6 5.49,-24.69 5.49,-30.26 0,-8.34 -2.97,-12.53 -8.83,-12.53 -5.9,0 -11.14,4.68 -15.74,13.95 -1.34,2.64 -2.48,5.49 -3.34,8.58l-16.55 78.29 -35.18 0 25.87 -122.02 35.14 0 -2.6 12.65z"/>
    <path class="fil0" d="M1163.24 68.29l0 163.62 121.91 0 0 -22.91 -95.1 0 0 -49.5 85.71 0 0 -22.92 -85.71 0 0 -45.37 91.2 0 0 -22.91 -118.01 0zm229.16 -3.21l0 64.62c-9.85,-13.06 -21.54,-19.48 -35.29,-19.48 -16.96,0 -30.48,6.19 -40.1,18.56 -9.17,11.46 -13.52,25.9 -13.52,43.31 0,18.1 4.58,33 13.75,44.46 9.85,12.37 23.61,18.56 41.25,18.56 15.58,0 27.5,-5.27 35.75,-15.81l0 12.6 24.29 0 0 -166.83 -26.13 0zm-29.1 66.23c8.25,0 15.35,3.44 20.85,10.31 5.96,7.33 9.17,17.42 9.17,30.02l0 1.83c0,11.46 -2.52,21.08 -7.33,28.42 -5.5,8.02 -13.52,12.15 -23.6,12.15 -11.69,0 -20.17,-4.12 -25.44,-12.38 -4.58,-6.87 -6.65,-16.73 -6.65,-29.56 0,-12.83 2.29,-22.46 7.11,-29.1 5.5,-7.79 13.98,-11.69 25.89,-11.69zm82.73 -17.88l0 73.79c0,31.85 14.21,47.89 42.63,47.89 14.67,0 27.04,-6.19 37.12,-18.56l0 15.35 26.13 0 0 -118.48 -26.13 0 0 72.42c-2.29,8.48 -6.19,15.13 -11.46,20.17 -5.27,4.81 -10.77,7.33 -16.5,7.33 -9.17,0 -15.58,-2.29 -19.71,-6.65 -4.12,-4.58 -5.95,-11.46 -5.95,-21.08l0 -72.19 -26.13 0zm186.54 -3.21c-18.56,0 -33,6.19 -43.31,18.56 -9.62,11.23 -14.44,25.9 -14.44,43.77 0,18.33 4.81,33.23 14.67,44.69 10.08,11.92 24.29,17.87 42.62,17.87 15.35,0 27.73,-3.89 36.89,-11.46 9.4,-7.79 15.58,-19.71 18.33,-35.75l-25.9 0c-2.06,17.19 -11.69,25.9 -29.1,25.9 -10.08,0 -17.65,-3.67 -22.69,-10.77 -5.5,-7.33 -8.02,-17.65 -8.02,-30.71 0,-12.83 2.75,-22.91 8.25,-30.02 5.5,-7.33 13.06,-10.77 22.69,-10.77 7.79,0 14.21,1.84 19.02,5.5 4.59,3.66 7.79,9.17 9.4,16.73l25.9 0c-2.29,-14.9 -8.25,-25.9 -17.65,-33.23 -9.17,-6.87 -21.31,-10.31 -36.67,-10.31zm129.25 0c-15.12,0 -27.04,2.52 -35.75,8.02 -10.31,5.96 -16.73,15.58 -19.25,28.64l25.9 2.06c1.37,-6.19 4.81,-10.77 9.85,-13.75 4.36,-2.75 10.08,-3.89 17.42,-3.89 16.96,0 25.44,7.56 25.44,23.14l0 4.58 -25.9 0.69c-17.42,0.46 -30.94,4.12 -40.56,11 -10.54,7.11 -15.58,17.42 -15.58,30.71 0,9.85 3.66,17.87 11,24.29 7.11,6.18 16.73,9.39 29.11,9.39 10.31,0 19.25,-1.83 26.81,-5.27 6.65,-3.21 12.37,-7.56 16.96,-13.52l0 15.58 24.29 0 0 -75.62c0,-14.44 -3.66,-25.44 -11,-33 -8.25,-8.71 -21.31,-13.06 -38.73,-13.06zm23.61 67.6l0 5.96c0,9.17 -3.67,16.73 -10.54,22.69 -6.87,5.73 -15.35,8.71 -25.44,8.71 -5.73,0 -10.31,-1.6 -13.98,-4.36 -3.67,-2.75 -5.27,-6.19 -5.27,-10.31 0,-14.21 10.32,-21.54 31.17,-22l24.06 -0.69zm90.75 -102.66l-26.12 10.77 0 27.5 -21.31 0 0 21.54 21.31 0 0 66.91c0,9.62 2.29,16.73 6.87,21.77 4.81,5.5 12.38,8.25 22.69,8.25l19.94 0 0 -21.54 -15.58 0c-2.75,0 -4.58,-0.69 -5.96,-2.06 -1.37,-1.6 -1.83,-3.67 -1.83,-6.42l0 -66.91 26.35 0 0 -21.54 -26.35 0 0 -38.27zm63.48 -10.08c-5.04,0 -9.17,1.6 -12.6,4.81 -3.44,3.21 -5.04,7.33 -5.04,12.38 0,5.04 1.6,9.17 5.04,12.61 3.44,3.21 7.56,4.81 12.6,4.81 5.04,0 9.17,-1.6 12.6,-4.81 3.44,-3.21 5.27,-7.56 5.27,-12.61 0,-5.04 -1.83,-9.17 -5.04,-12.38 -3.44,-3.21 -7.79,-4.81 -12.83,-4.81zm-13.06 48.35l0 118.48 26.13 0 0 -118.48 -26.13 0zm113.44 -3.21c-18.11,0 -32.55,5.73 -43.32,17.65 -11,11.69 -16.27,26.58 -16.27,44.91 0,18.1 5.27,33 16.04,44.46 11,11.92 25.44,17.87 43.54,17.87 17.87,0 32.54,-5.95 43.54,-17.87 10.54,-11.46 16.04,-26.35 16.04,-44.46 0,-18.33 -5.5,-33.23 -16.27,-44.91 -11,-11.92 -25.44,-17.65 -43.31,-17.65zm0 21.31c10.77,0 19.25,4.13 25.2,12.83 5.04,7.33 7.79,16.96 7.79,28.42 0,11.23 -2.75,20.63 -7.79,28.19 -5.95,8.48 -14.43,12.83 -25.2,12.83 -11,0 -19.25,-4.35 -25.21,-12.83 -5.04,-7.33 -7.56,-16.73 -7.56,-28.19 0,-11.46 2.52,-21.08 7.56,-28.42 5.96,-8.71 14.21,-12.83 25.21,-12.83zm143.68 -21.31c-7.1,0 -13.52,1.37 -19.48,4.35 -5.73,2.75 -11,7.11 -15.58,12.6l0 -13.75 -26.13 0 0 118.48 26.13 0 0 -71.27c0.92,-9.4 4.13,-16.73 9.62,-21.77 4.81,-4.58 10.54,-6.87 16.96,-6.87 17.87,0 26.81,9.62 26.81,29.1l0 70.81 26.12 0 0 -73.1c0,-32.54 -14.89,-48.58 -44.46,-48.58z"/>
   </g>
   <g>
    <g>
     <polygon class="fil0" points="166.32,0 -0,0 231.52,235.9 "/>
     <polygon class="fil0" points="319.95,152.69 171.52,4.26 235.04,237.59 "/>
     <polygon class="fil0" points="230.32,238.72 149.15,157.55 67.98,238.72 "/>
     <polygon class="fil0" points="320.69,15.23 254.14,81.79 320.69,148.34 "/>
     <polygon class="fil0" points="324.29,15.23 324.29,62.95 372.01,62.95 "/>
    </g>
   </g>
  </g>
 </g>
</svg>
